G04 (created by PCBNEW (2013-07-07 BZR 4022)-stable) date 12/21/2016 6:43:48 PM*
%MOIN*%
G04 Gerber Fmt 3.4, Leading zero omitted, Abs format*
%FSLAX34Y34*%
G01*
G70*
G90*
G04 APERTURE LIST*
%ADD10C,0.005*%
%ADD11C,0.00393701*%
%ADD12C,0.00787402*%
%ADD13C,0.011811*%
G04 APERTURE END LIST*
G54D10*
G54D11*
X46000Y-53600D02*
X46000Y-48950D01*
X0Y-49200D02*
X0Y-48950D01*
X46000Y-49000D02*
X46000Y-48950D01*
X0Y-49200D02*
X0Y-53600D01*
X46000Y-48950D02*
X0Y-48950D01*
X0Y-53600D02*
X46000Y-53600D01*
G54D12*
X16725Y-50175D02*
X16975Y-50425D01*
X16975Y-50175D02*
X16725Y-50425D01*
X760Y-49800D02*
G75*
G03X760Y-49800I-160J0D01*
G74*
G01*
X1760Y-49800D02*
G75*
G03X1760Y-49800I-160J0D01*
G74*
G01*
X2760Y-49800D02*
G75*
G03X2760Y-49800I-160J0D01*
G74*
G01*
X4460Y-50300D02*
G75*
G03X4460Y-50300I-160J0D01*
G74*
G01*
X5460Y-50300D02*
G75*
G03X5460Y-50300I-160J0D01*
G74*
G01*
X17010Y-51650D02*
G75*
G03X17010Y-51650I-160J0D01*
G74*
G01*
X18010Y-52650D02*
G75*
G03X18010Y-52650I-160J0D01*
G74*
G01*
X19010Y-51650D02*
G75*
G03X19010Y-51650I-160J0D01*
G74*
G01*
X20160Y-52750D02*
G75*
G03X20160Y-52750I-160J0D01*
G74*
G01*
X20660Y-49800D02*
G75*
G03X20660Y-49800I-160J0D01*
G74*
G01*
X21160Y-52750D02*
G75*
G03X21160Y-52750I-160J0D01*
G74*
G01*
X21660Y-49800D02*
G75*
G03X21660Y-49800I-160J0D01*
G74*
G01*
X22160Y-52750D02*
G75*
G03X22160Y-52750I-160J0D01*
G74*
G01*
X22660Y-49800D02*
G75*
G03X22660Y-49800I-160J0D01*
G74*
G01*
X23160Y-52750D02*
G75*
G03X23160Y-52750I-160J0D01*
G74*
G01*
X24160Y-52750D02*
G75*
G03X24160Y-52750I-160J0D01*
G74*
G01*
X24660Y-50300D02*
G75*
G03X24660Y-50300I-160J0D01*
G74*
G01*
X25160Y-52750D02*
G75*
G03X25160Y-52750I-160J0D01*
G74*
G01*
X25660Y-50300D02*
G75*
G03X25660Y-50300I-160J0D01*
G74*
G01*
X26160Y-52750D02*
G75*
G03X26160Y-52750I-160J0D01*
G74*
G01*
X27260Y-52550D02*
G75*
G03X27260Y-52550I-160J0D01*
G74*
G01*
X30260Y-52550D02*
G75*
G03X30260Y-52550I-160J0D01*
G74*
G01*
X31260Y-52150D02*
G75*
G03X31260Y-52150I-160J0D01*
G74*
G01*
X32260Y-52150D02*
G75*
G03X32260Y-52150I-160J0D01*
G74*
G01*
X40860Y-49800D02*
G75*
G03X40860Y-49800I-160J0D01*
G74*
G01*
X41860Y-49800D02*
G75*
G03X41860Y-49800I-160J0D01*
G74*
G01*
X42860Y-49800D02*
G75*
G03X42860Y-49800I-160J0D01*
G74*
G01*
X44560Y-50300D02*
G75*
G03X44560Y-50300I-160J0D01*
G74*
G01*
X45560Y-50300D02*
G75*
G03X45560Y-50300I-160J0D01*
G74*
G01*
G54D13*
X1048Y-55396D02*
X1048Y-54215D01*
X1330Y-54215D01*
X1498Y-54272D01*
X1611Y-54384D01*
X1667Y-54497D01*
X1723Y-54722D01*
X1723Y-54890D01*
X1667Y-55115D01*
X1611Y-55228D01*
X1498Y-55340D01*
X1330Y-55396D01*
X1048Y-55396D01*
X2230Y-55396D02*
X2230Y-54609D01*
X2230Y-54834D02*
X2286Y-54722D01*
X2342Y-54665D01*
X2455Y-54609D01*
X2567Y-54609D01*
X2961Y-55396D02*
X2961Y-54609D01*
X2961Y-54215D02*
X2904Y-54272D01*
X2961Y-54328D01*
X3017Y-54272D01*
X2961Y-54215D01*
X2961Y-54328D01*
X3692Y-55396D02*
X3579Y-55340D01*
X3523Y-55228D01*
X3523Y-54215D01*
X4311Y-55396D02*
X4198Y-55340D01*
X4142Y-55228D01*
X4142Y-54215D01*
X5660Y-55396D02*
X5660Y-54215D01*
X6054Y-55059D01*
X6448Y-54215D01*
X6448Y-55396D01*
X7516Y-55396D02*
X7516Y-54778D01*
X7460Y-54665D01*
X7348Y-54609D01*
X7123Y-54609D01*
X7010Y-54665D01*
X7516Y-55340D02*
X7404Y-55396D01*
X7123Y-55396D01*
X7010Y-55340D01*
X6954Y-55228D01*
X6954Y-55115D01*
X7010Y-55003D01*
X7123Y-54947D01*
X7404Y-54947D01*
X7516Y-54890D01*
X8079Y-54609D02*
X8079Y-55790D01*
X8079Y-54665D02*
X8191Y-54609D01*
X8416Y-54609D01*
X8529Y-54665D01*
X8585Y-54722D01*
X8641Y-54834D01*
X8641Y-55171D01*
X8585Y-55284D01*
X8529Y-55340D01*
X8416Y-55396D01*
X8191Y-55396D01*
X8079Y-55340D01*
X9147Y-55284D02*
X9204Y-55340D01*
X9147Y-55396D01*
X9091Y-55340D01*
X9147Y-55284D01*
X9147Y-55396D01*
X9147Y-54665D02*
X9204Y-54722D01*
X9147Y-54778D01*
X9091Y-54722D01*
X9147Y-54665D01*
X9147Y-54778D01*
X-269Y-57274D02*
X-19Y-57524D01*
X-19Y-57274D02*
X-269Y-57524D01*
X1273Y-56696D02*
X1386Y-56696D01*
X1498Y-56752D01*
X1555Y-56808D01*
X1611Y-56921D01*
X1667Y-57146D01*
X1667Y-57427D01*
X1611Y-57652D01*
X1555Y-57764D01*
X1498Y-57821D01*
X1386Y-57877D01*
X1273Y-57877D01*
X1161Y-57821D01*
X1105Y-57764D01*
X1048Y-57652D01*
X992Y-57427D01*
X992Y-57146D01*
X1048Y-56921D01*
X1105Y-56808D01*
X1161Y-56752D01*
X1273Y-56696D01*
X2173Y-57764D02*
X2230Y-57821D01*
X2173Y-57877D01*
X2117Y-57821D01*
X2173Y-57764D01*
X2173Y-57877D01*
X3242Y-56696D02*
X3017Y-56696D01*
X2904Y-56752D01*
X2848Y-56808D01*
X2736Y-56977D01*
X2679Y-57202D01*
X2679Y-57652D01*
X2736Y-57764D01*
X2792Y-57821D01*
X2904Y-57877D01*
X3129Y-57877D01*
X3242Y-57821D01*
X3298Y-57764D01*
X3354Y-57652D01*
X3354Y-57371D01*
X3298Y-57258D01*
X3242Y-57202D01*
X3129Y-57146D01*
X2904Y-57146D01*
X2792Y-57202D01*
X2736Y-57258D01*
X2679Y-57371D01*
X4367Y-57089D02*
X4367Y-57877D01*
X4086Y-56639D02*
X3804Y-57483D01*
X4535Y-57483D01*
X4985Y-57877D02*
X4985Y-57089D01*
X4985Y-57202D02*
X5042Y-57146D01*
X5154Y-57089D01*
X5323Y-57089D01*
X5435Y-57146D01*
X5492Y-57258D01*
X5492Y-57877D01*
X5492Y-57258D02*
X5548Y-57146D01*
X5660Y-57089D01*
X5829Y-57089D01*
X5942Y-57146D01*
X5998Y-57258D01*
X5998Y-57877D01*
X6560Y-57877D02*
X6560Y-57089D01*
X6560Y-57202D02*
X6616Y-57146D01*
X6729Y-57089D01*
X6898Y-57089D01*
X7010Y-57146D01*
X7066Y-57258D01*
X7066Y-57877D01*
X7066Y-57258D02*
X7123Y-57146D01*
X7235Y-57089D01*
X7404Y-57089D01*
X7516Y-57146D01*
X7573Y-57258D01*
X7573Y-57877D01*
X9879Y-56639D02*
X8866Y-58158D01*
X11397Y-56696D02*
X11510Y-56696D01*
X11622Y-56752D01*
X11678Y-56808D01*
X11735Y-56921D01*
X11791Y-57146D01*
X11791Y-57427D01*
X11735Y-57652D01*
X11678Y-57764D01*
X11622Y-57821D01*
X11510Y-57877D01*
X11397Y-57877D01*
X11285Y-57821D01*
X11228Y-57764D01*
X11172Y-57652D01*
X11116Y-57427D01*
X11116Y-57146D01*
X11172Y-56921D01*
X11228Y-56808D01*
X11285Y-56752D01*
X11397Y-56696D01*
X12297Y-57764D02*
X12353Y-57821D01*
X12297Y-57877D01*
X12241Y-57821D01*
X12297Y-57764D01*
X12297Y-57877D01*
X13084Y-56696D02*
X13197Y-56696D01*
X13309Y-56752D01*
X13366Y-56808D01*
X13422Y-56921D01*
X13478Y-57146D01*
X13478Y-57427D01*
X13422Y-57652D01*
X13366Y-57764D01*
X13309Y-57821D01*
X13197Y-57877D01*
X13084Y-57877D01*
X12972Y-57821D01*
X12916Y-57764D01*
X12859Y-57652D01*
X12803Y-57427D01*
X12803Y-57146D01*
X12859Y-56921D01*
X12916Y-56808D01*
X12972Y-56752D01*
X13084Y-56696D01*
X13928Y-56808D02*
X13984Y-56752D01*
X14097Y-56696D01*
X14378Y-56696D01*
X14491Y-56752D01*
X14547Y-56808D01*
X14603Y-56921D01*
X14603Y-57033D01*
X14547Y-57202D01*
X13872Y-57877D01*
X14603Y-57877D01*
X15672Y-56696D02*
X15109Y-56696D01*
X15053Y-57258D01*
X15109Y-57202D01*
X15222Y-57146D01*
X15503Y-57146D01*
X15615Y-57202D01*
X15672Y-57258D01*
X15728Y-57371D01*
X15728Y-57652D01*
X15672Y-57764D01*
X15615Y-57821D01*
X15503Y-57877D01*
X15222Y-57877D01*
X15109Y-57821D01*
X15053Y-57764D01*
X16178Y-56696D02*
X16178Y-56921D01*
X16628Y-56696D02*
X16628Y-56921D01*
X18371Y-58327D02*
X18315Y-58270D01*
X18203Y-58102D01*
X18146Y-57989D01*
X18090Y-57821D01*
X18034Y-57539D01*
X18034Y-57314D01*
X18090Y-57033D01*
X18146Y-56864D01*
X18203Y-56752D01*
X18315Y-56583D01*
X18371Y-56527D01*
X19440Y-57877D02*
X18765Y-57877D01*
X19102Y-57877D02*
X19102Y-56696D01*
X18990Y-56864D01*
X18877Y-56977D01*
X18765Y-57033D01*
X20846Y-57877D02*
X20846Y-56696D01*
X21352Y-57877D02*
X21352Y-57258D01*
X21296Y-57146D01*
X21183Y-57089D01*
X21015Y-57089D01*
X20902Y-57146D01*
X20846Y-57202D01*
X22083Y-57877D02*
X21971Y-57821D01*
X21915Y-57764D01*
X21858Y-57652D01*
X21858Y-57314D01*
X21915Y-57202D01*
X21971Y-57146D01*
X22083Y-57089D01*
X22252Y-57089D01*
X22365Y-57146D01*
X22421Y-57202D01*
X22477Y-57314D01*
X22477Y-57652D01*
X22421Y-57764D01*
X22365Y-57821D01*
X22252Y-57877D01*
X22083Y-57877D01*
X23152Y-57877D02*
X23039Y-57821D01*
X22983Y-57708D01*
X22983Y-56696D01*
X24052Y-57821D02*
X23939Y-57877D01*
X23714Y-57877D01*
X23602Y-57821D01*
X23546Y-57708D01*
X23546Y-57258D01*
X23602Y-57146D01*
X23714Y-57089D01*
X23939Y-57089D01*
X24052Y-57146D01*
X24108Y-57258D01*
X24108Y-57371D01*
X23546Y-57483D01*
X24502Y-58327D02*
X24558Y-58270D01*
X24670Y-58102D01*
X24727Y-57989D01*
X24783Y-57821D01*
X24839Y-57539D01*
X24839Y-57314D01*
X24783Y-57033D01*
X24727Y-56864D01*
X24670Y-56752D01*
X24558Y-56583D01*
X24502Y-56527D01*
G54D12*
X-19Y-58958D02*
G75*
G03X-19Y-58958I-160J0D01*
G74*
G01*
G54D13*
X1273Y-58255D02*
X1386Y-58255D01*
X1498Y-58311D01*
X1555Y-58367D01*
X1611Y-58480D01*
X1667Y-58705D01*
X1667Y-58986D01*
X1611Y-59211D01*
X1555Y-59323D01*
X1498Y-59380D01*
X1386Y-59436D01*
X1273Y-59436D01*
X1161Y-59380D01*
X1105Y-59323D01*
X1048Y-59211D01*
X992Y-58986D01*
X992Y-58705D01*
X1048Y-58480D01*
X1105Y-58367D01*
X1161Y-58311D01*
X1273Y-58255D01*
X2173Y-59323D02*
X2230Y-59380D01*
X2173Y-59436D01*
X2117Y-59380D01*
X2173Y-59323D01*
X2173Y-59436D01*
X2904Y-58761D02*
X2792Y-58705D01*
X2736Y-58648D01*
X2679Y-58536D01*
X2679Y-58480D01*
X2736Y-58367D01*
X2792Y-58311D01*
X2904Y-58255D01*
X3129Y-58255D01*
X3242Y-58311D01*
X3298Y-58367D01*
X3354Y-58480D01*
X3354Y-58536D01*
X3298Y-58648D01*
X3242Y-58705D01*
X3129Y-58761D01*
X2904Y-58761D01*
X2792Y-58817D01*
X2736Y-58873D01*
X2679Y-58986D01*
X2679Y-59211D01*
X2736Y-59323D01*
X2792Y-59380D01*
X2904Y-59436D01*
X3129Y-59436D01*
X3242Y-59380D01*
X3298Y-59323D01*
X3354Y-59211D01*
X3354Y-58986D01*
X3298Y-58873D01*
X3242Y-58817D01*
X3129Y-58761D01*
X4479Y-59436D02*
X3804Y-59436D01*
X4142Y-59436D02*
X4142Y-58255D01*
X4029Y-58423D01*
X3917Y-58536D01*
X3804Y-58592D01*
X4985Y-59436D02*
X4985Y-58648D01*
X4985Y-58761D02*
X5042Y-58705D01*
X5154Y-58648D01*
X5323Y-58648D01*
X5435Y-58705D01*
X5492Y-58817D01*
X5492Y-59436D01*
X5492Y-58817D02*
X5548Y-58705D01*
X5660Y-58648D01*
X5829Y-58648D01*
X5942Y-58705D01*
X5998Y-58817D01*
X5998Y-59436D01*
X6560Y-59436D02*
X6560Y-58648D01*
X6560Y-58761D02*
X6616Y-58705D01*
X6729Y-58648D01*
X6898Y-58648D01*
X7010Y-58705D01*
X7066Y-58817D01*
X7066Y-59436D01*
X7066Y-58817D02*
X7123Y-58705D01*
X7235Y-58648D01*
X7404Y-58648D01*
X7516Y-58705D01*
X7573Y-58817D01*
X7573Y-59436D01*
X9879Y-58198D02*
X8866Y-59717D01*
X11397Y-58255D02*
X11510Y-58255D01*
X11622Y-58311D01*
X11678Y-58367D01*
X11735Y-58480D01*
X11791Y-58705D01*
X11791Y-58986D01*
X11735Y-59211D01*
X11678Y-59323D01*
X11622Y-59380D01*
X11510Y-59436D01*
X11397Y-59436D01*
X11285Y-59380D01*
X11228Y-59323D01*
X11172Y-59211D01*
X11116Y-58986D01*
X11116Y-58705D01*
X11172Y-58480D01*
X11228Y-58367D01*
X11285Y-58311D01*
X11397Y-58255D01*
X12297Y-59323D02*
X12353Y-59380D01*
X12297Y-59436D01*
X12241Y-59380D01*
X12297Y-59323D01*
X12297Y-59436D01*
X13084Y-58255D02*
X13197Y-58255D01*
X13309Y-58311D01*
X13366Y-58367D01*
X13422Y-58480D01*
X13478Y-58705D01*
X13478Y-58986D01*
X13422Y-59211D01*
X13366Y-59323D01*
X13309Y-59380D01*
X13197Y-59436D01*
X13084Y-59436D01*
X12972Y-59380D01*
X12916Y-59323D01*
X12859Y-59211D01*
X12803Y-58986D01*
X12803Y-58705D01*
X12859Y-58480D01*
X12916Y-58367D01*
X12972Y-58311D01*
X13084Y-58255D01*
X13872Y-58255D02*
X14603Y-58255D01*
X14209Y-58705D01*
X14378Y-58705D01*
X14491Y-58761D01*
X14547Y-58817D01*
X14603Y-58930D01*
X14603Y-59211D01*
X14547Y-59323D01*
X14491Y-59380D01*
X14378Y-59436D01*
X14041Y-59436D01*
X13928Y-59380D01*
X13872Y-59323D01*
X15053Y-58367D02*
X15109Y-58311D01*
X15222Y-58255D01*
X15503Y-58255D01*
X15615Y-58311D01*
X15672Y-58367D01*
X15728Y-58480D01*
X15728Y-58592D01*
X15672Y-58761D01*
X14997Y-59436D01*
X15728Y-59436D01*
X16178Y-58255D02*
X16178Y-58480D01*
X16628Y-58255D02*
X16628Y-58480D01*
X18371Y-59886D02*
X18315Y-59830D01*
X18203Y-59661D01*
X18146Y-59548D01*
X18090Y-59380D01*
X18034Y-59098D01*
X18034Y-58873D01*
X18090Y-58592D01*
X18146Y-58423D01*
X18203Y-58311D01*
X18315Y-58142D01*
X18371Y-58086D01*
X18765Y-58367D02*
X18821Y-58311D01*
X18934Y-58255D01*
X19215Y-58255D01*
X19327Y-58311D01*
X19384Y-58367D01*
X19440Y-58480D01*
X19440Y-58592D01*
X19384Y-58761D01*
X18709Y-59436D01*
X19440Y-59436D01*
X20002Y-59436D02*
X20227Y-59436D01*
X20340Y-59380D01*
X20396Y-59323D01*
X20508Y-59155D01*
X20565Y-58930D01*
X20565Y-58480D01*
X20508Y-58367D01*
X20452Y-58311D01*
X20340Y-58255D01*
X20115Y-58255D01*
X20002Y-58311D01*
X19946Y-58367D01*
X19890Y-58480D01*
X19890Y-58761D01*
X19946Y-58873D01*
X20002Y-58930D01*
X20115Y-58986D01*
X20340Y-58986D01*
X20452Y-58930D01*
X20508Y-58873D01*
X20565Y-58761D01*
X21971Y-59436D02*
X21971Y-58255D01*
X22477Y-59436D02*
X22477Y-58817D01*
X22421Y-58705D01*
X22308Y-58648D01*
X22140Y-58648D01*
X22027Y-58705D01*
X21971Y-58761D01*
X23208Y-59436D02*
X23096Y-59380D01*
X23039Y-59323D01*
X22983Y-59211D01*
X22983Y-58873D01*
X23039Y-58761D01*
X23096Y-58705D01*
X23208Y-58648D01*
X23377Y-58648D01*
X23489Y-58705D01*
X23546Y-58761D01*
X23602Y-58873D01*
X23602Y-59211D01*
X23546Y-59323D01*
X23489Y-59380D01*
X23377Y-59436D01*
X23208Y-59436D01*
X24277Y-59436D02*
X24164Y-59380D01*
X24108Y-59267D01*
X24108Y-58255D01*
X25177Y-59380D02*
X25064Y-59436D01*
X24839Y-59436D01*
X24727Y-59380D01*
X24670Y-59267D01*
X24670Y-58817D01*
X24727Y-58705D01*
X24839Y-58648D01*
X25064Y-58648D01*
X25177Y-58705D01*
X25233Y-58817D01*
X25233Y-58930D01*
X24670Y-59042D01*
X25683Y-59380D02*
X25795Y-59436D01*
X26020Y-59436D01*
X26133Y-59380D01*
X26189Y-59267D01*
X26189Y-59211D01*
X26133Y-59098D01*
X26020Y-59042D01*
X25852Y-59042D01*
X25739Y-58986D01*
X25683Y-58873D01*
X25683Y-58817D01*
X25739Y-58705D01*
X25852Y-58648D01*
X26020Y-58648D01*
X26133Y-58705D01*
X26583Y-59886D02*
X26639Y-59830D01*
X26751Y-59661D01*
X26808Y-59548D01*
X26864Y-59380D01*
X26920Y-59098D01*
X26920Y-58873D01*
X26864Y-58592D01*
X26808Y-58423D01*
X26751Y-58311D01*
X26639Y-58142D01*
X26583Y-58086D01*
M02*
