M48
;DRILL file {Pcbnew (2013-07-07 BZR 4022)-stable} date 12/21/2016 6:43:47 PM
;FORMAT={-:-/ absolute / metric / decimal}
FMAT,2
METRIC,TZ
T1C0.635
T2C0.813
%
G90
G05
M71
T1
X42.799Y-127.762
T2
X1.524Y-126.492
X4.064Y-126.492
X6.604Y-126.492
X10.922Y-127.762
X13.462Y-127.762
X42.799Y-131.191
X45.339Y-133.731
X47.879Y-131.191
X50.8Y-133.985
X52.07Y-126.492
X53.34Y-133.985
X54.61Y-126.492
X55.88Y-133.985
X57.15Y-126.492
X58.42Y-133.985
X60.96Y-133.985
X62.23Y-127.762
X63.5Y-133.985
X64.77Y-127.762
X66.04Y-133.985
X68.834Y-133.477
X76.454Y-133.477
X78.994Y-132.461
X81.534Y-132.461
X103.378Y-126.492
X105.918Y-126.492
X108.458Y-126.492
X112.776Y-127.762
X115.316Y-127.762
T0
M30
