G04 (created by PCBNEW (2013-07-07 BZR 4022)-stable) date 12/21/2016 6:43:45 PM*
%MOIN*%
G04 Gerber Fmt 3.4, Leading zero omitted, Abs format*
%FSLAX34Y34*%
G01*
G70*
G90*
G04 APERTURE LIST*
%ADD10C,0.00590551*%
%ADD11C,0.055*%
%ADD12C,0.066*%
%ADD13R,0.055X0.055*%
%ADD14C,0.06*%
%ADD15C,0.035*%
%ADD16C,0.01*%
G04 APERTURE END LIST*
G54D10*
G54D11*
X30100Y-52550D03*
X27100Y-52550D03*
G54D12*
X31100Y-52150D03*
X32100Y-52150D03*
G54D13*
X26000Y-52750D03*
G54D11*
X25000Y-52750D03*
X24000Y-52750D03*
X23000Y-52750D03*
X22000Y-52750D03*
X21000Y-52750D03*
X20000Y-52750D03*
G54D14*
X18850Y-51650D03*
X17850Y-52650D03*
X16850Y-51650D03*
G54D13*
X600Y-49800D03*
G54D11*
X1600Y-49800D03*
X2600Y-49800D03*
G54D13*
X20500Y-49800D03*
G54D11*
X21500Y-49800D03*
X22500Y-49800D03*
G54D13*
X40700Y-49800D03*
G54D11*
X41700Y-49800D03*
X42700Y-49800D03*
G54D12*
X5300Y-50300D03*
X4300Y-50300D03*
X25500Y-50300D03*
X24500Y-50300D03*
X45400Y-50300D03*
X44400Y-50300D03*
G54D15*
X16850Y-50300D03*
G54D16*
X25500Y-50300D02*
X26550Y-49250D01*
X26550Y-49250D02*
X44350Y-49250D01*
X44350Y-49250D02*
X45400Y-50300D01*
X16850Y-50300D02*
X17850Y-51300D01*
X17850Y-51300D02*
X17850Y-52650D01*
X15400Y-50300D02*
X16850Y-50300D01*
X15400Y-50300D02*
X5300Y-50300D01*
X24800Y-51550D02*
X24000Y-52350D01*
X24800Y-51550D02*
X26500Y-51550D01*
X26500Y-51550D02*
X27000Y-52050D01*
X27000Y-52050D02*
X27000Y-52450D01*
X27100Y-52550D02*
X27000Y-52450D01*
X24000Y-52350D02*
X24000Y-52850D01*
X20000Y-52850D02*
X20000Y-52800D01*
X20000Y-52800D02*
X18850Y-51650D01*
X18400Y-49750D02*
X21000Y-52350D01*
X18400Y-49750D02*
X16950Y-49750D01*
X2600Y-49800D02*
X2650Y-49750D01*
X16950Y-49750D02*
X2650Y-49750D01*
X21000Y-52350D02*
X21000Y-52850D01*
X22000Y-52850D02*
X22000Y-50300D01*
X22000Y-50300D02*
X22500Y-49800D01*
X24300Y-51050D02*
X23000Y-52350D01*
X26300Y-50500D02*
X42000Y-50500D01*
X42700Y-49800D02*
X42000Y-50500D01*
X25750Y-51050D02*
X26300Y-50500D01*
X24300Y-51050D02*
X25750Y-51050D01*
X23000Y-52350D02*
X23000Y-52850D01*
X30100Y-52550D02*
X30500Y-52150D01*
X30500Y-52150D02*
X31100Y-52150D01*
G54D10*
G36*
X41776Y-49805D02*
X41705Y-49876D01*
X41700Y-49870D01*
X41402Y-50167D01*
X41411Y-50200D01*
X41193Y-50200D01*
X41224Y-50124D01*
X41225Y-50037D01*
X41239Y-50072D01*
X41332Y-50097D01*
X41629Y-49800D01*
X41623Y-49794D01*
X41694Y-49723D01*
X41700Y-49729D01*
X41705Y-49723D01*
X41776Y-49794D01*
X41770Y-49800D01*
X41776Y-49805D01*
X41776Y-49805D01*
G37*
G54D16*
X41776Y-49805D02*
X41705Y-49876D01*
X41700Y-49870D01*
X41402Y-50167D01*
X41411Y-50200D01*
X41193Y-50200D01*
X41224Y-50124D01*
X41225Y-50037D01*
X41239Y-50072D01*
X41332Y-50097D01*
X41629Y-49800D01*
X41623Y-49794D01*
X41694Y-49723D01*
X41700Y-49729D01*
X41705Y-49723D01*
X41776Y-49794D01*
X41770Y-49800D01*
X41776Y-49805D01*
G54D10*
G36*
X45730Y-53330D02*
X44736Y-53330D01*
X44736Y-50707D01*
X44400Y-50370D01*
X44329Y-50441D01*
X44329Y-50300D01*
X43992Y-49963D01*
X43893Y-49994D01*
X43815Y-50211D01*
X43825Y-50441D01*
X43893Y-50605D01*
X43992Y-50636D01*
X44329Y-50300D01*
X44329Y-50441D01*
X44063Y-50707D01*
X44094Y-50806D01*
X44311Y-50884D01*
X44541Y-50874D01*
X44705Y-50806D01*
X44736Y-50707D01*
X44736Y-53330D01*
X32684Y-53330D01*
X32684Y-52238D01*
X32674Y-52008D01*
X32606Y-51844D01*
X32507Y-51813D01*
X32436Y-51883D01*
X32436Y-51742D01*
X32405Y-51643D01*
X32188Y-51565D01*
X31958Y-51575D01*
X31794Y-51643D01*
X31763Y-51742D01*
X32100Y-52079D01*
X32436Y-51742D01*
X32436Y-51883D01*
X32170Y-52150D01*
X32507Y-52486D01*
X32606Y-52455D01*
X32684Y-52238D01*
X32684Y-53330D01*
X32436Y-53330D01*
X32436Y-52557D01*
X32100Y-52220D01*
X32029Y-52291D01*
X32029Y-52150D01*
X31692Y-51813D01*
X31600Y-51842D01*
X31591Y-51821D01*
X31428Y-51658D01*
X31215Y-51570D01*
X30985Y-51569D01*
X30771Y-51658D01*
X30608Y-51821D01*
X30596Y-51850D01*
X30500Y-51850D01*
X30385Y-51872D01*
X30287Y-51937D01*
X30200Y-52025D01*
X29996Y-52024D01*
X29803Y-52104D01*
X29655Y-52252D01*
X29575Y-52445D01*
X29574Y-52653D01*
X29654Y-52847D01*
X29802Y-52994D01*
X29995Y-53074D01*
X30203Y-53075D01*
X30397Y-52995D01*
X30544Y-52847D01*
X30624Y-52654D01*
X30625Y-52495D01*
X30771Y-52641D01*
X30984Y-52729D01*
X31214Y-52730D01*
X31428Y-52641D01*
X31591Y-52478D01*
X31600Y-52457D01*
X31692Y-52486D01*
X32029Y-52150D01*
X32029Y-52291D01*
X31763Y-52557D01*
X31794Y-52656D01*
X32011Y-52734D01*
X32241Y-52724D01*
X32405Y-52656D01*
X32436Y-52557D01*
X32436Y-53330D01*
X26525Y-53330D01*
X26525Y-52975D01*
X26525Y-52524D01*
X26524Y-52425D01*
X26486Y-52333D01*
X26416Y-52262D01*
X26324Y-52224D01*
X26112Y-52225D01*
X26050Y-52287D01*
X26050Y-52700D01*
X26462Y-52700D01*
X26525Y-52637D01*
X26525Y-52524D01*
X26525Y-52975D01*
X26525Y-52862D01*
X26462Y-52800D01*
X26050Y-52800D01*
X26050Y-53212D01*
X26112Y-53275D01*
X26324Y-53275D01*
X26416Y-53237D01*
X26486Y-53166D01*
X26524Y-53074D01*
X26525Y-52975D01*
X26525Y-53330D01*
X4636Y-53330D01*
X4636Y-50707D01*
X4300Y-50370D01*
X3963Y-50707D01*
X3994Y-50806D01*
X4211Y-50884D01*
X4441Y-50874D01*
X4605Y-50806D01*
X4636Y-50707D01*
X4636Y-53330D01*
X1897Y-53330D01*
X1897Y-50167D01*
X1600Y-49870D01*
X1302Y-50167D01*
X1327Y-50260D01*
X1524Y-50329D01*
X1732Y-50318D01*
X1872Y-50260D01*
X1897Y-50167D01*
X1897Y-53330D01*
X269Y-53330D01*
X269Y-50322D01*
X275Y-50324D01*
X374Y-50325D01*
X924Y-50325D01*
X1016Y-50287D01*
X1086Y-50216D01*
X1124Y-50124D01*
X1125Y-50037D01*
X1139Y-50072D01*
X1232Y-50097D01*
X1529Y-49800D01*
X1232Y-49502D01*
X1139Y-49527D01*
X1125Y-49568D01*
X1125Y-49475D01*
X1087Y-49383D01*
X1016Y-49313D01*
X924Y-49275D01*
X825Y-49274D01*
X275Y-49274D01*
X269Y-49277D01*
X269Y-49219D01*
X26156Y-49219D01*
X25643Y-49731D01*
X25615Y-49720D01*
X25385Y-49719D01*
X25171Y-49808D01*
X25008Y-49971D01*
X24999Y-49992D01*
X24907Y-49963D01*
X24836Y-50033D01*
X24836Y-49892D01*
X24805Y-49793D01*
X24588Y-49715D01*
X24358Y-49725D01*
X24194Y-49793D01*
X24163Y-49892D01*
X24500Y-50229D01*
X24836Y-49892D01*
X24836Y-50033D01*
X24570Y-50300D01*
X24907Y-50636D01*
X24999Y-50607D01*
X25008Y-50628D01*
X25129Y-50750D01*
X24823Y-50750D01*
X24836Y-50707D01*
X24500Y-50370D01*
X24429Y-50441D01*
X24429Y-50300D01*
X24092Y-49963D01*
X23993Y-49994D01*
X23915Y-50211D01*
X23925Y-50441D01*
X23993Y-50605D01*
X24092Y-50636D01*
X24429Y-50300D01*
X24429Y-50441D01*
X24163Y-50707D01*
X24183Y-50773D01*
X24087Y-50837D01*
X22787Y-52137D01*
X22722Y-52235D01*
X22709Y-52301D01*
X22703Y-52304D01*
X22555Y-52452D01*
X22499Y-52585D01*
X22445Y-52453D01*
X22300Y-52307D01*
X22300Y-50424D01*
X22399Y-50324D01*
X22603Y-50325D01*
X22797Y-50245D01*
X22944Y-50097D01*
X23024Y-49904D01*
X23025Y-49696D01*
X22945Y-49503D01*
X22797Y-49355D01*
X22604Y-49275D01*
X22396Y-49274D01*
X22203Y-49354D01*
X22055Y-49502D01*
X22002Y-49628D01*
X21960Y-49527D01*
X21867Y-49502D01*
X21797Y-49573D01*
X21797Y-49432D01*
X21772Y-49339D01*
X21575Y-49270D01*
X21367Y-49281D01*
X21227Y-49339D01*
X21202Y-49432D01*
X21500Y-49729D01*
X21797Y-49432D01*
X21797Y-49573D01*
X21570Y-49800D01*
X21576Y-49805D01*
X21505Y-49876D01*
X21500Y-49870D01*
X21429Y-49941D01*
X21429Y-49800D01*
X21132Y-49502D01*
X21039Y-49527D01*
X21025Y-49568D01*
X21025Y-49475D01*
X20987Y-49383D01*
X20916Y-49313D01*
X20824Y-49275D01*
X20725Y-49274D01*
X20175Y-49274D01*
X20083Y-49312D01*
X20013Y-49383D01*
X19975Y-49475D01*
X19974Y-49574D01*
X19974Y-50124D01*
X20012Y-50216D01*
X20083Y-50286D01*
X20175Y-50324D01*
X20274Y-50325D01*
X20824Y-50325D01*
X20916Y-50287D01*
X20986Y-50216D01*
X21024Y-50124D01*
X21025Y-50037D01*
X21039Y-50072D01*
X21132Y-50097D01*
X21429Y-49800D01*
X21429Y-49941D01*
X21202Y-50167D01*
X21227Y-50260D01*
X21424Y-50329D01*
X21632Y-50318D01*
X21702Y-50289D01*
X21700Y-50300D01*
X21700Y-52307D01*
X21555Y-52452D01*
X21499Y-52585D01*
X21445Y-52453D01*
X21297Y-52305D01*
X21290Y-52302D01*
X21277Y-52235D01*
X21212Y-52137D01*
X21212Y-52137D01*
X18612Y-49537D01*
X18514Y-49472D01*
X18400Y-49450D01*
X16950Y-49450D01*
X2992Y-49450D01*
X2897Y-49355D01*
X2704Y-49275D01*
X2496Y-49274D01*
X2303Y-49354D01*
X2155Y-49502D01*
X2102Y-49628D01*
X2060Y-49527D01*
X1967Y-49502D01*
X1897Y-49573D01*
X1897Y-49432D01*
X1872Y-49339D01*
X1675Y-49270D01*
X1467Y-49281D01*
X1327Y-49339D01*
X1302Y-49432D01*
X1600Y-49729D01*
X1897Y-49432D01*
X1897Y-49573D01*
X1670Y-49800D01*
X1967Y-50097D01*
X2060Y-50072D01*
X2099Y-49962D01*
X2154Y-50097D01*
X2302Y-50244D01*
X2495Y-50324D01*
X2703Y-50325D01*
X2897Y-50245D01*
X3044Y-50097D01*
X3064Y-50050D01*
X3773Y-50050D01*
X3715Y-50211D01*
X3725Y-50441D01*
X3793Y-50605D01*
X3892Y-50636D01*
X4229Y-50300D01*
X4223Y-50294D01*
X4294Y-50223D01*
X4300Y-50229D01*
X4305Y-50223D01*
X4376Y-50294D01*
X4370Y-50300D01*
X4707Y-50636D01*
X4799Y-50607D01*
X4808Y-50628D01*
X4971Y-50791D01*
X5184Y-50879D01*
X5414Y-50880D01*
X5628Y-50791D01*
X5791Y-50628D01*
X5803Y-50600D01*
X15400Y-50600D01*
X16548Y-50600D01*
X16608Y-50660D01*
X16765Y-50724D01*
X16850Y-50725D01*
X17550Y-51424D01*
X17550Y-52178D01*
X17538Y-52183D01*
X17400Y-52321D01*
X17400Y-51541D01*
X17316Y-51338D01*
X17161Y-51184D01*
X16959Y-51100D01*
X16741Y-51099D01*
X16538Y-51183D01*
X16384Y-51338D01*
X16300Y-51540D01*
X16299Y-51758D01*
X16383Y-51961D01*
X16538Y-52115D01*
X16740Y-52199D01*
X16958Y-52200D01*
X17161Y-52116D01*
X17315Y-51961D01*
X17399Y-51759D01*
X17400Y-51541D01*
X17400Y-52321D01*
X17384Y-52338D01*
X17300Y-52540D01*
X17299Y-52758D01*
X17383Y-52961D01*
X17538Y-53115D01*
X17740Y-53199D01*
X17958Y-53200D01*
X18161Y-53116D01*
X18315Y-52961D01*
X18399Y-52759D01*
X18400Y-52541D01*
X18316Y-52338D01*
X18161Y-52184D01*
X18150Y-52179D01*
X18150Y-51300D01*
X18127Y-51185D01*
X18062Y-51087D01*
X18062Y-51087D01*
X17274Y-50300D01*
X17275Y-50215D01*
X17210Y-50059D01*
X17200Y-50050D01*
X18275Y-50050D01*
X20616Y-52390D01*
X20555Y-52452D01*
X20499Y-52585D01*
X20445Y-52453D01*
X20297Y-52305D01*
X20104Y-52225D01*
X19896Y-52224D01*
X19862Y-52238D01*
X19395Y-51771D01*
X19399Y-51759D01*
X19400Y-51541D01*
X19316Y-51338D01*
X19161Y-51184D01*
X18959Y-51100D01*
X18741Y-51099D01*
X18538Y-51183D01*
X18384Y-51338D01*
X18300Y-51540D01*
X18299Y-51758D01*
X18383Y-51961D01*
X18538Y-52115D01*
X18740Y-52199D01*
X18958Y-52200D01*
X18970Y-52195D01*
X19475Y-52699D01*
X19474Y-52853D01*
X19554Y-53047D01*
X19702Y-53194D01*
X19895Y-53274D01*
X20103Y-53275D01*
X20297Y-53195D01*
X20444Y-53047D01*
X20500Y-52914D01*
X20554Y-53047D01*
X20702Y-53194D01*
X20895Y-53274D01*
X21103Y-53275D01*
X21297Y-53195D01*
X21444Y-53047D01*
X21500Y-52914D01*
X21554Y-53047D01*
X21702Y-53194D01*
X21895Y-53274D01*
X22103Y-53275D01*
X22297Y-53195D01*
X22444Y-53047D01*
X22500Y-52914D01*
X22554Y-53047D01*
X22702Y-53194D01*
X22895Y-53274D01*
X23103Y-53275D01*
X23297Y-53195D01*
X23444Y-53047D01*
X23500Y-52914D01*
X23554Y-53047D01*
X23702Y-53194D01*
X23895Y-53274D01*
X24103Y-53275D01*
X24297Y-53195D01*
X24444Y-53047D01*
X24500Y-52914D01*
X24554Y-53047D01*
X24702Y-53194D01*
X24895Y-53274D01*
X25103Y-53275D01*
X25297Y-53195D01*
X25444Y-53047D01*
X25474Y-52975D01*
X25474Y-52975D01*
X25475Y-53074D01*
X25513Y-53166D01*
X25583Y-53237D01*
X25675Y-53275D01*
X25887Y-53275D01*
X25950Y-53212D01*
X25950Y-52800D01*
X25942Y-52800D01*
X25942Y-52700D01*
X25950Y-52700D01*
X25950Y-52287D01*
X25887Y-52225D01*
X25675Y-52224D01*
X25583Y-52262D01*
X25513Y-52333D01*
X25475Y-52425D01*
X25474Y-52524D01*
X25474Y-52524D01*
X25445Y-52453D01*
X25297Y-52305D01*
X25104Y-52225D01*
X24896Y-52224D01*
X24703Y-52304D01*
X24555Y-52452D01*
X24499Y-52585D01*
X24445Y-52453D01*
X24383Y-52390D01*
X24924Y-51850D01*
X26375Y-51850D01*
X26700Y-52174D01*
X26700Y-52207D01*
X26655Y-52252D01*
X26575Y-52445D01*
X26574Y-52653D01*
X26654Y-52847D01*
X26802Y-52994D01*
X26995Y-53074D01*
X27203Y-53075D01*
X27397Y-52995D01*
X27544Y-52847D01*
X27624Y-52654D01*
X27625Y-52446D01*
X27545Y-52253D01*
X27397Y-52105D01*
X27300Y-52064D01*
X27300Y-52050D01*
X27277Y-51935D01*
X27212Y-51837D01*
X27212Y-51837D01*
X26712Y-51337D01*
X26614Y-51272D01*
X26500Y-51250D01*
X25974Y-51250D01*
X26424Y-50800D01*
X42000Y-50800D01*
X42000Y-50799D01*
X42114Y-50777D01*
X42114Y-50777D01*
X42212Y-50712D01*
X42599Y-50324D01*
X42803Y-50325D01*
X42997Y-50245D01*
X43144Y-50097D01*
X43224Y-49904D01*
X43225Y-49696D01*
X43164Y-49550D01*
X44225Y-49550D01*
X44395Y-49719D01*
X44258Y-49725D01*
X44094Y-49793D01*
X44063Y-49892D01*
X44400Y-50229D01*
X44405Y-50223D01*
X44476Y-50294D01*
X44470Y-50300D01*
X44807Y-50636D01*
X44899Y-50607D01*
X44908Y-50628D01*
X45071Y-50791D01*
X45284Y-50879D01*
X45514Y-50880D01*
X45728Y-50791D01*
X45730Y-50789D01*
X45730Y-53330D01*
X45730Y-53330D01*
G37*
G54D16*
X45730Y-53330D02*
X44736Y-53330D01*
X44736Y-50707D01*
X44400Y-50370D01*
X44329Y-50441D01*
X44329Y-50300D01*
X43992Y-49963D01*
X43893Y-49994D01*
X43815Y-50211D01*
X43825Y-50441D01*
X43893Y-50605D01*
X43992Y-50636D01*
X44329Y-50300D01*
X44329Y-50441D01*
X44063Y-50707D01*
X44094Y-50806D01*
X44311Y-50884D01*
X44541Y-50874D01*
X44705Y-50806D01*
X44736Y-50707D01*
X44736Y-53330D01*
X32684Y-53330D01*
X32684Y-52238D01*
X32674Y-52008D01*
X32606Y-51844D01*
X32507Y-51813D01*
X32436Y-51883D01*
X32436Y-51742D01*
X32405Y-51643D01*
X32188Y-51565D01*
X31958Y-51575D01*
X31794Y-51643D01*
X31763Y-51742D01*
X32100Y-52079D01*
X32436Y-51742D01*
X32436Y-51883D01*
X32170Y-52150D01*
X32507Y-52486D01*
X32606Y-52455D01*
X32684Y-52238D01*
X32684Y-53330D01*
X32436Y-53330D01*
X32436Y-52557D01*
X32100Y-52220D01*
X32029Y-52291D01*
X32029Y-52150D01*
X31692Y-51813D01*
X31600Y-51842D01*
X31591Y-51821D01*
X31428Y-51658D01*
X31215Y-51570D01*
X30985Y-51569D01*
X30771Y-51658D01*
X30608Y-51821D01*
X30596Y-51850D01*
X30500Y-51850D01*
X30385Y-51872D01*
X30287Y-51937D01*
X30200Y-52025D01*
X29996Y-52024D01*
X29803Y-52104D01*
X29655Y-52252D01*
X29575Y-52445D01*
X29574Y-52653D01*
X29654Y-52847D01*
X29802Y-52994D01*
X29995Y-53074D01*
X30203Y-53075D01*
X30397Y-52995D01*
X30544Y-52847D01*
X30624Y-52654D01*
X30625Y-52495D01*
X30771Y-52641D01*
X30984Y-52729D01*
X31214Y-52730D01*
X31428Y-52641D01*
X31591Y-52478D01*
X31600Y-52457D01*
X31692Y-52486D01*
X32029Y-52150D01*
X32029Y-52291D01*
X31763Y-52557D01*
X31794Y-52656D01*
X32011Y-52734D01*
X32241Y-52724D01*
X32405Y-52656D01*
X32436Y-52557D01*
X32436Y-53330D01*
X26525Y-53330D01*
X26525Y-52975D01*
X26525Y-52524D01*
X26524Y-52425D01*
X26486Y-52333D01*
X26416Y-52262D01*
X26324Y-52224D01*
X26112Y-52225D01*
X26050Y-52287D01*
X26050Y-52700D01*
X26462Y-52700D01*
X26525Y-52637D01*
X26525Y-52524D01*
X26525Y-52975D01*
X26525Y-52862D01*
X26462Y-52800D01*
X26050Y-52800D01*
X26050Y-53212D01*
X26112Y-53275D01*
X26324Y-53275D01*
X26416Y-53237D01*
X26486Y-53166D01*
X26524Y-53074D01*
X26525Y-52975D01*
X26525Y-53330D01*
X4636Y-53330D01*
X4636Y-50707D01*
X4300Y-50370D01*
X3963Y-50707D01*
X3994Y-50806D01*
X4211Y-50884D01*
X4441Y-50874D01*
X4605Y-50806D01*
X4636Y-50707D01*
X4636Y-53330D01*
X1897Y-53330D01*
X1897Y-50167D01*
X1600Y-49870D01*
X1302Y-50167D01*
X1327Y-50260D01*
X1524Y-50329D01*
X1732Y-50318D01*
X1872Y-50260D01*
X1897Y-50167D01*
X1897Y-53330D01*
X269Y-53330D01*
X269Y-50322D01*
X275Y-50324D01*
X374Y-50325D01*
X924Y-50325D01*
X1016Y-50287D01*
X1086Y-50216D01*
X1124Y-50124D01*
X1125Y-50037D01*
X1139Y-50072D01*
X1232Y-50097D01*
X1529Y-49800D01*
X1232Y-49502D01*
X1139Y-49527D01*
X1125Y-49568D01*
X1125Y-49475D01*
X1087Y-49383D01*
X1016Y-49313D01*
X924Y-49275D01*
X825Y-49274D01*
X275Y-49274D01*
X269Y-49277D01*
X269Y-49219D01*
X26156Y-49219D01*
X25643Y-49731D01*
X25615Y-49720D01*
X25385Y-49719D01*
X25171Y-49808D01*
X25008Y-49971D01*
X24999Y-49992D01*
X24907Y-49963D01*
X24836Y-50033D01*
X24836Y-49892D01*
X24805Y-49793D01*
X24588Y-49715D01*
X24358Y-49725D01*
X24194Y-49793D01*
X24163Y-49892D01*
X24500Y-50229D01*
X24836Y-49892D01*
X24836Y-50033D01*
X24570Y-50300D01*
X24907Y-50636D01*
X24999Y-50607D01*
X25008Y-50628D01*
X25129Y-50750D01*
X24823Y-50750D01*
X24836Y-50707D01*
X24500Y-50370D01*
X24429Y-50441D01*
X24429Y-50300D01*
X24092Y-49963D01*
X23993Y-49994D01*
X23915Y-50211D01*
X23925Y-50441D01*
X23993Y-50605D01*
X24092Y-50636D01*
X24429Y-50300D01*
X24429Y-50441D01*
X24163Y-50707D01*
X24183Y-50773D01*
X24087Y-50837D01*
X22787Y-52137D01*
X22722Y-52235D01*
X22709Y-52301D01*
X22703Y-52304D01*
X22555Y-52452D01*
X22499Y-52585D01*
X22445Y-52453D01*
X22300Y-52307D01*
X22300Y-50424D01*
X22399Y-50324D01*
X22603Y-50325D01*
X22797Y-50245D01*
X22944Y-50097D01*
X23024Y-49904D01*
X23025Y-49696D01*
X22945Y-49503D01*
X22797Y-49355D01*
X22604Y-49275D01*
X22396Y-49274D01*
X22203Y-49354D01*
X22055Y-49502D01*
X22002Y-49628D01*
X21960Y-49527D01*
X21867Y-49502D01*
X21797Y-49573D01*
X21797Y-49432D01*
X21772Y-49339D01*
X21575Y-49270D01*
X21367Y-49281D01*
X21227Y-49339D01*
X21202Y-49432D01*
X21500Y-49729D01*
X21797Y-49432D01*
X21797Y-49573D01*
X21570Y-49800D01*
X21576Y-49805D01*
X21505Y-49876D01*
X21500Y-49870D01*
X21429Y-49941D01*
X21429Y-49800D01*
X21132Y-49502D01*
X21039Y-49527D01*
X21025Y-49568D01*
X21025Y-49475D01*
X20987Y-49383D01*
X20916Y-49313D01*
X20824Y-49275D01*
X20725Y-49274D01*
X20175Y-49274D01*
X20083Y-49312D01*
X20013Y-49383D01*
X19975Y-49475D01*
X19974Y-49574D01*
X19974Y-50124D01*
X20012Y-50216D01*
X20083Y-50286D01*
X20175Y-50324D01*
X20274Y-50325D01*
X20824Y-50325D01*
X20916Y-50287D01*
X20986Y-50216D01*
X21024Y-50124D01*
X21025Y-50037D01*
X21039Y-50072D01*
X21132Y-50097D01*
X21429Y-49800D01*
X21429Y-49941D01*
X21202Y-50167D01*
X21227Y-50260D01*
X21424Y-50329D01*
X21632Y-50318D01*
X21702Y-50289D01*
X21700Y-50300D01*
X21700Y-52307D01*
X21555Y-52452D01*
X21499Y-52585D01*
X21445Y-52453D01*
X21297Y-52305D01*
X21290Y-52302D01*
X21277Y-52235D01*
X21212Y-52137D01*
X21212Y-52137D01*
X18612Y-49537D01*
X18514Y-49472D01*
X18400Y-49450D01*
X16950Y-49450D01*
X2992Y-49450D01*
X2897Y-49355D01*
X2704Y-49275D01*
X2496Y-49274D01*
X2303Y-49354D01*
X2155Y-49502D01*
X2102Y-49628D01*
X2060Y-49527D01*
X1967Y-49502D01*
X1897Y-49573D01*
X1897Y-49432D01*
X1872Y-49339D01*
X1675Y-49270D01*
X1467Y-49281D01*
X1327Y-49339D01*
X1302Y-49432D01*
X1600Y-49729D01*
X1897Y-49432D01*
X1897Y-49573D01*
X1670Y-49800D01*
X1967Y-50097D01*
X2060Y-50072D01*
X2099Y-49962D01*
X2154Y-50097D01*
X2302Y-50244D01*
X2495Y-50324D01*
X2703Y-50325D01*
X2897Y-50245D01*
X3044Y-50097D01*
X3064Y-50050D01*
X3773Y-50050D01*
X3715Y-50211D01*
X3725Y-50441D01*
X3793Y-50605D01*
X3892Y-50636D01*
X4229Y-50300D01*
X4223Y-50294D01*
X4294Y-50223D01*
X4300Y-50229D01*
X4305Y-50223D01*
X4376Y-50294D01*
X4370Y-50300D01*
X4707Y-50636D01*
X4799Y-50607D01*
X4808Y-50628D01*
X4971Y-50791D01*
X5184Y-50879D01*
X5414Y-50880D01*
X5628Y-50791D01*
X5791Y-50628D01*
X5803Y-50600D01*
X15400Y-50600D01*
X16548Y-50600D01*
X16608Y-50660D01*
X16765Y-50724D01*
X16850Y-50725D01*
X17550Y-51424D01*
X17550Y-52178D01*
X17538Y-52183D01*
X17400Y-52321D01*
X17400Y-51541D01*
X17316Y-51338D01*
X17161Y-51184D01*
X16959Y-51100D01*
X16741Y-51099D01*
X16538Y-51183D01*
X16384Y-51338D01*
X16300Y-51540D01*
X16299Y-51758D01*
X16383Y-51961D01*
X16538Y-52115D01*
X16740Y-52199D01*
X16958Y-52200D01*
X17161Y-52116D01*
X17315Y-51961D01*
X17399Y-51759D01*
X17400Y-51541D01*
X17400Y-52321D01*
X17384Y-52338D01*
X17300Y-52540D01*
X17299Y-52758D01*
X17383Y-52961D01*
X17538Y-53115D01*
X17740Y-53199D01*
X17958Y-53200D01*
X18161Y-53116D01*
X18315Y-52961D01*
X18399Y-52759D01*
X18400Y-52541D01*
X18316Y-52338D01*
X18161Y-52184D01*
X18150Y-52179D01*
X18150Y-51300D01*
X18127Y-51185D01*
X18062Y-51087D01*
X18062Y-51087D01*
X17274Y-50300D01*
X17275Y-50215D01*
X17210Y-50059D01*
X17200Y-50050D01*
X18275Y-50050D01*
X20616Y-52390D01*
X20555Y-52452D01*
X20499Y-52585D01*
X20445Y-52453D01*
X20297Y-52305D01*
X20104Y-52225D01*
X19896Y-52224D01*
X19862Y-52238D01*
X19395Y-51771D01*
X19399Y-51759D01*
X19400Y-51541D01*
X19316Y-51338D01*
X19161Y-51184D01*
X18959Y-51100D01*
X18741Y-51099D01*
X18538Y-51183D01*
X18384Y-51338D01*
X18300Y-51540D01*
X18299Y-51758D01*
X18383Y-51961D01*
X18538Y-52115D01*
X18740Y-52199D01*
X18958Y-52200D01*
X18970Y-52195D01*
X19475Y-52699D01*
X19474Y-52853D01*
X19554Y-53047D01*
X19702Y-53194D01*
X19895Y-53274D01*
X20103Y-53275D01*
X20297Y-53195D01*
X20444Y-53047D01*
X20500Y-52914D01*
X20554Y-53047D01*
X20702Y-53194D01*
X20895Y-53274D01*
X21103Y-53275D01*
X21297Y-53195D01*
X21444Y-53047D01*
X21500Y-52914D01*
X21554Y-53047D01*
X21702Y-53194D01*
X21895Y-53274D01*
X22103Y-53275D01*
X22297Y-53195D01*
X22444Y-53047D01*
X22500Y-52914D01*
X22554Y-53047D01*
X22702Y-53194D01*
X22895Y-53274D01*
X23103Y-53275D01*
X23297Y-53195D01*
X23444Y-53047D01*
X23500Y-52914D01*
X23554Y-53047D01*
X23702Y-53194D01*
X23895Y-53274D01*
X24103Y-53275D01*
X24297Y-53195D01*
X24444Y-53047D01*
X24500Y-52914D01*
X24554Y-53047D01*
X24702Y-53194D01*
X24895Y-53274D01*
X25103Y-53275D01*
X25297Y-53195D01*
X25444Y-53047D01*
X25474Y-52975D01*
X25474Y-52975D01*
X25475Y-53074D01*
X25513Y-53166D01*
X25583Y-53237D01*
X25675Y-53275D01*
X25887Y-53275D01*
X25950Y-53212D01*
X25950Y-52800D01*
X25942Y-52800D01*
X25942Y-52700D01*
X25950Y-52700D01*
X25950Y-52287D01*
X25887Y-52225D01*
X25675Y-52224D01*
X25583Y-52262D01*
X25513Y-52333D01*
X25475Y-52425D01*
X25474Y-52524D01*
X25474Y-52524D01*
X25445Y-52453D01*
X25297Y-52305D01*
X25104Y-52225D01*
X24896Y-52224D01*
X24703Y-52304D01*
X24555Y-52452D01*
X24499Y-52585D01*
X24445Y-52453D01*
X24383Y-52390D01*
X24924Y-51850D01*
X26375Y-51850D01*
X26700Y-52174D01*
X26700Y-52207D01*
X26655Y-52252D01*
X26575Y-52445D01*
X26574Y-52653D01*
X26654Y-52847D01*
X26802Y-52994D01*
X26995Y-53074D01*
X27203Y-53075D01*
X27397Y-52995D01*
X27544Y-52847D01*
X27624Y-52654D01*
X27625Y-52446D01*
X27545Y-52253D01*
X27397Y-52105D01*
X27300Y-52064D01*
X27300Y-52050D01*
X27277Y-51935D01*
X27212Y-51837D01*
X27212Y-51837D01*
X26712Y-51337D01*
X26614Y-51272D01*
X26500Y-51250D01*
X25974Y-51250D01*
X26424Y-50800D01*
X42000Y-50800D01*
X42000Y-50799D01*
X42114Y-50777D01*
X42114Y-50777D01*
X42212Y-50712D01*
X42599Y-50324D01*
X42803Y-50325D01*
X42997Y-50245D01*
X43144Y-50097D01*
X43224Y-49904D01*
X43225Y-49696D01*
X43164Y-49550D01*
X44225Y-49550D01*
X44395Y-49719D01*
X44258Y-49725D01*
X44094Y-49793D01*
X44063Y-49892D01*
X44400Y-50229D01*
X44405Y-50223D01*
X44476Y-50294D01*
X44470Y-50300D01*
X44807Y-50636D01*
X44899Y-50607D01*
X44908Y-50628D01*
X45071Y-50791D01*
X45284Y-50879D01*
X45514Y-50880D01*
X45728Y-50791D01*
X45730Y-50789D01*
X45730Y-53330D01*
M02*
