G04 (created by PCBNEW (2013-07-07 BZR 4022)-stable) date 12/21/2016 7:44:16 PM*
%MOIN*%
G04 Gerber Fmt 3.4, Leading zero omitted, Abs format*
%FSLAX34Y34*%
G01*
G70*
G90*
G04 APERTURE LIST*
%ADD10C,0.00590551*%
%ADD11C,0.012*%
%ADD12C,0.01*%
%ADD13C,0.006*%
%ADD14C,0.015*%
%ADD15C,0.008*%
%ADD16C,0.0107*%
%ADD17C,0.0035*%
%ADD18C,0.01125*%
G04 APERTURE END LIST*
G54D10*
G54D11*
X94500Y-54050D02*
X94500Y-55050D01*
X94500Y-55050D02*
X85500Y-55050D01*
X85500Y-55050D02*
X85500Y-54050D01*
X94500Y-54050D02*
X85500Y-54050D01*
X86500Y-54050D02*
X86500Y-55050D01*
X97500Y-54050D02*
X97500Y-54050D01*
X97500Y-54050D02*
X104500Y-54050D01*
X104500Y-54050D02*
X104500Y-55050D01*
X104500Y-55050D02*
X97500Y-55050D01*
X97500Y-55050D02*
X97500Y-54050D01*
X98500Y-55050D02*
X98500Y-55050D01*
X98500Y-55050D02*
X98500Y-54050D01*
X97500Y-56700D02*
X97500Y-56700D01*
X97500Y-56700D02*
X104500Y-56700D01*
X104500Y-56700D02*
X104500Y-57700D01*
X104500Y-57700D02*
X97500Y-57700D01*
X97500Y-57700D02*
X97500Y-56700D01*
X98500Y-57700D02*
X98500Y-57700D01*
X98500Y-57700D02*
X98500Y-56700D01*
X103500Y-77500D02*
X103500Y-77500D01*
X103500Y-77500D02*
X96500Y-77500D01*
X96500Y-77500D02*
X96500Y-76500D01*
X96500Y-76500D02*
X103500Y-76500D01*
X103500Y-76500D02*
X103500Y-77500D01*
X102500Y-76500D02*
X102500Y-76500D01*
X102500Y-76500D02*
X102500Y-77500D01*
X103500Y-73500D02*
X103500Y-73500D01*
X103500Y-73500D02*
X96500Y-73500D01*
X96500Y-73500D02*
X96500Y-72500D01*
X96500Y-72500D02*
X103500Y-72500D01*
X103500Y-72500D02*
X103500Y-73500D01*
X102500Y-72500D02*
X102500Y-72500D01*
X102500Y-72500D02*
X102500Y-73500D01*
X77500Y-55050D02*
X77500Y-54050D01*
X77500Y-54050D02*
X83500Y-54050D01*
X83500Y-54050D02*
X83500Y-55050D01*
X83500Y-55050D02*
X77500Y-55050D01*
X78500Y-55050D02*
X78500Y-54050D01*
X81250Y-68750D02*
X81250Y-67750D01*
X81250Y-67750D02*
X83250Y-67750D01*
X83250Y-67750D02*
X83250Y-68750D01*
X83250Y-68750D02*
X81250Y-68750D01*
X81250Y-71750D02*
X81250Y-70750D01*
X81250Y-70750D02*
X83250Y-70750D01*
X83250Y-70750D02*
X83250Y-71750D01*
X83250Y-71750D02*
X81250Y-71750D01*
X74250Y-71750D02*
X74250Y-70750D01*
X74250Y-70750D02*
X76250Y-70750D01*
X76250Y-70750D02*
X76250Y-71750D01*
X76250Y-71750D02*
X74250Y-71750D01*
X74250Y-68750D02*
X74250Y-67750D01*
X74250Y-67750D02*
X76250Y-67750D01*
X76250Y-67750D02*
X76250Y-68750D01*
X76250Y-68750D02*
X74250Y-68750D01*
G54D12*
X93220Y-76500D02*
X93220Y-75500D01*
G54D13*
X92139Y-75615D02*
G75*
G03X92000Y-76000I460J-384D01*
G74*
G01*
X92000Y-76000D02*
G75*
G03X92151Y-76397I599J0D01*
G74*
G01*
X93199Y-76000D02*
G75*
G03X93055Y-75610I-599J0D01*
G74*
G01*
X93060Y-76384D02*
G75*
G03X93200Y-76000I-460J384D01*
G74*
G01*
X93087Y-75650D02*
G75*
G03X92600Y-75400I-487J-349D01*
G74*
G01*
X92600Y-75400D02*
G75*
G03X92120Y-75639I0J-600D01*
G74*
G01*
X92600Y-76599D02*
G75*
G03X93072Y-76368I0J599D01*
G74*
G01*
X92126Y-76368D02*
G75*
G03X92600Y-76600I473J368D01*
G74*
G01*
X92600Y-75750D02*
G75*
G03X92350Y-76000I0J-250D01*
G74*
G01*
X92600Y-75600D02*
G75*
G03X92200Y-76000I0J-400D01*
G74*
G01*
X92600Y-76250D02*
G75*
G03X92850Y-76000I0J250D01*
G74*
G01*
X92600Y-76400D02*
G75*
G03X93000Y-76000I0J400D01*
G74*
G01*
G54D12*
X93213Y-75486D02*
G75*
G03X92600Y-75200I-613J-513D01*
G74*
G01*
X92600Y-75201D02*
G75*
G03X91895Y-75623I0J-799D01*
G74*
G01*
X92601Y-76798D02*
G75*
G03X93210Y-76515I-1J798D01*
G74*
G01*
X91905Y-76397D02*
G75*
G03X92600Y-76800I694J397D01*
G74*
G01*
X91895Y-75620D02*
G75*
G03X91800Y-76000I704J-379D01*
G74*
G01*
X91800Y-76000D02*
G75*
G03X91918Y-76418I799J0D01*
G74*
G01*
G54D14*
X84000Y-64000D02*
X84500Y-64000D01*
X84500Y-64000D02*
X84500Y-65000D01*
X84500Y-65000D02*
X84000Y-65000D01*
X84000Y-62000D02*
X105000Y-62000D01*
X105000Y-62000D02*
X105000Y-67000D01*
X105000Y-67000D02*
X84000Y-67000D01*
X84000Y-67000D02*
X84000Y-62000D01*
G54D11*
X93500Y-73000D02*
X93500Y-74000D01*
X93500Y-74000D02*
X83500Y-74000D01*
X83500Y-74000D02*
X83500Y-73000D01*
X83500Y-73000D02*
X93500Y-73000D01*
X92500Y-73000D02*
X92500Y-74000D01*
X93500Y-74000D02*
X93500Y-75000D01*
X93500Y-75000D02*
X83500Y-75000D01*
X83500Y-75000D02*
X83500Y-74000D01*
X83500Y-74000D02*
X93500Y-74000D01*
X92500Y-74000D02*
X92500Y-75000D01*
G54D15*
X80500Y-63000D02*
X80700Y-63000D01*
X83500Y-63000D02*
X83300Y-63000D01*
X83300Y-63000D02*
X83300Y-62600D01*
X83300Y-62600D02*
X80700Y-62600D01*
X80700Y-62600D02*
X80700Y-63400D01*
X80700Y-63400D02*
X83300Y-63400D01*
X83300Y-63400D02*
X83300Y-63000D01*
X80700Y-62800D02*
X80900Y-62600D01*
G54D14*
X107500Y-77900D02*
G75*
G03X107500Y-77900I-900J0D01*
G74*
G01*
X75700Y-77950D02*
G75*
G03X75700Y-77950I-900J0D01*
G74*
G01*
X75650Y-53800D02*
G75*
G03X75650Y-53800I-900J0D01*
G74*
G01*
X107450Y-53900D02*
G75*
G03X107450Y-53900I-900J0D01*
G74*
G01*
G54D15*
X83500Y-61500D02*
X83300Y-61500D01*
X80500Y-61500D02*
X80700Y-61500D01*
X80700Y-61500D02*
X80700Y-61900D01*
X80700Y-61900D02*
X83300Y-61900D01*
X83300Y-61900D02*
X83300Y-61100D01*
X83300Y-61100D02*
X80700Y-61100D01*
X80700Y-61100D02*
X80700Y-61500D01*
X83300Y-61700D02*
X83100Y-61900D01*
X80500Y-64000D02*
X80700Y-64000D01*
X83500Y-64000D02*
X83300Y-64000D01*
X83300Y-64000D02*
X83300Y-63600D01*
X83300Y-63600D02*
X80700Y-63600D01*
X80700Y-63600D02*
X80700Y-64400D01*
X80700Y-64400D02*
X83300Y-64400D01*
X83300Y-64400D02*
X83300Y-64000D01*
X80700Y-63800D02*
X80900Y-63600D01*
X83500Y-60550D02*
X83300Y-60550D01*
X80500Y-60550D02*
X80700Y-60550D01*
X80700Y-60550D02*
X80700Y-60950D01*
X80700Y-60950D02*
X83300Y-60950D01*
X83300Y-60950D02*
X83300Y-60150D01*
X83300Y-60150D02*
X80700Y-60150D01*
X80700Y-60150D02*
X80700Y-60550D01*
X83300Y-60750D02*
X83100Y-60950D01*
X89500Y-76000D02*
X89300Y-76000D01*
X86500Y-76000D02*
X86700Y-76000D01*
X86700Y-76000D02*
X86700Y-76400D01*
X86700Y-76400D02*
X89300Y-76400D01*
X89300Y-76400D02*
X89300Y-75600D01*
X89300Y-75600D02*
X86700Y-75600D01*
X86700Y-75600D02*
X86700Y-76000D01*
X89300Y-76200D02*
X89100Y-76400D01*
G54D12*
X84500Y-70100D02*
X88500Y-70100D01*
X84500Y-71100D02*
X88500Y-71100D01*
X88500Y-71100D02*
X88500Y-70100D01*
X84500Y-70100D02*
X84500Y-71100D01*
G54D16*
X86480Y-53825D02*
X86480Y-53144D01*
X86643Y-53144D01*
X86684Y-53177D01*
X86704Y-53209D01*
X86724Y-53274D01*
X86724Y-53371D01*
X86704Y-53436D01*
X86684Y-53468D01*
X86643Y-53501D01*
X86480Y-53501D01*
X87132Y-53825D02*
X86887Y-53825D01*
X87010Y-53825D02*
X87010Y-53144D01*
X86969Y-53241D01*
X86928Y-53306D01*
X86887Y-53339D01*
X87540Y-53825D02*
X87295Y-53825D01*
X87417Y-53825D02*
X87417Y-53144D01*
X87377Y-53241D01*
X87336Y-53306D01*
X87295Y-53339D01*
G54D11*
G54D12*
X90247Y-53792D02*
X90057Y-53792D01*
X90057Y-53192D01*
X90609Y-53735D02*
X90590Y-53764D01*
X90533Y-53792D01*
X90495Y-53792D01*
X90438Y-53764D01*
X90400Y-53707D01*
X90380Y-53650D01*
X90361Y-53535D01*
X90361Y-53450D01*
X90380Y-53335D01*
X90400Y-53278D01*
X90438Y-53221D01*
X90495Y-53192D01*
X90533Y-53192D01*
X90590Y-53221D01*
X90609Y-53250D01*
X90780Y-53792D02*
X90780Y-53192D01*
X90876Y-53192D01*
X90933Y-53221D01*
X90971Y-53278D01*
X90990Y-53335D01*
X91009Y-53450D01*
X91009Y-53535D01*
X90990Y-53650D01*
X90971Y-53707D01*
X90933Y-53764D01*
X90876Y-53792D01*
X90780Y-53792D01*
X91085Y-53850D02*
X91390Y-53850D01*
X91485Y-53792D02*
X91485Y-53192D01*
X91676Y-53392D02*
X91676Y-53792D01*
X91676Y-53450D02*
X91695Y-53421D01*
X91733Y-53392D01*
X91790Y-53392D01*
X91828Y-53421D01*
X91847Y-53478D01*
X91847Y-53792D01*
X91980Y-53392D02*
X92133Y-53392D01*
X92038Y-53192D02*
X92038Y-53707D01*
X92057Y-53764D01*
X92095Y-53792D01*
X92133Y-53792D01*
X92419Y-53764D02*
X92380Y-53792D01*
X92304Y-53792D01*
X92266Y-53764D01*
X92247Y-53707D01*
X92247Y-53478D01*
X92266Y-53421D01*
X92304Y-53392D01*
X92380Y-53392D01*
X92419Y-53421D01*
X92438Y-53478D01*
X92438Y-53535D01*
X92247Y-53592D01*
X92609Y-53792D02*
X92609Y-53392D01*
X92609Y-53507D02*
X92628Y-53450D01*
X92647Y-53421D01*
X92685Y-53392D01*
X92723Y-53392D01*
X92800Y-53392D02*
X92952Y-53392D01*
X92857Y-53792D02*
X92857Y-53278D01*
X92876Y-53221D01*
X92914Y-53192D01*
X92952Y-53192D01*
X93257Y-53792D02*
X93257Y-53478D01*
X93238Y-53421D01*
X93199Y-53392D01*
X93123Y-53392D01*
X93085Y-53421D01*
X93257Y-53764D02*
X93219Y-53792D01*
X93123Y-53792D01*
X93085Y-53764D01*
X93066Y-53707D01*
X93066Y-53650D01*
X93085Y-53592D01*
X93123Y-53564D01*
X93219Y-53564D01*
X93257Y-53535D01*
X93619Y-53764D02*
X93580Y-53792D01*
X93504Y-53792D01*
X93466Y-53764D01*
X93447Y-53735D01*
X93428Y-53678D01*
X93428Y-53507D01*
X93447Y-53450D01*
X93466Y-53421D01*
X93504Y-53392D01*
X93580Y-53392D01*
X93619Y-53421D01*
X93942Y-53764D02*
X93904Y-53792D01*
X93828Y-53792D01*
X93790Y-53764D01*
X93771Y-53707D01*
X93771Y-53478D01*
X93790Y-53421D01*
X93828Y-53392D01*
X93904Y-53392D01*
X93942Y-53421D01*
X93961Y-53478D01*
X93961Y-53535D01*
X93771Y-53592D01*
G54D11*
G54D16*
X96230Y-54825D02*
X96230Y-54144D01*
X96393Y-54144D01*
X96434Y-54177D01*
X96454Y-54209D01*
X96474Y-54274D01*
X96474Y-54371D01*
X96454Y-54436D01*
X96434Y-54468D01*
X96393Y-54501D01*
X96230Y-54501D01*
X96882Y-54825D02*
X96637Y-54825D01*
X96760Y-54825D02*
X96760Y-54144D01*
X96719Y-54241D01*
X96678Y-54306D01*
X96637Y-54339D01*
X97147Y-54144D02*
X97188Y-54144D01*
X97228Y-54177D01*
X97249Y-54209D01*
X97269Y-54274D01*
X97290Y-54404D01*
X97290Y-54566D01*
X97269Y-54695D01*
X97249Y-54760D01*
X97228Y-54793D01*
X97188Y-54825D01*
X97147Y-54825D01*
X97106Y-54793D01*
X97086Y-54760D01*
X97065Y-54695D01*
X97045Y-54566D01*
X97045Y-54404D01*
X97065Y-54274D01*
X97086Y-54209D01*
X97106Y-54177D01*
X97147Y-54144D01*
G54D11*
G54D12*
X99390Y-53735D02*
X99371Y-53764D01*
X99314Y-53792D01*
X99276Y-53792D01*
X99219Y-53764D01*
X99180Y-53707D01*
X99161Y-53650D01*
X99142Y-53535D01*
X99142Y-53450D01*
X99161Y-53335D01*
X99180Y-53278D01*
X99219Y-53221D01*
X99276Y-53192D01*
X99314Y-53192D01*
X99371Y-53221D01*
X99390Y-53250D01*
X99638Y-53192D02*
X99714Y-53192D01*
X99752Y-53221D01*
X99790Y-53278D01*
X99809Y-53392D01*
X99809Y-53592D01*
X99790Y-53707D01*
X99752Y-53764D01*
X99714Y-53792D01*
X99638Y-53792D01*
X99600Y-53764D01*
X99561Y-53707D01*
X99542Y-53592D01*
X99542Y-53392D01*
X99561Y-53278D01*
X99600Y-53221D01*
X99638Y-53192D01*
X99980Y-53792D02*
X99980Y-53192D01*
X100209Y-53792D01*
X100209Y-53192D01*
X100400Y-53792D02*
X100400Y-53192D01*
X100628Y-53792D01*
X100628Y-53192D01*
X100723Y-53850D02*
X101028Y-53850D01*
X101200Y-53192D02*
X101238Y-53192D01*
X101276Y-53221D01*
X101295Y-53250D01*
X101314Y-53307D01*
X101333Y-53421D01*
X101333Y-53564D01*
X101314Y-53678D01*
X101295Y-53735D01*
X101276Y-53764D01*
X101238Y-53792D01*
X101200Y-53792D01*
X101161Y-53764D01*
X101142Y-53735D01*
X101123Y-53678D01*
X101104Y-53564D01*
X101104Y-53421D01*
X101123Y-53307D01*
X101142Y-53250D01*
X101161Y-53221D01*
X101200Y-53192D01*
X101714Y-53792D02*
X101485Y-53792D01*
X101600Y-53792D02*
X101600Y-53192D01*
X101561Y-53278D01*
X101523Y-53335D01*
X101485Y-53364D01*
X101847Y-53192D02*
X102114Y-53792D01*
X102114Y-53192D02*
X101847Y-53792D01*
X102342Y-53192D02*
X102380Y-53192D01*
X102419Y-53221D01*
X102438Y-53250D01*
X102457Y-53307D01*
X102476Y-53421D01*
X102476Y-53564D01*
X102457Y-53678D01*
X102438Y-53735D01*
X102419Y-53764D01*
X102380Y-53792D01*
X102342Y-53792D01*
X102304Y-53764D01*
X102285Y-53735D01*
X102266Y-53678D01*
X102247Y-53564D01*
X102247Y-53421D01*
X102266Y-53307D01*
X102285Y-53250D01*
X102304Y-53221D01*
X102342Y-53192D01*
X102609Y-53192D02*
X102876Y-53192D01*
X102704Y-53792D01*
G54D11*
G54D16*
X96684Y-57475D02*
X96684Y-56794D01*
X96847Y-56794D01*
X96887Y-56827D01*
X96908Y-56859D01*
X96928Y-56924D01*
X96928Y-57021D01*
X96908Y-57086D01*
X96887Y-57118D01*
X96847Y-57151D01*
X96684Y-57151D01*
X97315Y-56794D02*
X97112Y-56794D01*
X97091Y-57118D01*
X97112Y-57086D01*
X97152Y-57054D01*
X97254Y-57054D01*
X97295Y-57086D01*
X97315Y-57118D01*
X97336Y-57183D01*
X97336Y-57345D01*
X97315Y-57410D01*
X97295Y-57443D01*
X97254Y-57475D01*
X97152Y-57475D01*
X97112Y-57443D01*
X97091Y-57410D01*
G54D11*
G54D12*
X99390Y-56385D02*
X99371Y-56414D01*
X99314Y-56442D01*
X99276Y-56442D01*
X99219Y-56414D01*
X99180Y-56357D01*
X99161Y-56300D01*
X99142Y-56185D01*
X99142Y-56100D01*
X99161Y-55985D01*
X99180Y-55928D01*
X99219Y-55871D01*
X99276Y-55842D01*
X99314Y-55842D01*
X99371Y-55871D01*
X99390Y-55900D01*
X99638Y-55842D02*
X99714Y-55842D01*
X99752Y-55871D01*
X99790Y-55928D01*
X99809Y-56042D01*
X99809Y-56242D01*
X99790Y-56357D01*
X99752Y-56414D01*
X99714Y-56442D01*
X99638Y-56442D01*
X99600Y-56414D01*
X99561Y-56357D01*
X99542Y-56242D01*
X99542Y-56042D01*
X99561Y-55928D01*
X99600Y-55871D01*
X99638Y-55842D01*
X99980Y-56442D02*
X99980Y-55842D01*
X100209Y-56442D01*
X100209Y-55842D01*
X100400Y-56442D02*
X100400Y-55842D01*
X100628Y-56442D01*
X100628Y-55842D01*
X100723Y-56500D02*
X101028Y-56500D01*
X101200Y-55842D02*
X101238Y-55842D01*
X101276Y-55871D01*
X101295Y-55900D01*
X101314Y-55957D01*
X101333Y-56071D01*
X101333Y-56214D01*
X101314Y-56328D01*
X101295Y-56385D01*
X101276Y-56414D01*
X101238Y-56442D01*
X101200Y-56442D01*
X101161Y-56414D01*
X101142Y-56385D01*
X101123Y-56328D01*
X101104Y-56214D01*
X101104Y-56071D01*
X101123Y-55957D01*
X101142Y-55900D01*
X101161Y-55871D01*
X101200Y-55842D01*
X101714Y-56442D02*
X101485Y-56442D01*
X101600Y-56442D02*
X101600Y-55842D01*
X101561Y-55928D01*
X101523Y-55985D01*
X101485Y-56014D01*
X101847Y-55842D02*
X102114Y-56442D01*
X102114Y-55842D02*
X101847Y-56442D01*
X102342Y-55842D02*
X102380Y-55842D01*
X102419Y-55871D01*
X102438Y-55900D01*
X102457Y-55957D01*
X102476Y-56071D01*
X102476Y-56214D01*
X102457Y-56328D01*
X102438Y-56385D01*
X102419Y-56414D01*
X102380Y-56442D01*
X102342Y-56442D01*
X102304Y-56414D01*
X102285Y-56385D01*
X102266Y-56328D01*
X102247Y-56214D01*
X102247Y-56071D01*
X102266Y-55957D01*
X102285Y-55900D01*
X102304Y-55871D01*
X102342Y-55842D01*
X102609Y-55842D02*
X102876Y-55842D01*
X102704Y-56442D01*
G54D11*
G54D16*
X102234Y-78325D02*
X102234Y-77644D01*
X102397Y-77644D01*
X102437Y-77677D01*
X102458Y-77709D01*
X102478Y-77774D01*
X102478Y-77871D01*
X102458Y-77936D01*
X102437Y-77968D01*
X102397Y-78001D01*
X102234Y-78001D01*
X102641Y-77709D02*
X102662Y-77677D01*
X102702Y-77644D01*
X102804Y-77644D01*
X102845Y-77677D01*
X102865Y-77709D01*
X102886Y-77774D01*
X102886Y-77839D01*
X102865Y-77936D01*
X102621Y-78325D01*
X102886Y-78325D01*
G54D11*
G54D12*
X98390Y-78185D02*
X98371Y-78214D01*
X98314Y-78242D01*
X98276Y-78242D01*
X98219Y-78214D01*
X98180Y-78157D01*
X98161Y-78100D01*
X98142Y-77985D01*
X98142Y-77900D01*
X98161Y-77785D01*
X98180Y-77728D01*
X98219Y-77671D01*
X98276Y-77642D01*
X98314Y-77642D01*
X98371Y-77671D01*
X98390Y-77700D01*
X98638Y-77642D02*
X98714Y-77642D01*
X98752Y-77671D01*
X98790Y-77728D01*
X98809Y-77842D01*
X98809Y-78042D01*
X98790Y-78157D01*
X98752Y-78214D01*
X98714Y-78242D01*
X98638Y-78242D01*
X98600Y-78214D01*
X98561Y-78157D01*
X98542Y-78042D01*
X98542Y-77842D01*
X98561Y-77728D01*
X98600Y-77671D01*
X98638Y-77642D01*
X98980Y-78242D02*
X98980Y-77642D01*
X99209Y-78242D01*
X99209Y-77642D01*
X99400Y-78242D02*
X99400Y-77642D01*
X99628Y-78242D01*
X99628Y-77642D01*
X99723Y-78300D02*
X100028Y-78300D01*
X100200Y-77642D02*
X100238Y-77642D01*
X100276Y-77671D01*
X100295Y-77700D01*
X100314Y-77757D01*
X100333Y-77871D01*
X100333Y-78014D01*
X100314Y-78128D01*
X100295Y-78185D01*
X100276Y-78214D01*
X100238Y-78242D01*
X100200Y-78242D01*
X100161Y-78214D01*
X100142Y-78185D01*
X100123Y-78128D01*
X100104Y-78014D01*
X100104Y-77871D01*
X100123Y-77757D01*
X100142Y-77700D01*
X100161Y-77671D01*
X100200Y-77642D01*
X100714Y-78242D02*
X100485Y-78242D01*
X100600Y-78242D02*
X100600Y-77642D01*
X100561Y-77728D01*
X100523Y-77785D01*
X100485Y-77814D01*
X100847Y-77642D02*
X101114Y-78242D01*
X101114Y-77642D02*
X100847Y-78242D01*
X101342Y-77642D02*
X101380Y-77642D01*
X101419Y-77671D01*
X101438Y-77700D01*
X101457Y-77757D01*
X101476Y-77871D01*
X101476Y-78014D01*
X101457Y-78128D01*
X101438Y-78185D01*
X101419Y-78214D01*
X101380Y-78242D01*
X101342Y-78242D01*
X101304Y-78214D01*
X101285Y-78185D01*
X101266Y-78128D01*
X101247Y-78014D01*
X101247Y-77871D01*
X101266Y-77757D01*
X101285Y-77700D01*
X101304Y-77671D01*
X101342Y-77642D01*
X101609Y-77642D02*
X101876Y-77642D01*
X101704Y-78242D01*
G54D11*
G54D16*
X102234Y-74375D02*
X102234Y-73694D01*
X102397Y-73694D01*
X102437Y-73727D01*
X102458Y-73759D01*
X102478Y-73824D01*
X102478Y-73921D01*
X102458Y-73986D01*
X102437Y-74018D01*
X102397Y-74051D01*
X102234Y-74051D01*
X102886Y-74375D02*
X102641Y-74375D01*
X102764Y-74375D02*
X102764Y-73694D01*
X102723Y-73791D01*
X102682Y-73856D01*
X102641Y-73889D01*
G54D11*
G54D12*
X98390Y-74185D02*
X98371Y-74214D01*
X98314Y-74242D01*
X98276Y-74242D01*
X98219Y-74214D01*
X98180Y-74157D01*
X98161Y-74100D01*
X98142Y-73985D01*
X98142Y-73900D01*
X98161Y-73785D01*
X98180Y-73728D01*
X98219Y-73671D01*
X98276Y-73642D01*
X98314Y-73642D01*
X98371Y-73671D01*
X98390Y-73700D01*
X98638Y-73642D02*
X98714Y-73642D01*
X98752Y-73671D01*
X98790Y-73728D01*
X98809Y-73842D01*
X98809Y-74042D01*
X98790Y-74157D01*
X98752Y-74214D01*
X98714Y-74242D01*
X98638Y-74242D01*
X98600Y-74214D01*
X98561Y-74157D01*
X98542Y-74042D01*
X98542Y-73842D01*
X98561Y-73728D01*
X98600Y-73671D01*
X98638Y-73642D01*
X98980Y-74242D02*
X98980Y-73642D01*
X99209Y-74242D01*
X99209Y-73642D01*
X99400Y-74242D02*
X99400Y-73642D01*
X99628Y-74242D01*
X99628Y-73642D01*
X99723Y-74300D02*
X100028Y-74300D01*
X100200Y-73642D02*
X100238Y-73642D01*
X100276Y-73671D01*
X100295Y-73700D01*
X100314Y-73757D01*
X100333Y-73871D01*
X100333Y-74014D01*
X100314Y-74128D01*
X100295Y-74185D01*
X100276Y-74214D01*
X100238Y-74242D01*
X100200Y-74242D01*
X100161Y-74214D01*
X100142Y-74185D01*
X100123Y-74128D01*
X100104Y-74014D01*
X100104Y-73871D01*
X100123Y-73757D01*
X100142Y-73700D01*
X100161Y-73671D01*
X100200Y-73642D01*
X100714Y-74242D02*
X100485Y-74242D01*
X100600Y-74242D02*
X100600Y-73642D01*
X100561Y-73728D01*
X100523Y-73785D01*
X100485Y-73814D01*
X100847Y-73642D02*
X101114Y-74242D01*
X101114Y-73642D02*
X100847Y-74242D01*
X101342Y-73642D02*
X101380Y-73642D01*
X101419Y-73671D01*
X101438Y-73700D01*
X101457Y-73757D01*
X101476Y-73871D01*
X101476Y-74014D01*
X101457Y-74128D01*
X101438Y-74185D01*
X101419Y-74214D01*
X101380Y-74242D01*
X101342Y-74242D01*
X101304Y-74214D01*
X101285Y-74185D01*
X101266Y-74128D01*
X101247Y-74014D01*
X101247Y-73871D01*
X101266Y-73757D01*
X101285Y-73700D01*
X101304Y-73671D01*
X101342Y-73642D01*
X101609Y-73642D02*
X101876Y-73642D01*
X101704Y-74242D01*
G54D11*
G54D16*
X82730Y-53825D02*
X82730Y-53144D01*
X82893Y-53144D01*
X82934Y-53177D01*
X82954Y-53209D01*
X82974Y-53274D01*
X82974Y-53371D01*
X82954Y-53436D01*
X82934Y-53468D01*
X82893Y-53501D01*
X82730Y-53501D01*
X83382Y-53825D02*
X83137Y-53825D01*
X83260Y-53825D02*
X83260Y-53144D01*
X83219Y-53241D01*
X83178Y-53306D01*
X83137Y-53339D01*
X83525Y-53144D02*
X83790Y-53144D01*
X83647Y-53404D01*
X83708Y-53404D01*
X83749Y-53436D01*
X83769Y-53468D01*
X83790Y-53533D01*
X83790Y-53695D01*
X83769Y-53760D01*
X83749Y-53793D01*
X83708Y-53825D01*
X83586Y-53825D01*
X83545Y-53793D01*
X83525Y-53760D01*
G54D11*
G54D12*
X78566Y-53764D02*
X78623Y-53792D01*
X78719Y-53792D01*
X78757Y-53764D01*
X78776Y-53735D01*
X78795Y-53678D01*
X78795Y-53621D01*
X78776Y-53564D01*
X78757Y-53535D01*
X78719Y-53507D01*
X78642Y-53478D01*
X78604Y-53450D01*
X78585Y-53421D01*
X78566Y-53364D01*
X78566Y-53307D01*
X78585Y-53250D01*
X78604Y-53221D01*
X78642Y-53192D01*
X78738Y-53192D01*
X78795Y-53221D01*
X78909Y-53392D02*
X79061Y-53392D01*
X78966Y-53192D02*
X78966Y-53707D01*
X78985Y-53764D01*
X79023Y-53792D01*
X79061Y-53792D01*
X79366Y-53792D02*
X79366Y-53478D01*
X79347Y-53421D01*
X79309Y-53392D01*
X79233Y-53392D01*
X79195Y-53421D01*
X79366Y-53764D02*
X79328Y-53792D01*
X79233Y-53792D01*
X79195Y-53764D01*
X79176Y-53707D01*
X79176Y-53650D01*
X79195Y-53592D01*
X79233Y-53564D01*
X79328Y-53564D01*
X79366Y-53535D01*
X79557Y-53792D02*
X79557Y-53392D01*
X79557Y-53507D02*
X79576Y-53450D01*
X79595Y-53421D01*
X79633Y-53392D01*
X79671Y-53392D01*
X79747Y-53392D02*
X79900Y-53392D01*
X79804Y-53192D02*
X79804Y-53707D01*
X79823Y-53764D01*
X79861Y-53792D01*
X79900Y-53792D01*
X80471Y-53478D02*
X80528Y-53507D01*
X80547Y-53535D01*
X80566Y-53592D01*
X80566Y-53678D01*
X80547Y-53735D01*
X80528Y-53764D01*
X80490Y-53792D01*
X80338Y-53792D01*
X80338Y-53192D01*
X80471Y-53192D01*
X80509Y-53221D01*
X80528Y-53250D01*
X80547Y-53307D01*
X80547Y-53364D01*
X80528Y-53421D01*
X80509Y-53450D01*
X80471Y-53478D01*
X80338Y-53478D01*
X80909Y-53392D02*
X80909Y-53792D01*
X80738Y-53392D02*
X80738Y-53707D01*
X80757Y-53764D01*
X80795Y-53792D01*
X80852Y-53792D01*
X80890Y-53764D01*
X80909Y-53735D01*
X81042Y-53392D02*
X81195Y-53392D01*
X81100Y-53192D02*
X81100Y-53707D01*
X81119Y-53764D01*
X81157Y-53792D01*
X81195Y-53792D01*
X81271Y-53392D02*
X81423Y-53392D01*
X81328Y-53192D02*
X81328Y-53707D01*
X81347Y-53764D01*
X81385Y-53792D01*
X81423Y-53792D01*
X81614Y-53792D02*
X81576Y-53764D01*
X81557Y-53735D01*
X81538Y-53678D01*
X81538Y-53507D01*
X81557Y-53450D01*
X81576Y-53421D01*
X81614Y-53392D01*
X81671Y-53392D01*
X81709Y-53421D01*
X81728Y-53450D01*
X81747Y-53507D01*
X81747Y-53678D01*
X81728Y-53735D01*
X81709Y-53764D01*
X81671Y-53792D01*
X81614Y-53792D01*
X81919Y-53392D02*
X81919Y-53792D01*
X81919Y-53450D02*
X81938Y-53421D01*
X81976Y-53392D01*
X82033Y-53392D01*
X82071Y-53421D01*
X82090Y-53478D01*
X82090Y-53792D01*
X82261Y-53764D02*
X82299Y-53792D01*
X82376Y-53792D01*
X82414Y-53764D01*
X82433Y-53707D01*
X82433Y-53678D01*
X82414Y-53621D01*
X82376Y-53592D01*
X82319Y-53592D01*
X82280Y-53564D01*
X82261Y-53507D01*
X82261Y-53478D01*
X82280Y-53421D01*
X82319Y-53392D01*
X82376Y-53392D01*
X82414Y-53421D01*
G54D11*
G54D16*
X83034Y-67575D02*
X83034Y-66894D01*
X83197Y-66894D01*
X83237Y-66927D01*
X83258Y-66959D01*
X83278Y-67024D01*
X83278Y-67121D01*
X83258Y-67186D01*
X83237Y-67218D01*
X83197Y-67251D01*
X83034Y-67251D01*
X83421Y-66894D02*
X83706Y-66894D01*
X83523Y-67575D01*
G54D11*
G54D12*
X81821Y-67492D02*
X81821Y-66892D01*
X81916Y-66892D01*
X81973Y-66921D01*
X82011Y-66978D01*
X82030Y-67035D01*
X82050Y-67150D01*
X82050Y-67235D01*
X82030Y-67350D01*
X82011Y-67407D01*
X81973Y-67464D01*
X81916Y-67492D01*
X81821Y-67492D01*
X82202Y-67321D02*
X82392Y-67321D01*
X82164Y-67492D02*
X82297Y-66892D01*
X82430Y-67492D01*
X82507Y-66892D02*
X82735Y-66892D01*
X82621Y-67492D02*
X82621Y-66892D01*
G54D11*
G54D16*
X82734Y-70525D02*
X82734Y-69844D01*
X82897Y-69844D01*
X82937Y-69877D01*
X82958Y-69909D01*
X82978Y-69974D01*
X82978Y-70071D01*
X82958Y-70136D01*
X82937Y-70168D01*
X82897Y-70201D01*
X82734Y-70201D01*
X83345Y-69844D02*
X83264Y-69844D01*
X83223Y-69877D01*
X83202Y-69909D01*
X83162Y-70006D01*
X83141Y-70136D01*
X83141Y-70395D01*
X83162Y-70460D01*
X83182Y-70493D01*
X83223Y-70525D01*
X83304Y-70525D01*
X83345Y-70493D01*
X83365Y-70460D01*
X83386Y-70395D01*
X83386Y-70233D01*
X83365Y-70168D01*
X83345Y-70136D01*
X83304Y-70104D01*
X83223Y-70104D01*
X83182Y-70136D01*
X83162Y-70168D01*
X83141Y-70233D01*
G54D11*
G54D12*
X82173Y-69892D02*
X81983Y-69892D01*
X81964Y-70178D01*
X81983Y-70150D01*
X82021Y-70121D01*
X82116Y-70121D01*
X82154Y-70150D01*
X82173Y-70178D01*
X82192Y-70235D01*
X82192Y-70378D01*
X82173Y-70435D01*
X82154Y-70464D01*
X82116Y-70492D01*
X82021Y-70492D01*
X81983Y-70464D01*
X81964Y-70435D01*
X82307Y-69892D02*
X82440Y-70492D01*
X82573Y-69892D01*
G54D11*
G54D16*
X76034Y-70475D02*
X76034Y-69794D01*
X76197Y-69794D01*
X76237Y-69827D01*
X76258Y-69859D01*
X76278Y-69924D01*
X76278Y-70021D01*
X76258Y-70086D01*
X76237Y-70118D01*
X76197Y-70151D01*
X76034Y-70151D01*
X76523Y-70086D02*
X76482Y-70054D01*
X76462Y-70021D01*
X76441Y-69956D01*
X76441Y-69924D01*
X76462Y-69859D01*
X76482Y-69827D01*
X76523Y-69794D01*
X76604Y-69794D01*
X76645Y-69827D01*
X76665Y-69859D01*
X76686Y-69924D01*
X76686Y-69956D01*
X76665Y-70021D01*
X76645Y-70054D01*
X76604Y-70086D01*
X76523Y-70086D01*
X76482Y-70118D01*
X76462Y-70151D01*
X76441Y-70216D01*
X76441Y-70345D01*
X76462Y-70410D01*
X76482Y-70443D01*
X76523Y-70475D01*
X76604Y-70475D01*
X76645Y-70443D01*
X76665Y-70410D01*
X76686Y-70345D01*
X76686Y-70216D01*
X76665Y-70151D01*
X76645Y-70118D01*
X76604Y-70086D01*
G54D11*
G54D12*
X74945Y-69921D02*
X74907Y-69892D01*
X74850Y-69892D01*
X74792Y-69921D01*
X74754Y-69978D01*
X74735Y-70035D01*
X74716Y-70150D01*
X74716Y-70235D01*
X74735Y-70350D01*
X74754Y-70407D01*
X74792Y-70464D01*
X74850Y-70492D01*
X74888Y-70492D01*
X74945Y-70464D01*
X74964Y-70435D01*
X74964Y-70235D01*
X74888Y-70235D01*
X75135Y-70492D02*
X75135Y-69892D01*
X75364Y-70492D01*
X75364Y-69892D01*
X75554Y-70492D02*
X75554Y-69892D01*
X75650Y-69892D01*
X75707Y-69921D01*
X75745Y-69978D01*
X75764Y-70035D01*
X75783Y-70150D01*
X75783Y-70235D01*
X75764Y-70350D01*
X75745Y-70407D01*
X75707Y-70464D01*
X75650Y-70492D01*
X75554Y-70492D01*
G54D11*
G54D16*
X75984Y-67525D02*
X75984Y-66844D01*
X76147Y-66844D01*
X76187Y-66877D01*
X76208Y-66909D01*
X76228Y-66974D01*
X76228Y-67071D01*
X76208Y-67136D01*
X76187Y-67168D01*
X76147Y-67201D01*
X75984Y-67201D01*
X76432Y-67525D02*
X76514Y-67525D01*
X76554Y-67493D01*
X76575Y-67460D01*
X76615Y-67363D01*
X76636Y-67233D01*
X76636Y-66974D01*
X76615Y-66909D01*
X76595Y-66877D01*
X76554Y-66844D01*
X76473Y-66844D01*
X76432Y-66877D01*
X76412Y-66909D01*
X76391Y-66974D01*
X76391Y-67136D01*
X76412Y-67201D01*
X76432Y-67233D01*
X76473Y-67266D01*
X76554Y-67266D01*
X76595Y-67233D01*
X76615Y-67201D01*
X76636Y-67136D01*
G54D11*
G54D12*
X75011Y-67435D02*
X74992Y-67464D01*
X74935Y-67492D01*
X74897Y-67492D01*
X74840Y-67464D01*
X74802Y-67407D01*
X74783Y-67350D01*
X74764Y-67235D01*
X74764Y-67150D01*
X74783Y-67035D01*
X74802Y-66978D01*
X74840Y-66921D01*
X74897Y-66892D01*
X74935Y-66892D01*
X74992Y-66921D01*
X75011Y-66950D01*
X75373Y-67492D02*
X75183Y-67492D01*
X75183Y-66892D01*
X75507Y-67492D02*
X75507Y-66892D01*
X75735Y-67492D02*
X75564Y-67150D01*
X75735Y-66892D02*
X75507Y-67235D01*
G54D11*
G54D17*
X93428Y-76621D02*
X93428Y-76321D01*
X93500Y-76321D01*
X93542Y-76335D01*
X93571Y-76364D01*
X93585Y-76392D01*
X93600Y-76450D01*
X93600Y-76492D01*
X93585Y-76550D01*
X93571Y-76578D01*
X93542Y-76607D01*
X93500Y-76621D01*
X93428Y-76621D01*
X93885Y-76621D02*
X93714Y-76621D01*
X93800Y-76621D02*
X93800Y-76321D01*
X93771Y-76364D01*
X93742Y-76392D01*
X93714Y-76407D01*
X92307Y-77121D02*
X92164Y-77121D01*
X92164Y-76821D01*
X92407Y-76964D02*
X92507Y-76964D01*
X92550Y-77121D02*
X92407Y-77121D01*
X92407Y-76821D01*
X92550Y-76821D01*
X92678Y-77121D02*
X92678Y-76821D01*
X92750Y-76821D01*
X92792Y-76835D01*
X92821Y-76864D01*
X92835Y-76892D01*
X92850Y-76950D01*
X92850Y-76992D01*
X92835Y-77050D01*
X92821Y-77078D01*
X92792Y-77107D01*
X92750Y-77121D01*
X92678Y-77121D01*
G54D18*
X86667Y-63283D02*
X86667Y-62583D01*
X86839Y-62583D01*
X86882Y-62616D01*
X86903Y-62650D01*
X86925Y-62716D01*
X86925Y-62816D01*
X86903Y-62883D01*
X86882Y-62916D01*
X86839Y-62950D01*
X86667Y-62950D01*
X87310Y-62816D02*
X87310Y-63283D01*
X87203Y-62550D02*
X87096Y-63050D01*
X87375Y-63050D01*
G54D11*
X98700Y-65783D02*
X98700Y-65083D01*
X98866Y-65083D01*
X98966Y-65116D01*
X99033Y-65183D01*
X99066Y-65250D01*
X99100Y-65383D01*
X99100Y-65483D01*
X99066Y-65616D01*
X99033Y-65683D01*
X98966Y-65750D01*
X98866Y-65783D01*
X98700Y-65783D01*
X99400Y-65783D02*
X99400Y-65083D01*
X100066Y-65783D02*
X99733Y-65783D01*
X99733Y-65083D01*
X100600Y-65316D02*
X100600Y-65783D01*
X100433Y-65050D02*
X100266Y-65550D01*
X100700Y-65550D01*
X101100Y-65083D02*
X101166Y-65083D01*
X101233Y-65116D01*
X101266Y-65150D01*
X101300Y-65216D01*
X101333Y-65350D01*
X101333Y-65516D01*
X101300Y-65650D01*
X101266Y-65716D01*
X101233Y-65750D01*
X101166Y-65783D01*
X101100Y-65783D01*
X101033Y-65750D01*
X101000Y-65716D01*
X100966Y-65650D01*
X100933Y-65516D01*
X100933Y-65350D01*
X100966Y-65216D01*
X101000Y-65150D01*
X101033Y-65116D01*
X101100Y-65083D01*
G54D16*
X93680Y-73775D02*
X93680Y-73094D01*
X93843Y-73094D01*
X93884Y-73127D01*
X93904Y-73159D01*
X93924Y-73224D01*
X93924Y-73321D01*
X93904Y-73386D01*
X93884Y-73418D01*
X93843Y-73451D01*
X93680Y-73451D01*
X94332Y-73775D02*
X94087Y-73775D01*
X94210Y-73775D02*
X94210Y-73094D01*
X94169Y-73191D01*
X94128Y-73256D01*
X94087Y-73289D01*
X94495Y-73159D02*
X94515Y-73127D01*
X94556Y-73094D01*
X94658Y-73094D01*
X94699Y-73127D01*
X94719Y-73159D01*
X94740Y-73224D01*
X94740Y-73289D01*
X94719Y-73386D01*
X94475Y-73775D01*
X94740Y-73775D01*
G54D11*
G54D12*
X80911Y-73635D02*
X80892Y-73664D01*
X80835Y-73692D01*
X80797Y-73692D01*
X80740Y-73664D01*
X80702Y-73607D01*
X80683Y-73550D01*
X80664Y-73435D01*
X80664Y-73350D01*
X80683Y-73235D01*
X80702Y-73178D01*
X80740Y-73121D01*
X80797Y-73092D01*
X80835Y-73092D01*
X80892Y-73121D01*
X80911Y-73150D01*
X81159Y-73092D02*
X81235Y-73092D01*
X81273Y-73121D01*
X81311Y-73178D01*
X81330Y-73292D01*
X81330Y-73492D01*
X81311Y-73607D01*
X81273Y-73664D01*
X81235Y-73692D01*
X81159Y-73692D01*
X81121Y-73664D01*
X81083Y-73607D01*
X81064Y-73492D01*
X81064Y-73292D01*
X81083Y-73178D01*
X81121Y-73121D01*
X81159Y-73092D01*
X81502Y-73692D02*
X81502Y-73092D01*
X81730Y-73692D01*
X81730Y-73092D01*
X81921Y-73692D02*
X81921Y-73092D01*
X82150Y-73692D01*
X82150Y-73092D01*
X82245Y-73750D02*
X82550Y-73750D01*
X82854Y-73692D02*
X82626Y-73692D01*
X82740Y-73692D02*
X82740Y-73092D01*
X82702Y-73178D01*
X82664Y-73235D01*
X82626Y-73264D01*
X83102Y-73092D02*
X83140Y-73092D01*
X83178Y-73121D01*
X83197Y-73150D01*
X83216Y-73207D01*
X83235Y-73321D01*
X83235Y-73464D01*
X83216Y-73578D01*
X83197Y-73635D01*
X83178Y-73664D01*
X83140Y-73692D01*
X83102Y-73692D01*
X83064Y-73664D01*
X83045Y-73635D01*
X83026Y-73578D01*
X83007Y-73464D01*
X83007Y-73321D01*
X83026Y-73207D01*
X83045Y-73150D01*
X83064Y-73121D01*
X83102Y-73092D01*
G54D11*
G54D16*
X93734Y-74875D02*
X93734Y-74194D01*
X93897Y-74194D01*
X93937Y-74227D01*
X93958Y-74259D01*
X93978Y-74324D01*
X93978Y-74421D01*
X93958Y-74486D01*
X93937Y-74518D01*
X93897Y-74551D01*
X93734Y-74551D01*
X94121Y-74194D02*
X94386Y-74194D01*
X94243Y-74454D01*
X94304Y-74454D01*
X94345Y-74486D01*
X94365Y-74518D01*
X94386Y-74583D01*
X94386Y-74745D01*
X94365Y-74810D01*
X94345Y-74843D01*
X94304Y-74875D01*
X94182Y-74875D01*
X94141Y-74843D01*
X94121Y-74810D01*
G54D11*
G54D12*
X80911Y-74685D02*
X80892Y-74714D01*
X80835Y-74742D01*
X80797Y-74742D01*
X80740Y-74714D01*
X80702Y-74657D01*
X80683Y-74600D01*
X80664Y-74485D01*
X80664Y-74400D01*
X80683Y-74285D01*
X80702Y-74228D01*
X80740Y-74171D01*
X80797Y-74142D01*
X80835Y-74142D01*
X80892Y-74171D01*
X80911Y-74200D01*
X81159Y-74142D02*
X81235Y-74142D01*
X81273Y-74171D01*
X81311Y-74228D01*
X81330Y-74342D01*
X81330Y-74542D01*
X81311Y-74657D01*
X81273Y-74714D01*
X81235Y-74742D01*
X81159Y-74742D01*
X81121Y-74714D01*
X81083Y-74657D01*
X81064Y-74542D01*
X81064Y-74342D01*
X81083Y-74228D01*
X81121Y-74171D01*
X81159Y-74142D01*
X81502Y-74742D02*
X81502Y-74142D01*
X81730Y-74742D01*
X81730Y-74142D01*
X81921Y-74742D02*
X81921Y-74142D01*
X82150Y-74742D01*
X82150Y-74142D01*
X82245Y-74800D02*
X82550Y-74800D01*
X82854Y-74742D02*
X82626Y-74742D01*
X82740Y-74742D02*
X82740Y-74142D01*
X82702Y-74228D01*
X82664Y-74285D01*
X82626Y-74314D01*
X83102Y-74142D02*
X83140Y-74142D01*
X83178Y-74171D01*
X83197Y-74200D01*
X83216Y-74257D01*
X83235Y-74371D01*
X83235Y-74514D01*
X83216Y-74628D01*
X83197Y-74685D01*
X83178Y-74714D01*
X83140Y-74742D01*
X83102Y-74742D01*
X83064Y-74714D01*
X83045Y-74685D01*
X83026Y-74628D01*
X83007Y-74514D01*
X83007Y-74371D01*
X83026Y-74257D01*
X83045Y-74200D01*
X83064Y-74171D01*
X83102Y-74142D01*
G54D11*
G54D15*
X84366Y-63322D02*
X84200Y-63060D01*
X84080Y-63322D02*
X84080Y-62772D01*
X84271Y-62772D01*
X84319Y-62798D01*
X84342Y-62825D01*
X84366Y-62877D01*
X84366Y-62955D01*
X84342Y-63008D01*
X84319Y-63034D01*
X84271Y-63060D01*
X84080Y-63060D01*
X84557Y-62825D02*
X84580Y-62798D01*
X84628Y-62772D01*
X84747Y-62772D01*
X84795Y-62798D01*
X84819Y-62825D01*
X84842Y-62877D01*
X84842Y-62929D01*
X84819Y-63008D01*
X84533Y-63322D01*
X84842Y-63322D01*
X80690Y-63272D02*
X80404Y-63272D01*
X80547Y-63272D02*
X80547Y-62722D01*
X80500Y-62801D01*
X80452Y-62853D01*
X80404Y-62879D01*
X81000Y-62722D02*
X81047Y-62722D01*
X81095Y-62748D01*
X81119Y-62775D01*
X81142Y-62827D01*
X81166Y-62932D01*
X81166Y-63063D01*
X81142Y-63167D01*
X81119Y-63220D01*
X81095Y-63246D01*
X81047Y-63272D01*
X81000Y-63272D01*
X80952Y-63246D01*
X80928Y-63220D01*
X80904Y-63167D01*
X80880Y-63063D01*
X80880Y-62932D01*
X80904Y-62827D01*
X80928Y-62775D01*
X80952Y-62748D01*
X81000Y-62722D01*
X81761Y-63272D02*
X81761Y-62722D01*
X81809Y-63063D02*
X81952Y-63272D01*
X81952Y-62905D02*
X81761Y-63115D01*
X82261Y-62722D02*
X82357Y-62722D01*
X82404Y-62748D01*
X82452Y-62801D01*
X82476Y-62905D01*
X82476Y-63089D01*
X82452Y-63194D01*
X82404Y-63246D01*
X82357Y-63272D01*
X82261Y-63272D01*
X82214Y-63246D01*
X82166Y-63194D01*
X82142Y-63089D01*
X82142Y-62905D01*
X82166Y-62801D01*
X82214Y-62748D01*
X82261Y-62722D01*
X82690Y-63272D02*
X82690Y-62722D01*
X82904Y-63272D02*
X82904Y-62984D01*
X82880Y-62932D01*
X82833Y-62905D01*
X82761Y-62905D01*
X82714Y-62932D01*
X82690Y-62958D01*
X83142Y-63272D02*
X83142Y-62905D01*
X83142Y-62958D02*
X83166Y-62932D01*
X83214Y-62905D01*
X83285Y-62905D01*
X83333Y-62932D01*
X83357Y-62984D01*
X83357Y-63272D01*
X83357Y-62984D02*
X83380Y-62932D01*
X83428Y-62905D01*
X83500Y-62905D01*
X83547Y-62932D01*
X83571Y-62984D01*
X83571Y-63272D01*
G54D12*
X106114Y-76861D02*
X106114Y-76461D01*
X106266Y-76461D01*
X106304Y-76480D01*
X106323Y-76500D01*
X106342Y-76538D01*
X106342Y-76595D01*
X106323Y-76633D01*
X106304Y-76652D01*
X106266Y-76671D01*
X106114Y-76671D01*
X106723Y-76861D02*
X106495Y-76861D01*
X106609Y-76861D02*
X106609Y-76461D01*
X106571Y-76519D01*
X106533Y-76557D01*
X106495Y-76576D01*
X107066Y-76595D02*
X107066Y-76861D01*
X106971Y-76442D02*
X106876Y-76728D01*
X107123Y-76728D01*
X105452Y-76123D02*
X105433Y-76142D01*
X105376Y-76161D01*
X105338Y-76161D01*
X105280Y-76142D01*
X105242Y-76104D01*
X105223Y-76066D01*
X105204Y-75990D01*
X105204Y-75933D01*
X105223Y-75857D01*
X105242Y-75819D01*
X105280Y-75780D01*
X105338Y-75761D01*
X105376Y-75761D01*
X105433Y-75780D01*
X105452Y-75800D01*
X105700Y-75761D02*
X105776Y-75761D01*
X105814Y-75780D01*
X105852Y-75819D01*
X105871Y-75895D01*
X105871Y-76028D01*
X105852Y-76104D01*
X105814Y-76142D01*
X105776Y-76161D01*
X105700Y-76161D01*
X105661Y-76142D01*
X105623Y-76104D01*
X105604Y-76028D01*
X105604Y-75895D01*
X105623Y-75819D01*
X105661Y-75780D01*
X105700Y-75761D01*
X106042Y-76161D02*
X106042Y-75761D01*
X106271Y-76161D01*
X106271Y-75761D01*
X106461Y-76161D02*
X106461Y-75761D01*
X106690Y-76161D01*
X106690Y-75761D01*
X106785Y-76200D02*
X107090Y-76200D01*
X107395Y-76161D02*
X107166Y-76161D01*
X107280Y-76161D02*
X107280Y-75761D01*
X107242Y-75819D01*
X107204Y-75857D01*
X107166Y-75876D01*
X74314Y-76911D02*
X74314Y-76511D01*
X74466Y-76511D01*
X74504Y-76530D01*
X74523Y-76550D01*
X74542Y-76588D01*
X74542Y-76645D01*
X74523Y-76683D01*
X74504Y-76702D01*
X74466Y-76721D01*
X74314Y-76721D01*
X74923Y-76911D02*
X74695Y-76911D01*
X74809Y-76911D02*
X74809Y-76511D01*
X74771Y-76569D01*
X74733Y-76607D01*
X74695Y-76626D01*
X75285Y-76511D02*
X75095Y-76511D01*
X75076Y-76702D01*
X75095Y-76683D01*
X75133Y-76664D01*
X75228Y-76664D01*
X75266Y-76683D01*
X75285Y-76702D01*
X75304Y-76740D01*
X75304Y-76835D01*
X75285Y-76873D01*
X75266Y-76892D01*
X75228Y-76911D01*
X75133Y-76911D01*
X75095Y-76892D01*
X75076Y-76873D01*
X74202Y-76123D02*
X74183Y-76142D01*
X74126Y-76161D01*
X74088Y-76161D01*
X74030Y-76142D01*
X73992Y-76104D01*
X73973Y-76066D01*
X73954Y-75990D01*
X73954Y-75933D01*
X73973Y-75857D01*
X73992Y-75819D01*
X74030Y-75780D01*
X74088Y-75761D01*
X74126Y-75761D01*
X74183Y-75780D01*
X74202Y-75800D01*
X74450Y-75761D02*
X74526Y-75761D01*
X74564Y-75780D01*
X74602Y-75819D01*
X74621Y-75895D01*
X74621Y-76028D01*
X74602Y-76104D01*
X74564Y-76142D01*
X74526Y-76161D01*
X74450Y-76161D01*
X74411Y-76142D01*
X74373Y-76104D01*
X74354Y-76028D01*
X74354Y-75895D01*
X74373Y-75819D01*
X74411Y-75780D01*
X74450Y-75761D01*
X74792Y-76161D02*
X74792Y-75761D01*
X75021Y-76161D01*
X75021Y-75761D01*
X75211Y-76161D02*
X75211Y-75761D01*
X75440Y-76161D01*
X75440Y-75761D01*
X75535Y-76200D02*
X75840Y-76200D01*
X76145Y-76161D02*
X75916Y-76161D01*
X76030Y-76161D02*
X76030Y-75761D01*
X75992Y-75819D01*
X75954Y-75857D01*
X75916Y-75876D01*
X74264Y-55661D02*
X74264Y-55261D01*
X74416Y-55261D01*
X74454Y-55280D01*
X74473Y-55300D01*
X74492Y-55338D01*
X74492Y-55395D01*
X74473Y-55433D01*
X74454Y-55452D01*
X74416Y-55471D01*
X74264Y-55471D01*
X74873Y-55661D02*
X74645Y-55661D01*
X74759Y-55661D02*
X74759Y-55261D01*
X74721Y-55319D01*
X74683Y-55357D01*
X74645Y-55376D01*
X75216Y-55261D02*
X75140Y-55261D01*
X75102Y-55280D01*
X75083Y-55300D01*
X75045Y-55357D01*
X75026Y-55433D01*
X75026Y-55585D01*
X75045Y-55623D01*
X75064Y-55642D01*
X75102Y-55661D01*
X75178Y-55661D01*
X75216Y-55642D01*
X75235Y-55623D01*
X75254Y-55585D01*
X75254Y-55490D01*
X75235Y-55452D01*
X75216Y-55433D01*
X75178Y-55414D01*
X75102Y-55414D01*
X75064Y-55433D01*
X75045Y-55452D01*
X75026Y-55490D01*
X73902Y-55023D02*
X73883Y-55042D01*
X73826Y-55061D01*
X73788Y-55061D01*
X73730Y-55042D01*
X73692Y-55004D01*
X73673Y-54966D01*
X73654Y-54890D01*
X73654Y-54833D01*
X73673Y-54757D01*
X73692Y-54719D01*
X73730Y-54680D01*
X73788Y-54661D01*
X73826Y-54661D01*
X73883Y-54680D01*
X73902Y-54700D01*
X74150Y-54661D02*
X74226Y-54661D01*
X74264Y-54680D01*
X74302Y-54719D01*
X74321Y-54795D01*
X74321Y-54928D01*
X74302Y-55004D01*
X74264Y-55042D01*
X74226Y-55061D01*
X74150Y-55061D01*
X74111Y-55042D01*
X74073Y-55004D01*
X74054Y-54928D01*
X74054Y-54795D01*
X74073Y-54719D01*
X74111Y-54680D01*
X74150Y-54661D01*
X74492Y-55061D02*
X74492Y-54661D01*
X74721Y-55061D01*
X74721Y-54661D01*
X74911Y-55061D02*
X74911Y-54661D01*
X75140Y-55061D01*
X75140Y-54661D01*
X75235Y-55100D02*
X75540Y-55100D01*
X75845Y-55061D02*
X75616Y-55061D01*
X75730Y-55061D02*
X75730Y-54661D01*
X75692Y-54719D01*
X75654Y-54757D01*
X75616Y-54776D01*
X106014Y-55761D02*
X106014Y-55361D01*
X106166Y-55361D01*
X106204Y-55380D01*
X106223Y-55400D01*
X106242Y-55438D01*
X106242Y-55495D01*
X106223Y-55533D01*
X106204Y-55552D01*
X106166Y-55571D01*
X106014Y-55571D01*
X106623Y-55761D02*
X106395Y-55761D01*
X106509Y-55761D02*
X106509Y-55361D01*
X106471Y-55419D01*
X106433Y-55457D01*
X106395Y-55476D01*
X106757Y-55361D02*
X107023Y-55361D01*
X106852Y-55761D01*
X105702Y-55123D02*
X105683Y-55142D01*
X105626Y-55161D01*
X105588Y-55161D01*
X105530Y-55142D01*
X105492Y-55104D01*
X105473Y-55066D01*
X105454Y-54990D01*
X105454Y-54933D01*
X105473Y-54857D01*
X105492Y-54819D01*
X105530Y-54780D01*
X105588Y-54761D01*
X105626Y-54761D01*
X105683Y-54780D01*
X105702Y-54800D01*
X105950Y-54761D02*
X106026Y-54761D01*
X106064Y-54780D01*
X106102Y-54819D01*
X106121Y-54895D01*
X106121Y-55028D01*
X106102Y-55104D01*
X106064Y-55142D01*
X106026Y-55161D01*
X105950Y-55161D01*
X105911Y-55142D01*
X105873Y-55104D01*
X105854Y-55028D01*
X105854Y-54895D01*
X105873Y-54819D01*
X105911Y-54780D01*
X105950Y-54761D01*
X106292Y-55161D02*
X106292Y-54761D01*
X106521Y-55161D01*
X106521Y-54761D01*
X106711Y-55161D02*
X106711Y-54761D01*
X106940Y-55161D01*
X106940Y-54761D01*
X107035Y-55200D02*
X107340Y-55200D01*
X107645Y-55161D02*
X107416Y-55161D01*
X107530Y-55161D02*
X107530Y-54761D01*
X107492Y-54819D01*
X107454Y-54857D01*
X107416Y-54876D01*
G54D15*
X84316Y-61722D02*
X84150Y-61460D01*
X84030Y-61722D02*
X84030Y-61172D01*
X84221Y-61172D01*
X84269Y-61198D01*
X84292Y-61225D01*
X84316Y-61277D01*
X84316Y-61355D01*
X84292Y-61408D01*
X84269Y-61434D01*
X84221Y-61460D01*
X84030Y-61460D01*
X84792Y-61722D02*
X84507Y-61722D01*
X84650Y-61722D02*
X84650Y-61172D01*
X84602Y-61251D01*
X84554Y-61303D01*
X84507Y-61329D01*
X80654Y-61672D02*
X80369Y-61672D01*
X80511Y-61672D02*
X80511Y-61122D01*
X80464Y-61201D01*
X80416Y-61253D01*
X80369Y-61279D01*
X80964Y-61122D02*
X81011Y-61122D01*
X81059Y-61148D01*
X81083Y-61175D01*
X81107Y-61227D01*
X81130Y-61332D01*
X81130Y-61463D01*
X81107Y-61567D01*
X81083Y-61620D01*
X81059Y-61646D01*
X81011Y-61672D01*
X80964Y-61672D01*
X80916Y-61646D01*
X80892Y-61620D01*
X80869Y-61567D01*
X80845Y-61463D01*
X80845Y-61332D01*
X80869Y-61227D01*
X80892Y-61175D01*
X80916Y-61148D01*
X80964Y-61122D01*
X81440Y-61122D02*
X81488Y-61122D01*
X81535Y-61148D01*
X81559Y-61175D01*
X81583Y-61227D01*
X81607Y-61332D01*
X81607Y-61463D01*
X81583Y-61567D01*
X81559Y-61620D01*
X81535Y-61646D01*
X81488Y-61672D01*
X81440Y-61672D01*
X81392Y-61646D01*
X81369Y-61620D01*
X81345Y-61567D01*
X81321Y-61463D01*
X81321Y-61332D01*
X81345Y-61227D01*
X81369Y-61175D01*
X81392Y-61148D01*
X81440Y-61122D01*
X82297Y-61122D02*
X82392Y-61122D01*
X82440Y-61148D01*
X82488Y-61201D01*
X82511Y-61305D01*
X82511Y-61489D01*
X82488Y-61594D01*
X82440Y-61646D01*
X82392Y-61672D01*
X82297Y-61672D01*
X82250Y-61646D01*
X82202Y-61594D01*
X82178Y-61489D01*
X82178Y-61305D01*
X82202Y-61201D01*
X82250Y-61148D01*
X82297Y-61122D01*
X82726Y-61672D02*
X82726Y-61122D01*
X82940Y-61672D02*
X82940Y-61384D01*
X82916Y-61332D01*
X82869Y-61305D01*
X82797Y-61305D01*
X82750Y-61332D01*
X82726Y-61358D01*
X83178Y-61672D02*
X83178Y-61305D01*
X83178Y-61358D02*
X83202Y-61332D01*
X83250Y-61305D01*
X83321Y-61305D01*
X83369Y-61332D01*
X83392Y-61384D01*
X83392Y-61672D01*
X83392Y-61384D02*
X83416Y-61332D01*
X83464Y-61305D01*
X83535Y-61305D01*
X83583Y-61332D01*
X83607Y-61384D01*
X83607Y-61672D01*
X84316Y-64272D02*
X84150Y-64010D01*
X84030Y-64272D02*
X84030Y-63722D01*
X84221Y-63722D01*
X84269Y-63748D01*
X84292Y-63775D01*
X84316Y-63827D01*
X84316Y-63905D01*
X84292Y-63958D01*
X84269Y-63984D01*
X84221Y-64010D01*
X84030Y-64010D01*
X84483Y-63722D02*
X84792Y-63722D01*
X84626Y-63932D01*
X84697Y-63932D01*
X84745Y-63958D01*
X84769Y-63984D01*
X84792Y-64036D01*
X84792Y-64167D01*
X84769Y-64220D01*
X84745Y-64246D01*
X84697Y-64272D01*
X84554Y-64272D01*
X84507Y-64246D01*
X84483Y-64220D01*
X80690Y-64272D02*
X80404Y-64272D01*
X80547Y-64272D02*
X80547Y-63722D01*
X80500Y-63801D01*
X80452Y-63853D01*
X80404Y-63879D01*
X81000Y-63722D02*
X81047Y-63722D01*
X81095Y-63748D01*
X81119Y-63775D01*
X81142Y-63827D01*
X81166Y-63932D01*
X81166Y-64063D01*
X81142Y-64167D01*
X81119Y-64220D01*
X81095Y-64246D01*
X81047Y-64272D01*
X81000Y-64272D01*
X80952Y-64246D01*
X80928Y-64220D01*
X80904Y-64167D01*
X80880Y-64063D01*
X80880Y-63932D01*
X80904Y-63827D01*
X80928Y-63775D01*
X80952Y-63748D01*
X81000Y-63722D01*
X81761Y-64272D02*
X81761Y-63722D01*
X81809Y-64063D02*
X81952Y-64272D01*
X81952Y-63905D02*
X81761Y-64115D01*
X82261Y-63722D02*
X82357Y-63722D01*
X82404Y-63748D01*
X82452Y-63801D01*
X82476Y-63905D01*
X82476Y-64089D01*
X82452Y-64194D01*
X82404Y-64246D01*
X82357Y-64272D01*
X82261Y-64272D01*
X82214Y-64246D01*
X82166Y-64194D01*
X82142Y-64089D01*
X82142Y-63905D01*
X82166Y-63801D01*
X82214Y-63748D01*
X82261Y-63722D01*
X82690Y-64272D02*
X82690Y-63722D01*
X82904Y-64272D02*
X82904Y-63984D01*
X82880Y-63932D01*
X82833Y-63905D01*
X82761Y-63905D01*
X82714Y-63932D01*
X82690Y-63958D01*
X83142Y-64272D02*
X83142Y-63905D01*
X83142Y-63958D02*
X83166Y-63932D01*
X83214Y-63905D01*
X83285Y-63905D01*
X83333Y-63932D01*
X83357Y-63984D01*
X83357Y-64272D01*
X83357Y-63984D02*
X83380Y-63932D01*
X83428Y-63905D01*
X83500Y-63905D01*
X83547Y-63932D01*
X83571Y-63984D01*
X83571Y-64272D01*
X80766Y-59972D02*
X80600Y-59710D01*
X80480Y-59972D02*
X80480Y-59422D01*
X80671Y-59422D01*
X80719Y-59448D01*
X80742Y-59475D01*
X80766Y-59527D01*
X80766Y-59605D01*
X80742Y-59658D01*
X80719Y-59684D01*
X80671Y-59710D01*
X80480Y-59710D01*
X81195Y-59605D02*
X81195Y-59972D01*
X81076Y-59396D02*
X80957Y-59789D01*
X81266Y-59789D01*
X80654Y-60722D02*
X80369Y-60722D01*
X80511Y-60722D02*
X80511Y-60172D01*
X80464Y-60251D01*
X80416Y-60303D01*
X80369Y-60329D01*
X80964Y-60172D02*
X81011Y-60172D01*
X81059Y-60198D01*
X81083Y-60225D01*
X81107Y-60277D01*
X81130Y-60382D01*
X81130Y-60513D01*
X81107Y-60617D01*
X81083Y-60670D01*
X81059Y-60696D01*
X81011Y-60722D01*
X80964Y-60722D01*
X80916Y-60696D01*
X80892Y-60670D01*
X80869Y-60617D01*
X80845Y-60513D01*
X80845Y-60382D01*
X80869Y-60277D01*
X80892Y-60225D01*
X80916Y-60198D01*
X80964Y-60172D01*
X81440Y-60172D02*
X81488Y-60172D01*
X81535Y-60198D01*
X81559Y-60225D01*
X81583Y-60277D01*
X81607Y-60382D01*
X81607Y-60513D01*
X81583Y-60617D01*
X81559Y-60670D01*
X81535Y-60696D01*
X81488Y-60722D01*
X81440Y-60722D01*
X81392Y-60696D01*
X81369Y-60670D01*
X81345Y-60617D01*
X81321Y-60513D01*
X81321Y-60382D01*
X81345Y-60277D01*
X81369Y-60225D01*
X81392Y-60198D01*
X81440Y-60172D01*
X82297Y-60172D02*
X82392Y-60172D01*
X82440Y-60198D01*
X82488Y-60251D01*
X82511Y-60355D01*
X82511Y-60539D01*
X82488Y-60644D01*
X82440Y-60696D01*
X82392Y-60722D01*
X82297Y-60722D01*
X82250Y-60696D01*
X82202Y-60644D01*
X82178Y-60539D01*
X82178Y-60355D01*
X82202Y-60251D01*
X82250Y-60198D01*
X82297Y-60172D01*
X82726Y-60722D02*
X82726Y-60172D01*
X82940Y-60722D02*
X82940Y-60434D01*
X82916Y-60382D01*
X82869Y-60355D01*
X82797Y-60355D01*
X82750Y-60382D01*
X82726Y-60408D01*
X83178Y-60722D02*
X83178Y-60355D01*
X83178Y-60408D02*
X83202Y-60382D01*
X83250Y-60355D01*
X83321Y-60355D01*
X83369Y-60382D01*
X83392Y-60434D01*
X83392Y-60722D01*
X83392Y-60434D02*
X83416Y-60382D01*
X83464Y-60355D01*
X83535Y-60355D01*
X83583Y-60382D01*
X83607Y-60434D01*
X83607Y-60722D01*
X85566Y-76222D02*
X85400Y-75960D01*
X85280Y-76222D02*
X85280Y-75672D01*
X85471Y-75672D01*
X85519Y-75698D01*
X85542Y-75725D01*
X85566Y-75777D01*
X85566Y-75855D01*
X85542Y-75908D01*
X85519Y-75934D01*
X85471Y-75960D01*
X85280Y-75960D01*
X86019Y-75672D02*
X85780Y-75672D01*
X85757Y-75934D01*
X85780Y-75908D01*
X85828Y-75882D01*
X85947Y-75882D01*
X85995Y-75908D01*
X86019Y-75934D01*
X86042Y-75986D01*
X86042Y-76117D01*
X86019Y-76170D01*
X85995Y-76196D01*
X85947Y-76222D01*
X85828Y-76222D01*
X85780Y-76196D01*
X85757Y-76170D01*
X86654Y-76172D02*
X86369Y-76172D01*
X86511Y-76172D02*
X86511Y-75622D01*
X86464Y-75701D01*
X86416Y-75753D01*
X86369Y-75779D01*
X86964Y-75622D02*
X87011Y-75622D01*
X87059Y-75648D01*
X87083Y-75675D01*
X87107Y-75727D01*
X87130Y-75832D01*
X87130Y-75963D01*
X87107Y-76067D01*
X87083Y-76120D01*
X87059Y-76146D01*
X87011Y-76172D01*
X86964Y-76172D01*
X86916Y-76146D01*
X86892Y-76120D01*
X86869Y-76067D01*
X86845Y-75963D01*
X86845Y-75832D01*
X86869Y-75727D01*
X86892Y-75675D01*
X86916Y-75648D01*
X86964Y-75622D01*
X87440Y-75622D02*
X87488Y-75622D01*
X87535Y-75648D01*
X87559Y-75675D01*
X87583Y-75727D01*
X87607Y-75832D01*
X87607Y-75963D01*
X87583Y-76067D01*
X87559Y-76120D01*
X87535Y-76146D01*
X87488Y-76172D01*
X87440Y-76172D01*
X87392Y-76146D01*
X87369Y-76120D01*
X87345Y-76067D01*
X87321Y-75963D01*
X87321Y-75832D01*
X87345Y-75727D01*
X87369Y-75675D01*
X87392Y-75648D01*
X87440Y-75622D01*
X88297Y-75622D02*
X88392Y-75622D01*
X88440Y-75648D01*
X88488Y-75701D01*
X88511Y-75805D01*
X88511Y-75989D01*
X88488Y-76094D01*
X88440Y-76146D01*
X88392Y-76172D01*
X88297Y-76172D01*
X88250Y-76146D01*
X88202Y-76094D01*
X88178Y-75989D01*
X88178Y-75805D01*
X88202Y-75701D01*
X88250Y-75648D01*
X88297Y-75622D01*
X88726Y-76172D02*
X88726Y-75622D01*
X88940Y-76172D02*
X88940Y-75884D01*
X88916Y-75832D01*
X88869Y-75805D01*
X88797Y-75805D01*
X88750Y-75832D01*
X88726Y-75858D01*
X89178Y-76172D02*
X89178Y-75805D01*
X89178Y-75858D02*
X89202Y-75832D01*
X89250Y-75805D01*
X89321Y-75805D01*
X89369Y-75832D01*
X89392Y-75884D01*
X89392Y-76172D01*
X89392Y-75884D02*
X89416Y-75832D01*
X89464Y-75805D01*
X89535Y-75805D01*
X89583Y-75832D01*
X89607Y-75884D01*
X89607Y-76172D01*
X86014Y-71761D02*
X86014Y-71361D01*
X86166Y-71361D01*
X86204Y-71380D01*
X86223Y-71400D01*
X86242Y-71438D01*
X86242Y-71495D01*
X86223Y-71533D01*
X86204Y-71552D01*
X86166Y-71571D01*
X86014Y-71571D01*
X86623Y-71761D02*
X86395Y-71761D01*
X86509Y-71761D02*
X86509Y-71361D01*
X86471Y-71419D01*
X86433Y-71457D01*
X86395Y-71476D01*
X86852Y-71533D02*
X86814Y-71514D01*
X86795Y-71495D01*
X86776Y-71457D01*
X86776Y-71438D01*
X86795Y-71400D01*
X86814Y-71380D01*
X86852Y-71361D01*
X86928Y-71361D01*
X86966Y-71380D01*
X86985Y-71400D01*
X87004Y-71438D01*
X87004Y-71457D01*
X86985Y-71495D01*
X86966Y-71514D01*
X86928Y-71533D01*
X86852Y-71533D01*
X86814Y-71552D01*
X86795Y-71571D01*
X86776Y-71609D01*
X86776Y-71685D01*
X86795Y-71723D01*
X86814Y-71742D01*
X86852Y-71761D01*
X86928Y-71761D01*
X86966Y-71742D01*
X86985Y-71723D01*
X87004Y-71685D01*
X87004Y-71609D01*
X86985Y-71571D01*
X86966Y-71552D01*
X86928Y-71533D01*
X85652Y-69723D02*
X85633Y-69742D01*
X85576Y-69761D01*
X85538Y-69761D01*
X85480Y-69742D01*
X85442Y-69704D01*
X85423Y-69666D01*
X85404Y-69590D01*
X85404Y-69533D01*
X85423Y-69457D01*
X85442Y-69419D01*
X85480Y-69380D01*
X85538Y-69361D01*
X85576Y-69361D01*
X85633Y-69380D01*
X85652Y-69400D01*
X85900Y-69361D02*
X85976Y-69361D01*
X86014Y-69380D01*
X86052Y-69419D01*
X86071Y-69495D01*
X86071Y-69628D01*
X86052Y-69704D01*
X86014Y-69742D01*
X85976Y-69761D01*
X85900Y-69761D01*
X85861Y-69742D01*
X85823Y-69704D01*
X85804Y-69628D01*
X85804Y-69495D01*
X85823Y-69419D01*
X85861Y-69380D01*
X85900Y-69361D01*
X86242Y-69761D02*
X86242Y-69361D01*
X86471Y-69761D01*
X86471Y-69361D01*
X86661Y-69761D02*
X86661Y-69361D01*
X86890Y-69761D01*
X86890Y-69361D01*
X86985Y-69800D02*
X87290Y-69800D01*
X87557Y-69495D02*
X87557Y-69761D01*
X87461Y-69342D02*
X87366Y-69628D01*
X87614Y-69628D01*
M02*
