G04 (created by PCBNEW (2013-07-07 BZR 4022)-stable) date 12/21/2016 7:44:19 PM*
%MOIN*%
G04 Gerber Fmt 3.4, Leading zero omitted, Abs format*
%FSLAX34Y34*%
G01*
G70*
G90*
G04 APERTURE LIST*
%ADD10C,0.005*%
%ADD11C,0.00393701*%
%ADD12C,0.00787402*%
%ADD13C,0.011811*%
G04 APERTURE END LIST*
G54D10*
G54D11*
X107750Y-52700D02*
X107750Y-79050D01*
X73600Y-79050D02*
X107750Y-79050D01*
X73600Y-52700D02*
X73600Y-79050D01*
X107750Y-52700D02*
X73600Y-52700D01*
G54D12*
X74590Y-68090D02*
X74910Y-68410D01*
X74910Y-68090D02*
X74590Y-68410D01*
X74590Y-71090D02*
X74910Y-71410D01*
X74910Y-71090D02*
X74590Y-71410D01*
X75590Y-68090D02*
X75910Y-68410D01*
X75910Y-68090D02*
X75590Y-68410D01*
X75590Y-71090D02*
X75910Y-71410D01*
X75910Y-71090D02*
X75590Y-71410D01*
X77840Y-54390D02*
X78160Y-54710D01*
X78160Y-54390D02*
X77840Y-54710D01*
X78840Y-54390D02*
X79160Y-54710D01*
X79160Y-54390D02*
X78840Y-54710D01*
X79840Y-54390D02*
X80160Y-54710D01*
X80160Y-54390D02*
X79840Y-54710D01*
X80340Y-60390D02*
X80660Y-60710D01*
X80660Y-60390D02*
X80340Y-60710D01*
X80340Y-61340D02*
X80660Y-61660D01*
X80660Y-61340D02*
X80340Y-61660D01*
X80340Y-62840D02*
X80660Y-63160D01*
X80660Y-62840D02*
X80340Y-63160D01*
X80340Y-63840D02*
X80660Y-64160D01*
X80660Y-63840D02*
X80340Y-64160D01*
X80840Y-54390D02*
X81160Y-54710D01*
X81160Y-54390D02*
X80840Y-54710D01*
X81590Y-68090D02*
X81910Y-68410D01*
X81910Y-68090D02*
X81590Y-68410D01*
X81590Y-71090D02*
X81910Y-71410D01*
X81910Y-71090D02*
X81590Y-71410D01*
X81840Y-54390D02*
X82160Y-54710D01*
X82160Y-54390D02*
X81840Y-54710D01*
X82590Y-68090D02*
X82910Y-68410D01*
X82910Y-68090D02*
X82590Y-68410D01*
X82590Y-71090D02*
X82910Y-71410D01*
X82910Y-71090D02*
X82590Y-71410D01*
X82840Y-54390D02*
X83160Y-54710D01*
X83160Y-54390D02*
X82840Y-54710D01*
X83340Y-60390D02*
X83660Y-60710D01*
X83660Y-60390D02*
X83340Y-60710D01*
X83340Y-61340D02*
X83660Y-61660D01*
X83660Y-61340D02*
X83340Y-61660D01*
X83340Y-62840D02*
X83660Y-63160D01*
X83660Y-62840D02*
X83340Y-63160D01*
X83340Y-63840D02*
X83660Y-64160D01*
X83660Y-63840D02*
X83340Y-64160D01*
X83840Y-73340D02*
X84160Y-73660D01*
X84160Y-73340D02*
X83840Y-73660D01*
X83840Y-74340D02*
X84160Y-74660D01*
X84160Y-74340D02*
X83840Y-74660D01*
X84840Y-61340D02*
X85160Y-61660D01*
X85160Y-61340D02*
X84840Y-61660D01*
X84840Y-67340D02*
X85160Y-67660D01*
X85160Y-67340D02*
X84840Y-67660D01*
X84840Y-73340D02*
X85160Y-73660D01*
X85160Y-73340D02*
X84840Y-73660D01*
X84840Y-74340D02*
X85160Y-74660D01*
X85160Y-74340D02*
X84840Y-74660D01*
X85840Y-54390D02*
X86160Y-54710D01*
X86160Y-54390D02*
X85840Y-54710D01*
X85840Y-61340D02*
X86160Y-61660D01*
X86160Y-61340D02*
X85840Y-61660D01*
X85840Y-67340D02*
X86160Y-67660D01*
X86160Y-67340D02*
X85840Y-67660D01*
X85840Y-73340D02*
X86160Y-73660D01*
X86160Y-73340D02*
X85840Y-73660D01*
X85840Y-74340D02*
X86160Y-74660D01*
X86160Y-74340D02*
X85840Y-74660D01*
X86340Y-75840D02*
X86660Y-76160D01*
X86660Y-75840D02*
X86340Y-76160D01*
X86840Y-54390D02*
X87160Y-54710D01*
X87160Y-54390D02*
X86840Y-54710D01*
X86840Y-61340D02*
X87160Y-61660D01*
X87160Y-61340D02*
X86840Y-61660D01*
X86840Y-67340D02*
X87160Y-67660D01*
X87160Y-67340D02*
X86840Y-67660D01*
X86840Y-73340D02*
X87160Y-73660D01*
X87160Y-73340D02*
X86840Y-73660D01*
X86840Y-74340D02*
X87160Y-74660D01*
X87160Y-74340D02*
X86840Y-74660D01*
X87840Y-54390D02*
X88160Y-54710D01*
X88160Y-54390D02*
X87840Y-54710D01*
X87840Y-61340D02*
X88160Y-61660D01*
X88160Y-61340D02*
X87840Y-61660D01*
X87840Y-67340D02*
X88160Y-67660D01*
X88160Y-67340D02*
X87840Y-67660D01*
X87840Y-73340D02*
X88160Y-73660D01*
X88160Y-73340D02*
X87840Y-73660D01*
X87840Y-74340D02*
X88160Y-74660D01*
X88160Y-74340D02*
X87840Y-74660D01*
X88840Y-54390D02*
X89160Y-54710D01*
X89160Y-54390D02*
X88840Y-54710D01*
X88840Y-61340D02*
X89160Y-61660D01*
X89160Y-61340D02*
X88840Y-61660D01*
X88840Y-67340D02*
X89160Y-67660D01*
X89160Y-67340D02*
X88840Y-67660D01*
X88840Y-73340D02*
X89160Y-73660D01*
X89160Y-73340D02*
X88840Y-73660D01*
X88840Y-74340D02*
X89160Y-74660D01*
X89160Y-74340D02*
X88840Y-74660D01*
X89340Y-75840D02*
X89660Y-76160D01*
X89660Y-75840D02*
X89340Y-76160D01*
X89840Y-54390D02*
X90160Y-54710D01*
X90160Y-54390D02*
X89840Y-54710D01*
X89840Y-61340D02*
X90160Y-61660D01*
X90160Y-61340D02*
X89840Y-61660D01*
X89840Y-67340D02*
X90160Y-67660D01*
X90160Y-67340D02*
X89840Y-67660D01*
X89840Y-73340D02*
X90160Y-73660D01*
X90160Y-73340D02*
X89840Y-73660D01*
X89840Y-74340D02*
X90160Y-74660D01*
X90160Y-74340D02*
X89840Y-74660D01*
X90840Y-54390D02*
X91160Y-54710D01*
X91160Y-54390D02*
X90840Y-54710D01*
X90840Y-61340D02*
X91160Y-61660D01*
X91160Y-61340D02*
X90840Y-61660D01*
X90840Y-67340D02*
X91160Y-67660D01*
X91160Y-67340D02*
X90840Y-67660D01*
X90840Y-73340D02*
X91160Y-73660D01*
X91160Y-73340D02*
X90840Y-73660D01*
X90840Y-74340D02*
X91160Y-74660D01*
X91160Y-74340D02*
X90840Y-74660D01*
X91840Y-54390D02*
X92160Y-54710D01*
X92160Y-54390D02*
X91840Y-54710D01*
X91840Y-61340D02*
X92160Y-61660D01*
X92160Y-61340D02*
X91840Y-61660D01*
X91840Y-67340D02*
X92160Y-67660D01*
X92160Y-67340D02*
X91840Y-67660D01*
X91840Y-73340D02*
X92160Y-73660D01*
X92160Y-73340D02*
X91840Y-73660D01*
X91840Y-74340D02*
X92160Y-74660D01*
X92160Y-74340D02*
X91840Y-74660D01*
X91840Y-75840D02*
X92160Y-76160D01*
X92160Y-75840D02*
X91840Y-76160D01*
X92840Y-54390D02*
X93160Y-54710D01*
X93160Y-54390D02*
X92840Y-54710D01*
X92840Y-61340D02*
X93160Y-61660D01*
X93160Y-61340D02*
X92840Y-61660D01*
X92840Y-67340D02*
X93160Y-67660D01*
X93160Y-67340D02*
X92840Y-67660D01*
X92840Y-73340D02*
X93160Y-73660D01*
X93160Y-73340D02*
X92840Y-73660D01*
X92840Y-74340D02*
X93160Y-74660D01*
X93160Y-74340D02*
X92840Y-74660D01*
X92840Y-75840D02*
X93160Y-76160D01*
X93160Y-75840D02*
X92840Y-76160D01*
X93840Y-54390D02*
X94160Y-54710D01*
X94160Y-54390D02*
X93840Y-54710D01*
X93840Y-61340D02*
X94160Y-61660D01*
X94160Y-61340D02*
X93840Y-61660D01*
X93840Y-67340D02*
X94160Y-67660D01*
X94160Y-67340D02*
X93840Y-67660D01*
X94840Y-61340D02*
X95160Y-61660D01*
X95160Y-61340D02*
X94840Y-61660D01*
X94840Y-67340D02*
X95160Y-67660D01*
X95160Y-67340D02*
X94840Y-67660D01*
X95840Y-61340D02*
X96160Y-61660D01*
X96160Y-61340D02*
X95840Y-61660D01*
X95840Y-67340D02*
X96160Y-67660D01*
X96160Y-67340D02*
X95840Y-67660D01*
X96840Y-61340D02*
X97160Y-61660D01*
X97160Y-61340D02*
X96840Y-61660D01*
X96840Y-67340D02*
X97160Y-67660D01*
X97160Y-67340D02*
X96840Y-67660D01*
X96840Y-72840D02*
X97160Y-73160D01*
X97160Y-72840D02*
X96840Y-73160D01*
X96840Y-76840D02*
X97160Y-77160D01*
X97160Y-76840D02*
X96840Y-77160D01*
X97840Y-54390D02*
X98160Y-54710D01*
X98160Y-54390D02*
X97840Y-54710D01*
X97840Y-57040D02*
X98160Y-57360D01*
X98160Y-57040D02*
X97840Y-57360D01*
X97840Y-61340D02*
X98160Y-61660D01*
X98160Y-61340D02*
X97840Y-61660D01*
X97840Y-67340D02*
X98160Y-67660D01*
X98160Y-67340D02*
X97840Y-67660D01*
X97840Y-72840D02*
X98160Y-73160D01*
X98160Y-72840D02*
X97840Y-73160D01*
X97840Y-76840D02*
X98160Y-77160D01*
X98160Y-76840D02*
X97840Y-77160D01*
X98840Y-54390D02*
X99160Y-54710D01*
X99160Y-54390D02*
X98840Y-54710D01*
X98840Y-57040D02*
X99160Y-57360D01*
X99160Y-57040D02*
X98840Y-57360D01*
X98840Y-61340D02*
X99160Y-61660D01*
X99160Y-61340D02*
X98840Y-61660D01*
X98840Y-67340D02*
X99160Y-67660D01*
X99160Y-67340D02*
X98840Y-67660D01*
X98840Y-72840D02*
X99160Y-73160D01*
X99160Y-72840D02*
X98840Y-73160D01*
X98840Y-76840D02*
X99160Y-77160D01*
X99160Y-76840D02*
X98840Y-77160D01*
X99840Y-54390D02*
X100160Y-54710D01*
X100160Y-54390D02*
X99840Y-54710D01*
X99840Y-57040D02*
X100160Y-57360D01*
X100160Y-57040D02*
X99840Y-57360D01*
X99840Y-61340D02*
X100160Y-61660D01*
X100160Y-61340D02*
X99840Y-61660D01*
X99840Y-67340D02*
X100160Y-67660D01*
X100160Y-67340D02*
X99840Y-67660D01*
X99840Y-72840D02*
X100160Y-73160D01*
X100160Y-72840D02*
X99840Y-73160D01*
X99840Y-76840D02*
X100160Y-77160D01*
X100160Y-76840D02*
X99840Y-77160D01*
X100840Y-54390D02*
X101160Y-54710D01*
X101160Y-54390D02*
X100840Y-54710D01*
X100840Y-57040D02*
X101160Y-57360D01*
X101160Y-57040D02*
X100840Y-57360D01*
X100840Y-61340D02*
X101160Y-61660D01*
X101160Y-61340D02*
X100840Y-61660D01*
X100840Y-67340D02*
X101160Y-67660D01*
X101160Y-67340D02*
X100840Y-67660D01*
X100840Y-72840D02*
X101160Y-73160D01*
X101160Y-72840D02*
X100840Y-73160D01*
X100840Y-76840D02*
X101160Y-77160D01*
X101160Y-76840D02*
X100840Y-77160D01*
X101840Y-54390D02*
X102160Y-54710D01*
X102160Y-54390D02*
X101840Y-54710D01*
X101840Y-57040D02*
X102160Y-57360D01*
X102160Y-57040D02*
X101840Y-57360D01*
X101840Y-61340D02*
X102160Y-61660D01*
X102160Y-61340D02*
X101840Y-61660D01*
X101840Y-67340D02*
X102160Y-67660D01*
X102160Y-67340D02*
X101840Y-67660D01*
X101840Y-72840D02*
X102160Y-73160D01*
X102160Y-72840D02*
X101840Y-73160D01*
X101840Y-76840D02*
X102160Y-77160D01*
X102160Y-76840D02*
X101840Y-77160D01*
X102840Y-54390D02*
X103160Y-54710D01*
X103160Y-54390D02*
X102840Y-54710D01*
X102840Y-57040D02*
X103160Y-57360D01*
X103160Y-57040D02*
X102840Y-57360D01*
X102840Y-61340D02*
X103160Y-61660D01*
X103160Y-61340D02*
X102840Y-61660D01*
X102840Y-67340D02*
X103160Y-67660D01*
X103160Y-67340D02*
X102840Y-67660D01*
X102840Y-72840D02*
X103160Y-73160D01*
X103160Y-72840D02*
X102840Y-73160D01*
X102840Y-76840D02*
X103160Y-77160D01*
X103160Y-76840D02*
X102840Y-77160D01*
X103840Y-54390D02*
X104160Y-54710D01*
X104160Y-54390D02*
X103840Y-54710D01*
X103840Y-57040D02*
X104160Y-57360D01*
X104160Y-57040D02*
X103840Y-57360D01*
X103840Y-61340D02*
X104160Y-61660D01*
X104160Y-61340D02*
X103840Y-61660D01*
X103840Y-67340D02*
X104160Y-67660D01*
X104160Y-67340D02*
X103840Y-67660D01*
X85200Y-70600D02*
G75*
G03X85200Y-70600I-200J0D01*
G74*
G01*
X86200Y-70600D02*
G75*
G03X86200Y-70600I-200J0D01*
G74*
G01*
X87200Y-70600D02*
G75*
G03X87200Y-70600I-200J0D01*
G74*
G01*
X88200Y-70600D02*
G75*
G03X88200Y-70600I-200J0D01*
G74*
G01*
X74750Y-53200D02*
X74750Y-54400D01*
X74150Y-53800D02*
X75350Y-53800D01*
X74800Y-77350D02*
X74800Y-78550D01*
X74200Y-77950D02*
X75400Y-77950D01*
X106550Y-53300D02*
X106550Y-54500D01*
X105950Y-53900D02*
X107150Y-53900D01*
X106600Y-77300D02*
X106600Y-78500D01*
X106000Y-77900D02*
X107200Y-77900D01*
G54D13*
X74648Y-80846D02*
X74648Y-79665D01*
X74930Y-79665D01*
X75098Y-79722D01*
X75211Y-79834D01*
X75267Y-79947D01*
X75323Y-80172D01*
X75323Y-80340D01*
X75267Y-80565D01*
X75211Y-80678D01*
X75098Y-80790D01*
X74930Y-80846D01*
X74648Y-80846D01*
X75830Y-80846D02*
X75830Y-80059D01*
X75830Y-80284D02*
X75886Y-80172D01*
X75942Y-80115D01*
X76055Y-80059D01*
X76167Y-80059D01*
X76561Y-80846D02*
X76561Y-80059D01*
X76561Y-79665D02*
X76504Y-79722D01*
X76561Y-79778D01*
X76617Y-79722D01*
X76561Y-79665D01*
X76561Y-79778D01*
X77292Y-80846D02*
X77179Y-80790D01*
X77123Y-80678D01*
X77123Y-79665D01*
X77911Y-80846D02*
X77798Y-80790D01*
X77742Y-80678D01*
X77742Y-79665D01*
X79260Y-80846D02*
X79260Y-79665D01*
X79654Y-80509D01*
X80048Y-79665D01*
X80048Y-80846D01*
X81116Y-80846D02*
X81116Y-80228D01*
X81060Y-80115D01*
X80948Y-80059D01*
X80723Y-80059D01*
X80610Y-80115D01*
X81116Y-80790D02*
X81004Y-80846D01*
X80723Y-80846D01*
X80610Y-80790D01*
X80554Y-80678D01*
X80554Y-80565D01*
X80610Y-80453D01*
X80723Y-80397D01*
X81004Y-80397D01*
X81116Y-80340D01*
X81679Y-80059D02*
X81679Y-81240D01*
X81679Y-80115D02*
X81791Y-80059D01*
X82016Y-80059D01*
X82129Y-80115D01*
X82185Y-80172D01*
X82241Y-80284D01*
X82241Y-80621D01*
X82185Y-80734D01*
X82129Y-80790D01*
X82016Y-80846D01*
X81791Y-80846D01*
X81679Y-80790D01*
X82747Y-80734D02*
X82804Y-80790D01*
X82747Y-80846D01*
X82691Y-80790D01*
X82747Y-80734D01*
X82747Y-80846D01*
X82747Y-80115D02*
X82804Y-80172D01*
X82747Y-80228D01*
X82691Y-80172D01*
X82747Y-80115D01*
X82747Y-80228D01*
X73260Y-82689D02*
X73580Y-83009D01*
X73580Y-82689D02*
X73260Y-83009D01*
X74873Y-82146D02*
X74986Y-82146D01*
X75098Y-82202D01*
X75155Y-82258D01*
X75211Y-82371D01*
X75267Y-82596D01*
X75267Y-82877D01*
X75211Y-83102D01*
X75155Y-83214D01*
X75098Y-83271D01*
X74986Y-83327D01*
X74873Y-83327D01*
X74761Y-83271D01*
X74705Y-83214D01*
X74648Y-83102D01*
X74592Y-82877D01*
X74592Y-82596D01*
X74648Y-82371D01*
X74705Y-82258D01*
X74761Y-82202D01*
X74873Y-82146D01*
X75773Y-83214D02*
X75830Y-83271D01*
X75773Y-83327D01*
X75717Y-83271D01*
X75773Y-83214D01*
X75773Y-83327D01*
X76504Y-82652D02*
X76392Y-82596D01*
X76336Y-82539D01*
X76279Y-82427D01*
X76279Y-82371D01*
X76336Y-82258D01*
X76392Y-82202D01*
X76504Y-82146D01*
X76729Y-82146D01*
X76842Y-82202D01*
X76898Y-82258D01*
X76954Y-82371D01*
X76954Y-82427D01*
X76898Y-82539D01*
X76842Y-82596D01*
X76729Y-82652D01*
X76504Y-82652D01*
X76392Y-82708D01*
X76336Y-82764D01*
X76279Y-82877D01*
X76279Y-83102D01*
X76336Y-83214D01*
X76392Y-83271D01*
X76504Y-83327D01*
X76729Y-83327D01*
X76842Y-83271D01*
X76898Y-83214D01*
X76954Y-83102D01*
X76954Y-82877D01*
X76898Y-82764D01*
X76842Y-82708D01*
X76729Y-82652D01*
X78079Y-83327D02*
X77404Y-83327D01*
X77742Y-83327D02*
X77742Y-82146D01*
X77629Y-82314D01*
X77517Y-82427D01*
X77404Y-82483D01*
X78585Y-83327D02*
X78585Y-82539D01*
X78585Y-82652D02*
X78642Y-82596D01*
X78754Y-82539D01*
X78923Y-82539D01*
X79035Y-82596D01*
X79092Y-82708D01*
X79092Y-83327D01*
X79092Y-82708D02*
X79148Y-82596D01*
X79260Y-82539D01*
X79429Y-82539D01*
X79542Y-82596D01*
X79598Y-82708D01*
X79598Y-83327D01*
X80160Y-83327D02*
X80160Y-82539D01*
X80160Y-82652D02*
X80216Y-82596D01*
X80329Y-82539D01*
X80498Y-82539D01*
X80610Y-82596D01*
X80666Y-82708D01*
X80666Y-83327D01*
X80666Y-82708D02*
X80723Y-82596D01*
X80835Y-82539D01*
X81004Y-82539D01*
X81116Y-82596D01*
X81173Y-82708D01*
X81173Y-83327D01*
X83479Y-82089D02*
X82466Y-83608D01*
X84997Y-82146D02*
X85110Y-82146D01*
X85222Y-82202D01*
X85278Y-82258D01*
X85335Y-82371D01*
X85391Y-82596D01*
X85391Y-82877D01*
X85335Y-83102D01*
X85278Y-83214D01*
X85222Y-83271D01*
X85110Y-83327D01*
X84997Y-83327D01*
X84885Y-83271D01*
X84828Y-83214D01*
X84772Y-83102D01*
X84716Y-82877D01*
X84716Y-82596D01*
X84772Y-82371D01*
X84828Y-82258D01*
X84885Y-82202D01*
X84997Y-82146D01*
X85897Y-83214D02*
X85953Y-83271D01*
X85897Y-83327D01*
X85841Y-83271D01*
X85897Y-83214D01*
X85897Y-83327D01*
X86684Y-82146D02*
X86797Y-82146D01*
X86909Y-82202D01*
X86966Y-82258D01*
X87022Y-82371D01*
X87078Y-82596D01*
X87078Y-82877D01*
X87022Y-83102D01*
X86966Y-83214D01*
X86909Y-83271D01*
X86797Y-83327D01*
X86684Y-83327D01*
X86572Y-83271D01*
X86516Y-83214D01*
X86459Y-83102D01*
X86403Y-82877D01*
X86403Y-82596D01*
X86459Y-82371D01*
X86516Y-82258D01*
X86572Y-82202D01*
X86684Y-82146D01*
X87472Y-82146D02*
X88203Y-82146D01*
X87809Y-82596D01*
X87978Y-82596D01*
X88091Y-82652D01*
X88147Y-82708D01*
X88203Y-82821D01*
X88203Y-83102D01*
X88147Y-83214D01*
X88091Y-83271D01*
X87978Y-83327D01*
X87641Y-83327D01*
X87528Y-83271D01*
X87472Y-83214D01*
X88653Y-82258D02*
X88709Y-82202D01*
X88822Y-82146D01*
X89103Y-82146D01*
X89215Y-82202D01*
X89272Y-82258D01*
X89328Y-82371D01*
X89328Y-82483D01*
X89272Y-82652D01*
X88597Y-83327D01*
X89328Y-83327D01*
X89778Y-82146D02*
X89778Y-82371D01*
X90228Y-82146D02*
X90228Y-82371D01*
X91971Y-83777D02*
X91915Y-83720D01*
X91803Y-83552D01*
X91746Y-83439D01*
X91690Y-83271D01*
X91634Y-82989D01*
X91634Y-82764D01*
X91690Y-82483D01*
X91746Y-82314D01*
X91803Y-82202D01*
X91915Y-82033D01*
X91971Y-81977D01*
X93040Y-83327D02*
X92365Y-83327D01*
X92702Y-83327D02*
X92702Y-82146D01*
X92590Y-82314D01*
X92477Y-82427D01*
X92365Y-82483D01*
X93490Y-82258D02*
X93546Y-82202D01*
X93659Y-82146D01*
X93940Y-82146D01*
X94052Y-82202D01*
X94108Y-82258D01*
X94165Y-82371D01*
X94165Y-82483D01*
X94108Y-82652D01*
X93434Y-83327D01*
X94165Y-83327D01*
X94558Y-82146D02*
X95290Y-82146D01*
X94896Y-82596D01*
X95065Y-82596D01*
X95177Y-82652D01*
X95233Y-82708D01*
X95290Y-82821D01*
X95290Y-83102D01*
X95233Y-83214D01*
X95177Y-83271D01*
X95065Y-83327D01*
X94727Y-83327D01*
X94615Y-83271D01*
X94558Y-83214D01*
X96696Y-83327D02*
X96696Y-82146D01*
X97202Y-83327D02*
X97202Y-82708D01*
X97146Y-82596D01*
X97033Y-82539D01*
X96864Y-82539D01*
X96752Y-82596D01*
X96696Y-82652D01*
X97933Y-83327D02*
X97821Y-83271D01*
X97764Y-83214D01*
X97708Y-83102D01*
X97708Y-82764D01*
X97764Y-82652D01*
X97821Y-82596D01*
X97933Y-82539D01*
X98102Y-82539D01*
X98214Y-82596D01*
X98270Y-82652D01*
X98327Y-82764D01*
X98327Y-83102D01*
X98270Y-83214D01*
X98214Y-83271D01*
X98102Y-83327D01*
X97933Y-83327D01*
X99002Y-83327D02*
X98889Y-83271D01*
X98833Y-83158D01*
X98833Y-82146D01*
X99902Y-83271D02*
X99789Y-83327D01*
X99564Y-83327D01*
X99452Y-83271D01*
X99395Y-83158D01*
X99395Y-82708D01*
X99452Y-82596D01*
X99564Y-82539D01*
X99789Y-82539D01*
X99902Y-82596D01*
X99958Y-82708D01*
X99958Y-82821D01*
X99395Y-82933D01*
X100408Y-83271D02*
X100520Y-83327D01*
X100745Y-83327D01*
X100858Y-83271D01*
X100914Y-83158D01*
X100914Y-83102D01*
X100858Y-82989D01*
X100745Y-82933D01*
X100576Y-82933D01*
X100464Y-82877D01*
X100408Y-82764D01*
X100408Y-82708D01*
X100464Y-82596D01*
X100576Y-82539D01*
X100745Y-82539D01*
X100858Y-82596D01*
X101308Y-83777D02*
X101364Y-83720D01*
X101476Y-83552D01*
X101533Y-83439D01*
X101589Y-83271D01*
X101645Y-82989D01*
X101645Y-82764D01*
X101589Y-82483D01*
X101533Y-82314D01*
X101476Y-82202D01*
X101364Y-82033D01*
X101308Y-81977D01*
G54D12*
X73580Y-84408D02*
G75*
G03X73580Y-84408I-200J0D01*
G74*
G01*
G54D13*
X75267Y-84886D02*
X74592Y-84886D01*
X74930Y-84886D02*
X74930Y-83705D01*
X74817Y-83873D01*
X74705Y-83986D01*
X74592Y-84042D01*
X75773Y-84773D02*
X75830Y-84830D01*
X75773Y-84886D01*
X75717Y-84830D01*
X75773Y-84773D01*
X75773Y-84886D01*
X76561Y-83705D02*
X76673Y-83705D01*
X76786Y-83761D01*
X76842Y-83817D01*
X76898Y-83930D01*
X76954Y-84155D01*
X76954Y-84436D01*
X76898Y-84661D01*
X76842Y-84773D01*
X76786Y-84830D01*
X76673Y-84886D01*
X76561Y-84886D01*
X76448Y-84830D01*
X76392Y-84773D01*
X76336Y-84661D01*
X76279Y-84436D01*
X76279Y-84155D01*
X76336Y-83930D01*
X76392Y-83817D01*
X76448Y-83761D01*
X76561Y-83705D01*
X77404Y-83817D02*
X77461Y-83761D01*
X77573Y-83705D01*
X77854Y-83705D01*
X77967Y-83761D01*
X78023Y-83817D01*
X78079Y-83930D01*
X78079Y-84042D01*
X78023Y-84211D01*
X77348Y-84886D01*
X78079Y-84886D01*
X78585Y-84886D02*
X78585Y-84098D01*
X78585Y-84211D02*
X78642Y-84155D01*
X78754Y-84098D01*
X78923Y-84098D01*
X79035Y-84155D01*
X79092Y-84267D01*
X79092Y-84886D01*
X79092Y-84267D02*
X79148Y-84155D01*
X79260Y-84098D01*
X79429Y-84098D01*
X79542Y-84155D01*
X79598Y-84267D01*
X79598Y-84886D01*
X80160Y-84886D02*
X80160Y-84098D01*
X80160Y-84211D02*
X80216Y-84155D01*
X80329Y-84098D01*
X80498Y-84098D01*
X80610Y-84155D01*
X80666Y-84267D01*
X80666Y-84886D01*
X80666Y-84267D02*
X80723Y-84155D01*
X80835Y-84098D01*
X81004Y-84098D01*
X81116Y-84155D01*
X81173Y-84267D01*
X81173Y-84886D01*
X83479Y-83648D02*
X82466Y-85167D01*
X84997Y-83705D02*
X85110Y-83705D01*
X85222Y-83761D01*
X85278Y-83817D01*
X85335Y-83930D01*
X85391Y-84155D01*
X85391Y-84436D01*
X85335Y-84661D01*
X85278Y-84773D01*
X85222Y-84830D01*
X85110Y-84886D01*
X84997Y-84886D01*
X84885Y-84830D01*
X84828Y-84773D01*
X84772Y-84661D01*
X84716Y-84436D01*
X84716Y-84155D01*
X84772Y-83930D01*
X84828Y-83817D01*
X84885Y-83761D01*
X84997Y-83705D01*
X85897Y-84773D02*
X85953Y-84830D01*
X85897Y-84886D01*
X85841Y-84830D01*
X85897Y-84773D01*
X85897Y-84886D01*
X86684Y-83705D02*
X86797Y-83705D01*
X86909Y-83761D01*
X86966Y-83817D01*
X87022Y-83930D01*
X87078Y-84155D01*
X87078Y-84436D01*
X87022Y-84661D01*
X86966Y-84773D01*
X86909Y-84830D01*
X86797Y-84886D01*
X86684Y-84886D01*
X86572Y-84830D01*
X86516Y-84773D01*
X86459Y-84661D01*
X86403Y-84436D01*
X86403Y-84155D01*
X86459Y-83930D01*
X86516Y-83817D01*
X86572Y-83761D01*
X86684Y-83705D01*
X88091Y-84098D02*
X88091Y-84886D01*
X87809Y-83648D02*
X87528Y-84492D01*
X88259Y-84492D01*
X88934Y-83705D02*
X89047Y-83705D01*
X89159Y-83761D01*
X89215Y-83817D01*
X89272Y-83930D01*
X89328Y-84155D01*
X89328Y-84436D01*
X89272Y-84661D01*
X89215Y-84773D01*
X89159Y-84830D01*
X89047Y-84886D01*
X88934Y-84886D01*
X88822Y-84830D01*
X88765Y-84773D01*
X88709Y-84661D01*
X88653Y-84436D01*
X88653Y-84155D01*
X88709Y-83930D01*
X88765Y-83817D01*
X88822Y-83761D01*
X88934Y-83705D01*
X89778Y-83705D02*
X89778Y-83930D01*
X90228Y-83705D02*
X90228Y-83930D01*
X91971Y-85336D02*
X91915Y-85280D01*
X91803Y-85111D01*
X91746Y-84998D01*
X91690Y-84830D01*
X91634Y-84548D01*
X91634Y-84323D01*
X91690Y-84042D01*
X91746Y-83873D01*
X91803Y-83761D01*
X91915Y-83592D01*
X91971Y-83536D01*
X92927Y-84098D02*
X92927Y-84886D01*
X92646Y-83648D02*
X92365Y-84492D01*
X93096Y-84492D01*
X94446Y-84886D02*
X94446Y-83705D01*
X94952Y-84886D02*
X94952Y-84267D01*
X94896Y-84155D01*
X94783Y-84098D01*
X94615Y-84098D01*
X94502Y-84155D01*
X94446Y-84211D01*
X95683Y-84886D02*
X95571Y-84830D01*
X95515Y-84773D01*
X95458Y-84661D01*
X95458Y-84323D01*
X95515Y-84211D01*
X95571Y-84155D01*
X95683Y-84098D01*
X95852Y-84098D01*
X95965Y-84155D01*
X96021Y-84211D01*
X96077Y-84323D01*
X96077Y-84661D01*
X96021Y-84773D01*
X95965Y-84830D01*
X95852Y-84886D01*
X95683Y-84886D01*
X96752Y-84886D02*
X96639Y-84830D01*
X96583Y-84717D01*
X96583Y-83705D01*
X97652Y-84830D02*
X97539Y-84886D01*
X97314Y-84886D01*
X97202Y-84830D01*
X97146Y-84717D01*
X97146Y-84267D01*
X97202Y-84155D01*
X97314Y-84098D01*
X97539Y-84098D01*
X97652Y-84155D01*
X97708Y-84267D01*
X97708Y-84380D01*
X97146Y-84492D01*
X98158Y-84830D02*
X98270Y-84886D01*
X98495Y-84886D01*
X98608Y-84830D01*
X98664Y-84717D01*
X98664Y-84661D01*
X98608Y-84548D01*
X98495Y-84492D01*
X98327Y-84492D01*
X98214Y-84436D01*
X98158Y-84323D01*
X98158Y-84267D01*
X98214Y-84155D01*
X98327Y-84098D01*
X98495Y-84098D01*
X98608Y-84155D01*
X99058Y-85336D02*
X99114Y-85280D01*
X99227Y-85111D01*
X99283Y-84998D01*
X99339Y-84830D01*
X99395Y-84548D01*
X99395Y-84323D01*
X99339Y-84042D01*
X99283Y-83873D01*
X99227Y-83761D01*
X99114Y-83592D01*
X99058Y-83536D01*
X72980Y-85367D02*
X72980Y-86567D01*
X72380Y-85967D02*
X73580Y-85967D01*
X74536Y-85264D02*
X75267Y-85264D01*
X74873Y-85714D01*
X75042Y-85714D01*
X75155Y-85770D01*
X75211Y-85826D01*
X75267Y-85939D01*
X75267Y-86220D01*
X75211Y-86332D01*
X75155Y-86389D01*
X75042Y-86445D01*
X74705Y-86445D01*
X74592Y-86389D01*
X74536Y-86332D01*
X75773Y-86332D02*
X75830Y-86389D01*
X75773Y-86445D01*
X75717Y-86389D01*
X75773Y-86332D01*
X75773Y-86445D01*
X76561Y-85264D02*
X76673Y-85264D01*
X76786Y-85320D01*
X76842Y-85376D01*
X76898Y-85489D01*
X76954Y-85714D01*
X76954Y-85995D01*
X76898Y-86220D01*
X76842Y-86332D01*
X76786Y-86389D01*
X76673Y-86445D01*
X76561Y-86445D01*
X76448Y-86389D01*
X76392Y-86332D01*
X76336Y-86220D01*
X76279Y-85995D01*
X76279Y-85714D01*
X76336Y-85489D01*
X76392Y-85376D01*
X76448Y-85320D01*
X76561Y-85264D01*
X78023Y-85264D02*
X77461Y-85264D01*
X77404Y-85826D01*
X77461Y-85770D01*
X77573Y-85714D01*
X77854Y-85714D01*
X77967Y-85770D01*
X78023Y-85826D01*
X78079Y-85939D01*
X78079Y-86220D01*
X78023Y-86332D01*
X77967Y-86389D01*
X77854Y-86445D01*
X77573Y-86445D01*
X77461Y-86389D01*
X77404Y-86332D01*
X78585Y-86445D02*
X78585Y-85657D01*
X78585Y-85770D02*
X78642Y-85714D01*
X78754Y-85657D01*
X78923Y-85657D01*
X79035Y-85714D01*
X79092Y-85826D01*
X79092Y-86445D01*
X79092Y-85826D02*
X79148Y-85714D01*
X79260Y-85657D01*
X79429Y-85657D01*
X79542Y-85714D01*
X79598Y-85826D01*
X79598Y-86445D01*
X80160Y-86445D02*
X80160Y-85657D01*
X80160Y-85770D02*
X80216Y-85714D01*
X80329Y-85657D01*
X80498Y-85657D01*
X80610Y-85714D01*
X80666Y-85826D01*
X80666Y-86445D01*
X80666Y-85826D02*
X80723Y-85714D01*
X80835Y-85657D01*
X81004Y-85657D01*
X81116Y-85714D01*
X81173Y-85826D01*
X81173Y-86445D01*
X83479Y-85208D02*
X82466Y-86726D01*
X84997Y-85264D02*
X85110Y-85264D01*
X85222Y-85320D01*
X85278Y-85376D01*
X85335Y-85489D01*
X85391Y-85714D01*
X85391Y-85995D01*
X85335Y-86220D01*
X85278Y-86332D01*
X85222Y-86389D01*
X85110Y-86445D01*
X84997Y-86445D01*
X84885Y-86389D01*
X84828Y-86332D01*
X84772Y-86220D01*
X84716Y-85995D01*
X84716Y-85714D01*
X84772Y-85489D01*
X84828Y-85376D01*
X84885Y-85320D01*
X84997Y-85264D01*
X85897Y-86332D02*
X85953Y-86389D01*
X85897Y-86445D01*
X85841Y-86389D01*
X85897Y-86332D01*
X85897Y-86445D01*
X87078Y-86445D02*
X86403Y-86445D01*
X86741Y-86445D02*
X86741Y-85264D01*
X86628Y-85433D01*
X86516Y-85545D01*
X86403Y-85601D01*
X87528Y-85376D02*
X87584Y-85320D01*
X87697Y-85264D01*
X87978Y-85264D01*
X88091Y-85320D01*
X88147Y-85376D01*
X88203Y-85489D01*
X88203Y-85601D01*
X88147Y-85770D01*
X87472Y-86445D01*
X88203Y-86445D01*
X88934Y-85264D02*
X89047Y-85264D01*
X89159Y-85320D01*
X89215Y-85376D01*
X89272Y-85489D01*
X89328Y-85714D01*
X89328Y-85995D01*
X89272Y-86220D01*
X89215Y-86332D01*
X89159Y-86389D01*
X89047Y-86445D01*
X88934Y-86445D01*
X88822Y-86389D01*
X88765Y-86332D01*
X88709Y-86220D01*
X88653Y-85995D01*
X88653Y-85714D01*
X88709Y-85489D01*
X88765Y-85376D01*
X88822Y-85320D01*
X88934Y-85264D01*
X89778Y-85264D02*
X89778Y-85489D01*
X90228Y-85264D02*
X90228Y-85489D01*
X91971Y-86895D02*
X91915Y-86839D01*
X91803Y-86670D01*
X91746Y-86557D01*
X91690Y-86389D01*
X91634Y-86107D01*
X91634Y-85882D01*
X91690Y-85601D01*
X91746Y-85433D01*
X91803Y-85320D01*
X91915Y-85151D01*
X91971Y-85095D01*
X92927Y-85657D02*
X92927Y-86445D01*
X92646Y-85208D02*
X92365Y-86051D01*
X93096Y-86051D01*
X94446Y-86445D02*
X94446Y-85264D01*
X94952Y-86445D02*
X94952Y-85826D01*
X94896Y-85714D01*
X94783Y-85657D01*
X94615Y-85657D01*
X94502Y-85714D01*
X94446Y-85770D01*
X95683Y-86445D02*
X95571Y-86389D01*
X95515Y-86332D01*
X95458Y-86220D01*
X95458Y-85882D01*
X95515Y-85770D01*
X95571Y-85714D01*
X95683Y-85657D01*
X95852Y-85657D01*
X95965Y-85714D01*
X96021Y-85770D01*
X96077Y-85882D01*
X96077Y-86220D01*
X96021Y-86332D01*
X95965Y-86389D01*
X95852Y-86445D01*
X95683Y-86445D01*
X96752Y-86445D02*
X96639Y-86389D01*
X96583Y-86276D01*
X96583Y-85264D01*
X97652Y-86389D02*
X97539Y-86445D01*
X97314Y-86445D01*
X97202Y-86389D01*
X97146Y-86276D01*
X97146Y-85826D01*
X97202Y-85714D01*
X97314Y-85657D01*
X97539Y-85657D01*
X97652Y-85714D01*
X97708Y-85826D01*
X97708Y-85939D01*
X97146Y-86051D01*
X98158Y-86389D02*
X98270Y-86445D01*
X98495Y-86445D01*
X98608Y-86389D01*
X98664Y-86276D01*
X98664Y-86220D01*
X98608Y-86107D01*
X98495Y-86051D01*
X98327Y-86051D01*
X98214Y-85995D01*
X98158Y-85882D01*
X98158Y-85826D01*
X98214Y-85714D01*
X98327Y-85657D01*
X98495Y-85657D01*
X98608Y-85714D01*
X99058Y-86895D02*
X99114Y-86839D01*
X99227Y-86670D01*
X99283Y-86557D01*
X99339Y-86389D01*
X99395Y-86107D01*
X99395Y-85882D01*
X99339Y-85601D01*
X99283Y-85433D01*
X99227Y-85320D01*
X99114Y-85151D01*
X99058Y-85095D01*
M02*
