M48
;DRILL file {Pcbnew (2013-07-07 BZR 4022)-stable} date 12/21/2016 6:33:24 PM
;FORMAT={-:-/ absolute / metric / decimal}
FMAT,2
METRIC,TZ
T1C0.813
T2C3.048
%
G90
G05
M71
T1
X189.865Y-173.355
X189.865Y-180.975
X192.405Y-173.355
X192.405Y-180.975
X198.12Y-138.557
X200.66Y-138.557
X203.2Y-138.557
X204.47Y-153.797
X204.47Y-156.21
X204.47Y-160.02
X204.47Y-162.56
X205.74Y-138.557
X207.645Y-173.355
X207.645Y-180.975
X208.28Y-138.557
X210.185Y-173.355
X210.185Y-180.975
X210.82Y-138.557
X212.09Y-153.797
X212.09Y-156.21
X212.09Y-160.02
X212.09Y-162.56
X213.36Y-186.69
X213.36Y-189.23
X215.9Y-156.21
X215.9Y-171.45
X215.9Y-186.69
X215.9Y-189.23
X218.44Y-138.557
X218.44Y-156.21
X218.44Y-171.45
X218.44Y-186.69
X218.44Y-189.23
X219.71Y-193.04
X220.98Y-138.557
X220.98Y-156.21
X220.98Y-171.45
X220.98Y-186.69
X220.98Y-189.23
X223.52Y-138.557
X223.52Y-156.21
X223.52Y-171.45
X223.52Y-186.69
X223.52Y-189.23
X226.06Y-138.557
X226.06Y-156.21
X226.06Y-171.45
X226.06Y-186.69
X226.06Y-189.23
X227.33Y-193.04
X228.6Y-138.557
X228.6Y-156.21
X228.6Y-171.45
X228.6Y-186.69
X228.6Y-189.23
X231.14Y-138.557
X231.14Y-156.21
X231.14Y-171.45
X231.14Y-186.69
X231.14Y-189.23
X233.68Y-138.557
X233.68Y-156.21
X233.68Y-171.45
X233.68Y-186.69
X233.68Y-189.23
X233.68Y-193.04
X236.22Y-138.557
X236.22Y-156.21
X236.22Y-171.45
X236.22Y-186.69
X236.22Y-189.23
X236.22Y-193.04
X238.76Y-138.557
X238.76Y-156.21
X238.76Y-171.45
X241.3Y-156.21
X241.3Y-171.45
X243.84Y-156.21
X243.84Y-171.45
X246.38Y-156.21
X246.38Y-171.45
X246.38Y-185.42
X246.38Y-195.58
X248.92Y-138.557
X248.92Y-145.288
X248.92Y-156.21
X248.92Y-171.45
X248.92Y-185.42
X248.92Y-195.58
X251.46Y-138.557
X251.46Y-145.288
X251.46Y-156.21
X251.46Y-171.45
X251.46Y-185.42
X251.46Y-195.58
X254.Y-138.557
X254.Y-145.288
X254.Y-156.21
X254.Y-171.45
X254.Y-185.42
X254.Y-195.58
X256.54Y-138.557
X256.54Y-145.288
X256.54Y-156.21
X256.54Y-171.45
X256.54Y-185.42
X256.54Y-195.58
X259.08Y-138.557
X259.08Y-145.288
X259.08Y-156.21
X259.08Y-171.45
X259.08Y-185.42
X259.08Y-195.58
X261.62Y-138.557
X261.62Y-145.288
X261.62Y-156.21
X261.62Y-171.45
X261.62Y-185.42
X261.62Y-195.58
X264.16Y-138.557
X264.16Y-145.288
X264.16Y-156.21
X264.16Y-171.45
T2
X189.865Y-136.652
X189.992Y-197.993
X270.637Y-136.906
X270.764Y-197.866
T0
M30
