G04 (created by PCBNEW (2013-07-07 BZR 4022)-stable) date 12/21/2016 6:33:19 PM*
%MOIN*%
G04 Gerber Fmt 3.4, Leading zero omitted, Abs format*
%FSLAX34Y34*%
G01*
G70*
G90*
G04 APERTURE LIST*
%ADD10C,0.00590551*%
%ADD11R,0.055X0.055*%
%ADD12C,0.055*%
%ADD13C,0.066*%
%ADD14C,0.16*%
%ADD15C,0.02*%
%ADD16C,0.01*%
G04 APERTURE END LIST*
G54D10*
G54D11*
X86000Y-54550D03*
G54D12*
X87000Y-54550D03*
X88000Y-54550D03*
X89000Y-54550D03*
X90000Y-54550D03*
X91000Y-54550D03*
X92000Y-54550D03*
X93000Y-54550D03*
X94000Y-54550D03*
G54D11*
X98000Y-54550D03*
G54D12*
X99000Y-54550D03*
X100000Y-54550D03*
X101000Y-54550D03*
X102000Y-54550D03*
X103000Y-54550D03*
X104000Y-54550D03*
G54D11*
X98000Y-57200D03*
G54D12*
X99000Y-57200D03*
X100000Y-57200D03*
X101000Y-57200D03*
X102000Y-57200D03*
X103000Y-57200D03*
X104000Y-57200D03*
G54D11*
X103000Y-77000D03*
G54D12*
X102000Y-77000D03*
X101000Y-77000D03*
X100000Y-77000D03*
X99000Y-77000D03*
X98000Y-77000D03*
X97000Y-77000D03*
G54D11*
X103000Y-73000D03*
G54D12*
X102000Y-73000D03*
X101000Y-73000D03*
X100000Y-73000D03*
X99000Y-73000D03*
X98000Y-73000D03*
X97000Y-73000D03*
G54D11*
X78000Y-54550D03*
G54D12*
X79000Y-54550D03*
X80000Y-54550D03*
X81000Y-54550D03*
X82000Y-54550D03*
X83000Y-54550D03*
G54D11*
X81750Y-68250D03*
G54D12*
X82750Y-68250D03*
G54D11*
X81750Y-71250D03*
G54D12*
X82750Y-71250D03*
G54D11*
X74750Y-71250D03*
G54D12*
X75750Y-71250D03*
G54D11*
X74750Y-68250D03*
G54D12*
X75750Y-68250D03*
G54D13*
X92000Y-76000D03*
X93000Y-76000D03*
G54D11*
X85000Y-67500D03*
G54D12*
X86000Y-67500D03*
X87000Y-67500D03*
X88000Y-67500D03*
X89000Y-67500D03*
X90000Y-67500D03*
X91000Y-67500D03*
X92000Y-67500D03*
X93000Y-67500D03*
X94000Y-67500D03*
X95000Y-67500D03*
X96000Y-67500D03*
X97000Y-67500D03*
X98000Y-67500D03*
X99000Y-67500D03*
X100000Y-67500D03*
X101000Y-67500D03*
X102000Y-67500D03*
X103000Y-67500D03*
X104000Y-67500D03*
X104000Y-61500D03*
X103000Y-61500D03*
X102000Y-61500D03*
X101000Y-61500D03*
X100000Y-61500D03*
X99000Y-61500D03*
X98000Y-61500D03*
X97000Y-61500D03*
X96000Y-61500D03*
X95000Y-61500D03*
X94000Y-61500D03*
X93000Y-61500D03*
X92000Y-61500D03*
X91000Y-61500D03*
X90000Y-61500D03*
X89000Y-61500D03*
X88000Y-61500D03*
X87000Y-61500D03*
X86000Y-61500D03*
X85000Y-61500D03*
G54D11*
X93000Y-73500D03*
G54D12*
X92000Y-73500D03*
X91000Y-73500D03*
X90000Y-73500D03*
X89000Y-73500D03*
X88000Y-73500D03*
X87000Y-73500D03*
X86000Y-73500D03*
X85000Y-73500D03*
X84000Y-73500D03*
G54D11*
X93000Y-74500D03*
G54D12*
X92000Y-74500D03*
X91000Y-74500D03*
X90000Y-74500D03*
X89000Y-74500D03*
X88000Y-74500D03*
X87000Y-74500D03*
X86000Y-74500D03*
X85000Y-74500D03*
X84000Y-74500D03*
X80500Y-63000D03*
X83500Y-63000D03*
G54D14*
X106600Y-77900D03*
X74800Y-77950D03*
X74750Y-53800D03*
X106550Y-53900D03*
G54D12*
X83500Y-61500D03*
X80500Y-61500D03*
X80500Y-64000D03*
X83500Y-64000D03*
X83500Y-60550D03*
X80500Y-60550D03*
X89500Y-76000D03*
X86500Y-76000D03*
G54D15*
X102000Y-73000D02*
X106100Y-68900D01*
X103800Y-57900D02*
X98300Y-57900D01*
X106100Y-60200D02*
X103800Y-57900D01*
X106100Y-68900D02*
X106100Y-60200D01*
X102000Y-77000D02*
X102000Y-73000D01*
X93000Y-60200D02*
X95300Y-57900D01*
X95300Y-57900D02*
X98300Y-57900D01*
X98300Y-57900D02*
X99000Y-57200D01*
X99000Y-57200D02*
X99000Y-54550D01*
X88850Y-56000D02*
X88850Y-54700D01*
X88850Y-54700D02*
X89000Y-54550D01*
X86000Y-56000D02*
X88850Y-56000D01*
X93000Y-60150D02*
X93000Y-60200D01*
X93000Y-60200D02*
X93000Y-61500D01*
X88850Y-56000D02*
X93000Y-60150D01*
X86000Y-54550D02*
X86000Y-56000D01*
X81000Y-54550D02*
X81000Y-56000D01*
X78000Y-56000D02*
X78000Y-54550D01*
X81000Y-56000D02*
X78000Y-56000D01*
X86000Y-56000D02*
X81000Y-56000D01*
X87000Y-53550D02*
X82000Y-53550D01*
X82000Y-54550D02*
X82000Y-53550D01*
X79000Y-53550D02*
X79000Y-54550D01*
X82000Y-53550D02*
X79000Y-53550D01*
X90000Y-53550D02*
X87000Y-53550D01*
X87000Y-53550D02*
X87000Y-54550D01*
X98000Y-53550D02*
X94000Y-53550D01*
X94000Y-53550D02*
X90000Y-53550D01*
X94000Y-53550D02*
X94000Y-54550D01*
X90000Y-53550D02*
X90000Y-54550D01*
X98000Y-53550D02*
X98000Y-54550D01*
X98000Y-57200D02*
X98000Y-54550D01*
G54D10*
G36*
X107480Y-78780D02*
X107196Y-78780D01*
X107276Y-78647D01*
X106600Y-77970D01*
X106529Y-78041D01*
X106529Y-77900D01*
X105852Y-77223D01*
X105705Y-77311D01*
X105548Y-77698D01*
X105551Y-78116D01*
X105705Y-78488D01*
X105852Y-78576D01*
X106529Y-77900D01*
X106529Y-78041D01*
X105923Y-78647D01*
X106003Y-78780D01*
X103525Y-78780D01*
X103525Y-77225D01*
X103525Y-76774D01*
X103525Y-73225D01*
X103525Y-73112D01*
X103462Y-73050D01*
X103050Y-73050D01*
X103050Y-73462D01*
X103112Y-73525D01*
X103324Y-73525D01*
X103416Y-73487D01*
X103486Y-73416D01*
X103524Y-73324D01*
X103525Y-73225D01*
X103525Y-76774D01*
X103524Y-76675D01*
X103486Y-76583D01*
X103416Y-76512D01*
X103324Y-76474D01*
X103112Y-76475D01*
X103050Y-76537D01*
X103050Y-76950D01*
X103462Y-76950D01*
X103525Y-76887D01*
X103525Y-76774D01*
X103525Y-77225D01*
X103525Y-77112D01*
X103462Y-77050D01*
X103050Y-77050D01*
X103050Y-77462D01*
X103112Y-77525D01*
X103324Y-77525D01*
X103416Y-77487D01*
X103486Y-77416D01*
X103524Y-77324D01*
X103525Y-77225D01*
X103525Y-78780D01*
X94297Y-78780D01*
X94297Y-67867D01*
X94000Y-67570D01*
X93929Y-67641D01*
X93929Y-67500D01*
X93632Y-67202D01*
X93539Y-67227D01*
X93503Y-67330D01*
X93460Y-67227D01*
X93367Y-67202D01*
X93297Y-67273D01*
X93297Y-67132D01*
X93272Y-67039D01*
X93075Y-66970D01*
X92867Y-66981D01*
X92727Y-67039D01*
X92702Y-67132D01*
X93000Y-67429D01*
X93297Y-67132D01*
X93297Y-67273D01*
X93070Y-67500D01*
X93367Y-67797D01*
X93460Y-67772D01*
X93496Y-67669D01*
X93539Y-67772D01*
X93632Y-67797D01*
X93929Y-67500D01*
X93929Y-67641D01*
X93702Y-67867D01*
X93727Y-67960D01*
X93924Y-68029D01*
X94132Y-68018D01*
X94272Y-67960D01*
X94297Y-67867D01*
X94297Y-78780D01*
X93584Y-78780D01*
X93584Y-76088D01*
X93574Y-75858D01*
X93525Y-75739D01*
X93525Y-74725D01*
X93525Y-74175D01*
X93487Y-74083D01*
X93416Y-74013D01*
X93385Y-74000D01*
X93416Y-73987D01*
X93486Y-73916D01*
X93524Y-73824D01*
X93525Y-73725D01*
X93525Y-73274D01*
X93524Y-73175D01*
X93486Y-73083D01*
X93416Y-73012D01*
X93324Y-72974D01*
X93297Y-72974D01*
X93297Y-67867D01*
X93000Y-67570D01*
X92929Y-67641D01*
X92929Y-67500D01*
X92632Y-67202D01*
X92539Y-67227D01*
X92500Y-67337D01*
X92445Y-67203D01*
X92297Y-67055D01*
X92104Y-66975D01*
X91896Y-66974D01*
X91703Y-67054D01*
X91555Y-67202D01*
X91499Y-67335D01*
X91445Y-67203D01*
X91297Y-67055D01*
X91104Y-66975D01*
X90896Y-66974D01*
X90703Y-67054D01*
X90555Y-67202D01*
X90499Y-67335D01*
X90445Y-67203D01*
X90297Y-67055D01*
X90104Y-66975D01*
X89896Y-66974D01*
X89703Y-67054D01*
X89555Y-67202D01*
X89499Y-67335D01*
X89445Y-67203D01*
X89297Y-67055D01*
X89104Y-66975D01*
X88896Y-66974D01*
X88703Y-67054D01*
X88555Y-67202D01*
X88499Y-67335D01*
X88445Y-67203D01*
X88297Y-67055D01*
X88104Y-66975D01*
X87896Y-66974D01*
X87703Y-67054D01*
X87555Y-67202D01*
X87499Y-67335D01*
X87445Y-67203D01*
X87297Y-67055D01*
X87104Y-66975D01*
X86896Y-66974D01*
X86703Y-67054D01*
X86555Y-67202D01*
X86499Y-67335D01*
X86445Y-67203D01*
X86297Y-67055D01*
X86104Y-66975D01*
X85896Y-66974D01*
X85703Y-67054D01*
X85555Y-67202D01*
X85525Y-67274D01*
X85525Y-67175D01*
X85487Y-67083D01*
X85416Y-67013D01*
X85324Y-66975D01*
X85225Y-66974D01*
X84675Y-66974D01*
X84583Y-67012D01*
X84513Y-67083D01*
X84475Y-67175D01*
X84474Y-67274D01*
X84474Y-67824D01*
X84512Y-67916D01*
X84583Y-67986D01*
X84675Y-68024D01*
X84774Y-68025D01*
X85324Y-68025D01*
X85416Y-67987D01*
X85486Y-67916D01*
X85524Y-67824D01*
X85525Y-67725D01*
X85525Y-67725D01*
X85554Y-67797D01*
X85702Y-67944D01*
X85895Y-68024D01*
X86103Y-68025D01*
X86297Y-67945D01*
X86444Y-67797D01*
X86500Y-67664D01*
X86554Y-67797D01*
X86702Y-67944D01*
X86895Y-68024D01*
X87103Y-68025D01*
X87297Y-67945D01*
X87444Y-67797D01*
X87500Y-67664D01*
X87554Y-67797D01*
X87702Y-67944D01*
X87895Y-68024D01*
X88103Y-68025D01*
X88297Y-67945D01*
X88444Y-67797D01*
X88500Y-67664D01*
X88554Y-67797D01*
X88702Y-67944D01*
X88895Y-68024D01*
X89103Y-68025D01*
X89297Y-67945D01*
X89444Y-67797D01*
X89500Y-67664D01*
X89554Y-67797D01*
X89702Y-67944D01*
X89895Y-68024D01*
X90103Y-68025D01*
X90297Y-67945D01*
X90444Y-67797D01*
X90500Y-67664D01*
X90554Y-67797D01*
X90702Y-67944D01*
X90895Y-68024D01*
X91103Y-68025D01*
X91297Y-67945D01*
X91444Y-67797D01*
X91500Y-67664D01*
X91554Y-67797D01*
X91702Y-67944D01*
X91895Y-68024D01*
X92103Y-68025D01*
X92297Y-67945D01*
X92444Y-67797D01*
X92497Y-67671D01*
X92539Y-67772D01*
X92632Y-67797D01*
X92929Y-67500D01*
X92929Y-67641D01*
X92702Y-67867D01*
X92727Y-67960D01*
X92924Y-68029D01*
X93132Y-68018D01*
X93272Y-67960D01*
X93297Y-67867D01*
X93297Y-72974D01*
X93112Y-72975D01*
X93050Y-73037D01*
X93050Y-73450D01*
X93462Y-73450D01*
X93525Y-73387D01*
X93525Y-73274D01*
X93525Y-73725D01*
X93525Y-73612D01*
X93462Y-73550D01*
X93050Y-73550D01*
X93050Y-73557D01*
X92950Y-73557D01*
X92950Y-73550D01*
X92942Y-73550D01*
X92942Y-73450D01*
X92950Y-73450D01*
X92950Y-73037D01*
X92887Y-72975D01*
X92675Y-72974D01*
X92583Y-73012D01*
X92513Y-73083D01*
X92475Y-73175D01*
X92474Y-73274D01*
X92474Y-73274D01*
X92445Y-73203D01*
X92297Y-73055D01*
X92104Y-72975D01*
X91896Y-72974D01*
X91703Y-73054D01*
X91555Y-73202D01*
X91499Y-73335D01*
X91445Y-73203D01*
X91297Y-73055D01*
X91104Y-72975D01*
X90896Y-72974D01*
X90703Y-73054D01*
X90555Y-73202D01*
X90499Y-73335D01*
X90445Y-73203D01*
X90297Y-73055D01*
X90104Y-72975D01*
X89896Y-72974D01*
X89703Y-73054D01*
X89555Y-73202D01*
X89499Y-73335D01*
X89445Y-73203D01*
X89297Y-73055D01*
X89104Y-72975D01*
X88896Y-72974D01*
X88703Y-73054D01*
X88555Y-73202D01*
X88499Y-73335D01*
X88445Y-73203D01*
X88297Y-73055D01*
X88104Y-72975D01*
X87896Y-72974D01*
X87703Y-73054D01*
X87555Y-73202D01*
X87499Y-73335D01*
X87445Y-73203D01*
X87297Y-73055D01*
X87104Y-72975D01*
X86896Y-72974D01*
X86703Y-73054D01*
X86555Y-73202D01*
X86499Y-73335D01*
X86445Y-73203D01*
X86297Y-73055D01*
X86104Y-72975D01*
X85896Y-72974D01*
X85703Y-73054D01*
X85555Y-73202D01*
X85499Y-73335D01*
X85445Y-73203D01*
X85297Y-73055D01*
X85104Y-72975D01*
X84896Y-72974D01*
X84703Y-73054D01*
X84555Y-73202D01*
X84499Y-73335D01*
X84445Y-73203D01*
X84297Y-73055D01*
X84104Y-72975D01*
X84025Y-72975D01*
X84025Y-63896D01*
X83945Y-63703D01*
X83797Y-63555D01*
X83664Y-63499D01*
X83797Y-63445D01*
X83944Y-63297D01*
X84024Y-63104D01*
X84025Y-62896D01*
X84025Y-61396D01*
X83945Y-61203D01*
X83797Y-61055D01*
X83725Y-61025D01*
X83797Y-60995D01*
X83944Y-60847D01*
X84024Y-60654D01*
X84025Y-60446D01*
X83945Y-60253D01*
X83797Y-60105D01*
X83604Y-60025D01*
X83396Y-60024D01*
X83203Y-60104D01*
X83055Y-60252D01*
X82975Y-60445D01*
X82974Y-60653D01*
X83054Y-60847D01*
X83202Y-60994D01*
X83274Y-61024D01*
X83203Y-61054D01*
X83055Y-61202D01*
X82975Y-61395D01*
X82974Y-61603D01*
X83054Y-61797D01*
X83202Y-61944D01*
X83395Y-62024D01*
X83603Y-62025D01*
X83797Y-61945D01*
X83944Y-61797D01*
X84024Y-61604D01*
X84025Y-61396D01*
X84025Y-62896D01*
X83945Y-62703D01*
X83797Y-62555D01*
X83604Y-62475D01*
X83396Y-62474D01*
X83203Y-62554D01*
X83055Y-62702D01*
X82975Y-62895D01*
X82974Y-63103D01*
X83054Y-63297D01*
X83202Y-63444D01*
X83335Y-63500D01*
X83203Y-63554D01*
X83055Y-63702D01*
X82975Y-63895D01*
X82974Y-64103D01*
X83054Y-64297D01*
X83202Y-64444D01*
X83395Y-64524D01*
X83603Y-64525D01*
X83797Y-64445D01*
X83944Y-64297D01*
X84024Y-64104D01*
X84025Y-63896D01*
X84025Y-72975D01*
X83896Y-72974D01*
X83703Y-73054D01*
X83555Y-73202D01*
X83475Y-73395D01*
X83474Y-73603D01*
X83554Y-73797D01*
X83702Y-73944D01*
X83835Y-74000D01*
X83703Y-74054D01*
X83555Y-74202D01*
X83475Y-74395D01*
X83474Y-74603D01*
X83554Y-74797D01*
X83702Y-74944D01*
X83895Y-75024D01*
X84103Y-75025D01*
X84297Y-74945D01*
X84444Y-74797D01*
X84500Y-74664D01*
X84554Y-74797D01*
X84702Y-74944D01*
X84895Y-75024D01*
X85103Y-75025D01*
X85297Y-74945D01*
X85444Y-74797D01*
X85500Y-74664D01*
X85554Y-74797D01*
X85702Y-74944D01*
X85895Y-75024D01*
X86103Y-75025D01*
X86297Y-74945D01*
X86444Y-74797D01*
X86500Y-74664D01*
X86554Y-74797D01*
X86702Y-74944D01*
X86895Y-75024D01*
X87103Y-75025D01*
X87297Y-74945D01*
X87444Y-74797D01*
X87500Y-74664D01*
X87554Y-74797D01*
X87702Y-74944D01*
X87895Y-75024D01*
X88103Y-75025D01*
X88297Y-74945D01*
X88444Y-74797D01*
X88500Y-74664D01*
X88554Y-74797D01*
X88702Y-74944D01*
X88895Y-75024D01*
X89103Y-75025D01*
X89297Y-74945D01*
X89444Y-74797D01*
X89500Y-74664D01*
X89554Y-74797D01*
X89702Y-74944D01*
X89895Y-75024D01*
X90103Y-75025D01*
X90297Y-74945D01*
X90444Y-74797D01*
X90500Y-74664D01*
X90554Y-74797D01*
X90702Y-74944D01*
X90895Y-75024D01*
X91103Y-75025D01*
X91297Y-74945D01*
X91444Y-74797D01*
X91500Y-74664D01*
X91554Y-74797D01*
X91702Y-74944D01*
X91895Y-75024D01*
X92103Y-75025D01*
X92297Y-74945D01*
X92444Y-74797D01*
X92474Y-74725D01*
X92474Y-74824D01*
X92512Y-74916D01*
X92583Y-74986D01*
X92675Y-75024D01*
X92774Y-75025D01*
X93324Y-75025D01*
X93416Y-74987D01*
X93486Y-74916D01*
X93524Y-74824D01*
X93525Y-74725D01*
X93525Y-75739D01*
X93506Y-75694D01*
X93407Y-75663D01*
X93336Y-75733D01*
X93336Y-75592D01*
X93305Y-75493D01*
X93088Y-75415D01*
X92858Y-75425D01*
X92694Y-75493D01*
X92663Y-75592D01*
X93000Y-75929D01*
X93336Y-75592D01*
X93336Y-75733D01*
X93070Y-76000D01*
X93407Y-76336D01*
X93506Y-76305D01*
X93584Y-76088D01*
X93584Y-78780D01*
X93336Y-78780D01*
X93336Y-76407D01*
X93000Y-76070D01*
X92929Y-76141D01*
X92929Y-76000D01*
X92592Y-75663D01*
X92500Y-75692D01*
X92491Y-75671D01*
X92328Y-75508D01*
X92115Y-75420D01*
X91885Y-75419D01*
X91671Y-75508D01*
X91508Y-75671D01*
X91420Y-75884D01*
X91419Y-76114D01*
X91508Y-76328D01*
X91671Y-76491D01*
X91884Y-76579D01*
X92114Y-76580D01*
X92328Y-76491D01*
X92491Y-76328D01*
X92500Y-76307D01*
X92592Y-76336D01*
X92929Y-76000D01*
X92929Y-76141D01*
X92663Y-76407D01*
X92694Y-76506D01*
X92911Y-76584D01*
X93141Y-76574D01*
X93305Y-76506D01*
X93336Y-76407D01*
X93336Y-78780D01*
X90025Y-78780D01*
X90025Y-75896D01*
X89945Y-75703D01*
X89797Y-75555D01*
X89604Y-75475D01*
X89396Y-75474D01*
X89203Y-75554D01*
X89055Y-75702D01*
X88975Y-75895D01*
X88974Y-76103D01*
X89054Y-76297D01*
X89202Y-76444D01*
X89395Y-76524D01*
X89603Y-76525D01*
X89797Y-76445D01*
X89944Y-76297D01*
X90024Y-76104D01*
X90025Y-75896D01*
X90025Y-78780D01*
X87025Y-78780D01*
X87025Y-75896D01*
X86945Y-75703D01*
X86797Y-75555D01*
X86604Y-75475D01*
X86396Y-75474D01*
X86203Y-75554D01*
X86055Y-75702D01*
X85975Y-75895D01*
X85974Y-76103D01*
X86054Y-76297D01*
X86202Y-76444D01*
X86395Y-76524D01*
X86603Y-76525D01*
X86797Y-76445D01*
X86944Y-76297D01*
X87024Y-76104D01*
X87025Y-75896D01*
X87025Y-78780D01*
X83275Y-78780D01*
X83275Y-71146D01*
X83275Y-68146D01*
X83195Y-67953D01*
X83047Y-67805D01*
X82854Y-67725D01*
X82646Y-67724D01*
X82453Y-67804D01*
X82305Y-67952D01*
X82275Y-68024D01*
X82275Y-67925D01*
X82237Y-67833D01*
X82166Y-67763D01*
X82074Y-67725D01*
X81975Y-67724D01*
X81425Y-67724D01*
X81333Y-67762D01*
X81263Y-67833D01*
X81225Y-67925D01*
X81224Y-68024D01*
X81224Y-68574D01*
X81262Y-68666D01*
X81333Y-68736D01*
X81425Y-68774D01*
X81524Y-68775D01*
X82074Y-68775D01*
X82166Y-68737D01*
X82236Y-68666D01*
X82274Y-68574D01*
X82275Y-68475D01*
X82275Y-68475D01*
X82304Y-68547D01*
X82452Y-68694D01*
X82645Y-68774D01*
X82853Y-68775D01*
X83047Y-68695D01*
X83194Y-68547D01*
X83274Y-68354D01*
X83275Y-68146D01*
X83275Y-71146D01*
X83195Y-70953D01*
X83047Y-70805D01*
X82854Y-70725D01*
X82646Y-70724D01*
X82453Y-70804D01*
X82305Y-70952D01*
X82275Y-71024D01*
X82275Y-70925D01*
X82237Y-70833D01*
X82166Y-70763D01*
X82074Y-70725D01*
X81975Y-70724D01*
X81425Y-70724D01*
X81333Y-70762D01*
X81263Y-70833D01*
X81225Y-70925D01*
X81224Y-71024D01*
X81224Y-71574D01*
X81262Y-71666D01*
X81333Y-71736D01*
X81425Y-71774D01*
X81524Y-71775D01*
X82074Y-71775D01*
X82166Y-71737D01*
X82236Y-71666D01*
X82274Y-71574D01*
X82275Y-71475D01*
X82275Y-71475D01*
X82304Y-71547D01*
X82452Y-71694D01*
X82645Y-71774D01*
X82853Y-71775D01*
X83047Y-71695D01*
X83194Y-71547D01*
X83274Y-71354D01*
X83275Y-71146D01*
X83275Y-78780D01*
X81025Y-78780D01*
X81025Y-63896D01*
X80945Y-63703D01*
X80797Y-63555D01*
X80664Y-63499D01*
X80797Y-63445D01*
X80944Y-63297D01*
X81024Y-63104D01*
X81025Y-62896D01*
X81025Y-61396D01*
X80945Y-61203D01*
X80797Y-61055D01*
X80725Y-61025D01*
X80797Y-60995D01*
X80944Y-60847D01*
X81024Y-60654D01*
X81025Y-60446D01*
X80945Y-60253D01*
X80797Y-60105D01*
X80604Y-60025D01*
X80396Y-60024D01*
X80203Y-60104D01*
X80055Y-60252D01*
X79975Y-60445D01*
X79974Y-60653D01*
X80054Y-60847D01*
X80202Y-60994D01*
X80274Y-61024D01*
X80203Y-61054D01*
X80055Y-61202D01*
X79975Y-61395D01*
X79974Y-61603D01*
X80054Y-61797D01*
X80202Y-61944D01*
X80395Y-62024D01*
X80603Y-62025D01*
X80797Y-61945D01*
X80944Y-61797D01*
X81024Y-61604D01*
X81025Y-61396D01*
X81025Y-62896D01*
X80945Y-62703D01*
X80797Y-62555D01*
X80604Y-62475D01*
X80396Y-62474D01*
X80203Y-62554D01*
X80055Y-62702D01*
X79975Y-62895D01*
X79974Y-63103D01*
X80054Y-63297D01*
X80202Y-63444D01*
X80335Y-63500D01*
X80203Y-63554D01*
X80055Y-63702D01*
X79975Y-63895D01*
X79974Y-64103D01*
X80054Y-64297D01*
X80202Y-64444D01*
X80395Y-64524D01*
X80603Y-64525D01*
X80797Y-64445D01*
X80944Y-64297D01*
X81024Y-64104D01*
X81025Y-63896D01*
X81025Y-78780D01*
X76279Y-78780D01*
X76279Y-71325D01*
X76275Y-71237D01*
X76275Y-68146D01*
X76195Y-67953D01*
X76047Y-67805D01*
X75854Y-67725D01*
X75801Y-67725D01*
X75801Y-54001D01*
X75798Y-53583D01*
X75644Y-53211D01*
X75497Y-53123D01*
X74820Y-53800D01*
X75497Y-54476D01*
X75644Y-54388D01*
X75801Y-54001D01*
X75801Y-67725D01*
X75646Y-67724D01*
X75453Y-67804D01*
X75426Y-67831D01*
X75426Y-54547D01*
X74750Y-53870D01*
X74073Y-54547D01*
X74161Y-54694D01*
X74548Y-54851D01*
X74966Y-54848D01*
X75338Y-54694D01*
X75426Y-54547D01*
X75426Y-67831D01*
X75305Y-67952D01*
X75275Y-68024D01*
X75275Y-67925D01*
X75237Y-67833D01*
X75166Y-67763D01*
X75074Y-67725D01*
X74975Y-67724D01*
X74425Y-67724D01*
X74333Y-67762D01*
X74263Y-67833D01*
X74225Y-67925D01*
X74224Y-68024D01*
X74224Y-68574D01*
X74262Y-68666D01*
X74333Y-68736D01*
X74425Y-68774D01*
X74524Y-68775D01*
X75074Y-68775D01*
X75166Y-68737D01*
X75236Y-68666D01*
X75274Y-68574D01*
X75275Y-68475D01*
X75275Y-68475D01*
X75304Y-68547D01*
X75452Y-68694D01*
X75645Y-68774D01*
X75853Y-68775D01*
X76047Y-68695D01*
X76194Y-68547D01*
X76274Y-68354D01*
X76275Y-68146D01*
X76275Y-71237D01*
X76268Y-71117D01*
X76210Y-70977D01*
X76117Y-70952D01*
X76047Y-71023D01*
X76047Y-70882D01*
X76022Y-70789D01*
X75825Y-70720D01*
X75617Y-70731D01*
X75477Y-70789D01*
X75452Y-70882D01*
X75750Y-71179D01*
X76047Y-70882D01*
X76047Y-71023D01*
X75820Y-71250D01*
X76117Y-71547D01*
X76210Y-71522D01*
X76279Y-71325D01*
X76279Y-78780D01*
X76047Y-78780D01*
X76047Y-71617D01*
X75750Y-71320D01*
X75679Y-71391D01*
X75679Y-71250D01*
X75382Y-70952D01*
X75289Y-70977D01*
X75275Y-71018D01*
X75274Y-70925D01*
X75236Y-70833D01*
X75166Y-70762D01*
X75074Y-70724D01*
X74862Y-70725D01*
X74800Y-70787D01*
X74800Y-71200D01*
X74807Y-71200D01*
X74807Y-71300D01*
X74800Y-71300D01*
X74800Y-71712D01*
X74862Y-71775D01*
X75074Y-71775D01*
X75166Y-71737D01*
X75236Y-71666D01*
X75274Y-71574D01*
X75275Y-71487D01*
X75289Y-71522D01*
X75382Y-71547D01*
X75679Y-71250D01*
X75679Y-71391D01*
X75452Y-71617D01*
X75477Y-71710D01*
X75674Y-71779D01*
X75882Y-71768D01*
X76022Y-71710D01*
X76047Y-71617D01*
X76047Y-78780D01*
X75851Y-78780D01*
X75851Y-78151D01*
X75848Y-77733D01*
X75694Y-77361D01*
X75547Y-77273D01*
X75476Y-77344D01*
X75476Y-77202D01*
X75388Y-77055D01*
X75001Y-76898D01*
X74700Y-76900D01*
X74700Y-71712D01*
X74700Y-71300D01*
X74700Y-71200D01*
X74700Y-70787D01*
X74637Y-70725D01*
X74425Y-70724D01*
X74333Y-70762D01*
X74263Y-70833D01*
X74225Y-70925D01*
X74224Y-71024D01*
X74225Y-71137D01*
X74287Y-71200D01*
X74700Y-71200D01*
X74700Y-71300D01*
X74287Y-71300D01*
X74225Y-71362D01*
X74224Y-71475D01*
X74225Y-71574D01*
X74263Y-71666D01*
X74333Y-71737D01*
X74425Y-71775D01*
X74637Y-71775D01*
X74700Y-71712D01*
X74700Y-76900D01*
X74583Y-76901D01*
X74211Y-77055D01*
X74123Y-77202D01*
X74800Y-77879D01*
X75476Y-77202D01*
X75476Y-77344D01*
X74870Y-77950D01*
X75547Y-78626D01*
X75694Y-78538D01*
X75851Y-78151D01*
X75851Y-78780D01*
X75426Y-78780D01*
X75476Y-78697D01*
X74800Y-78020D01*
X74123Y-78697D01*
X74173Y-78780D01*
X73869Y-78780D01*
X73869Y-78451D01*
X73905Y-78538D01*
X74052Y-78626D01*
X74729Y-77950D01*
X74052Y-77273D01*
X73905Y-77361D01*
X73869Y-77450D01*
X73869Y-54396D01*
X74002Y-54476D01*
X74679Y-53800D01*
X74002Y-53123D01*
X73869Y-53203D01*
X73869Y-52969D01*
X74123Y-52969D01*
X74073Y-53052D01*
X74750Y-53729D01*
X75426Y-53052D01*
X75376Y-52969D01*
X106048Y-52969D01*
X105961Y-53005D01*
X105873Y-53152D01*
X106550Y-53829D01*
X107226Y-53152D01*
X107138Y-53005D01*
X107049Y-52969D01*
X107480Y-52969D01*
X107480Y-53398D01*
X107444Y-53311D01*
X107297Y-53223D01*
X106620Y-53900D01*
X107297Y-54576D01*
X107444Y-54488D01*
X107480Y-54399D01*
X107480Y-77303D01*
X107347Y-77223D01*
X107276Y-77294D01*
X107276Y-77152D01*
X107226Y-77069D01*
X107226Y-54647D01*
X106550Y-53970D01*
X106479Y-54041D01*
X106479Y-53900D01*
X105802Y-53223D01*
X105655Y-53311D01*
X105498Y-53698D01*
X105501Y-54116D01*
X105655Y-54488D01*
X105802Y-54576D01*
X106479Y-53900D01*
X106479Y-54041D01*
X105873Y-54647D01*
X105961Y-54794D01*
X106348Y-54951D01*
X106766Y-54948D01*
X107138Y-54794D01*
X107226Y-54647D01*
X107226Y-77069D01*
X107188Y-77005D01*
X106801Y-76848D01*
X106450Y-76851D01*
X106450Y-68900D01*
X106450Y-60200D01*
X106423Y-60066D01*
X106347Y-59952D01*
X106347Y-59952D01*
X104115Y-57720D01*
X104297Y-57645D01*
X104444Y-57497D01*
X104524Y-57304D01*
X104525Y-57096D01*
X104445Y-56903D01*
X104297Y-56755D01*
X104104Y-56675D01*
X103896Y-56674D01*
X103703Y-56754D01*
X103555Y-56902D01*
X103499Y-57035D01*
X103445Y-56903D01*
X103297Y-56755D01*
X103104Y-56675D01*
X102896Y-56674D01*
X102703Y-56754D01*
X102555Y-56902D01*
X102499Y-57035D01*
X102445Y-56903D01*
X102297Y-56755D01*
X102104Y-56675D01*
X101896Y-56674D01*
X101703Y-56754D01*
X101555Y-56902D01*
X101499Y-57035D01*
X101445Y-56903D01*
X101297Y-56755D01*
X101104Y-56675D01*
X100896Y-56674D01*
X100703Y-56754D01*
X100555Y-56902D01*
X100499Y-57035D01*
X100445Y-56903D01*
X100297Y-56755D01*
X100104Y-56675D01*
X99896Y-56674D01*
X99703Y-56754D01*
X99555Y-56902D01*
X99499Y-57035D01*
X99445Y-56903D01*
X99350Y-56807D01*
X99350Y-54942D01*
X99444Y-54847D01*
X99500Y-54714D01*
X99554Y-54847D01*
X99702Y-54994D01*
X99895Y-55074D01*
X100103Y-55075D01*
X100297Y-54995D01*
X100444Y-54847D01*
X100500Y-54714D01*
X100554Y-54847D01*
X100702Y-54994D01*
X100895Y-55074D01*
X101103Y-55075D01*
X101297Y-54995D01*
X101444Y-54847D01*
X101500Y-54714D01*
X101554Y-54847D01*
X101702Y-54994D01*
X101895Y-55074D01*
X102103Y-55075D01*
X102297Y-54995D01*
X102444Y-54847D01*
X102500Y-54714D01*
X102554Y-54847D01*
X102702Y-54994D01*
X102895Y-55074D01*
X103103Y-55075D01*
X103297Y-54995D01*
X103444Y-54847D01*
X103500Y-54714D01*
X103554Y-54847D01*
X103702Y-54994D01*
X103895Y-55074D01*
X104103Y-55075D01*
X104297Y-54995D01*
X104444Y-54847D01*
X104524Y-54654D01*
X104525Y-54446D01*
X104445Y-54253D01*
X104297Y-54105D01*
X104104Y-54025D01*
X103896Y-54024D01*
X103703Y-54104D01*
X103555Y-54252D01*
X103499Y-54385D01*
X103445Y-54253D01*
X103297Y-54105D01*
X103104Y-54025D01*
X102896Y-54024D01*
X102703Y-54104D01*
X102555Y-54252D01*
X102499Y-54385D01*
X102445Y-54253D01*
X102297Y-54105D01*
X102104Y-54025D01*
X101896Y-54024D01*
X101703Y-54104D01*
X101555Y-54252D01*
X101499Y-54385D01*
X101445Y-54253D01*
X101297Y-54105D01*
X101104Y-54025D01*
X100896Y-54024D01*
X100703Y-54104D01*
X100555Y-54252D01*
X100499Y-54385D01*
X100445Y-54253D01*
X100297Y-54105D01*
X100104Y-54025D01*
X99896Y-54024D01*
X99703Y-54104D01*
X99555Y-54252D01*
X99499Y-54385D01*
X99445Y-54253D01*
X99297Y-54105D01*
X99104Y-54025D01*
X98896Y-54024D01*
X98703Y-54104D01*
X98555Y-54252D01*
X98525Y-54324D01*
X98525Y-54324D01*
X98524Y-54225D01*
X98486Y-54133D01*
X98416Y-54062D01*
X98324Y-54024D01*
X98112Y-54025D01*
X98050Y-54087D01*
X98050Y-54500D01*
X98057Y-54500D01*
X98057Y-54600D01*
X98050Y-54600D01*
X98050Y-55012D01*
X98112Y-55075D01*
X98324Y-55075D01*
X98416Y-55037D01*
X98486Y-54966D01*
X98524Y-54874D01*
X98525Y-54775D01*
X98525Y-54775D01*
X98554Y-54847D01*
X98650Y-54942D01*
X98650Y-56807D01*
X98555Y-56902D01*
X98525Y-56974D01*
X98525Y-56974D01*
X98524Y-56875D01*
X98486Y-56783D01*
X98416Y-56712D01*
X98324Y-56674D01*
X98112Y-56675D01*
X98050Y-56737D01*
X98050Y-57150D01*
X98057Y-57150D01*
X98057Y-57250D01*
X98050Y-57250D01*
X98050Y-57257D01*
X97950Y-57257D01*
X97950Y-57250D01*
X97950Y-57150D01*
X97950Y-56737D01*
X97950Y-55012D01*
X97950Y-54600D01*
X97950Y-54500D01*
X97950Y-54087D01*
X97887Y-54025D01*
X97675Y-54024D01*
X97583Y-54062D01*
X97513Y-54133D01*
X97475Y-54225D01*
X97474Y-54324D01*
X97475Y-54437D01*
X97537Y-54500D01*
X97950Y-54500D01*
X97950Y-54600D01*
X97537Y-54600D01*
X97475Y-54662D01*
X97474Y-54775D01*
X97475Y-54874D01*
X97513Y-54966D01*
X97583Y-55037D01*
X97675Y-55075D01*
X97887Y-55075D01*
X97950Y-55012D01*
X97950Y-56737D01*
X97887Y-56675D01*
X97675Y-56674D01*
X97583Y-56712D01*
X97513Y-56783D01*
X97475Y-56875D01*
X97474Y-56974D01*
X97475Y-57087D01*
X97537Y-57150D01*
X97950Y-57150D01*
X97950Y-57250D01*
X97537Y-57250D01*
X97475Y-57312D01*
X97474Y-57425D01*
X97475Y-57524D01*
X97485Y-57550D01*
X95300Y-57550D01*
X95166Y-57576D01*
X95052Y-57652D01*
X95052Y-57652D01*
X94529Y-58175D01*
X94529Y-54625D01*
X94518Y-54417D01*
X94460Y-54277D01*
X94367Y-54252D01*
X94297Y-54323D01*
X94297Y-54182D01*
X94272Y-54089D01*
X94075Y-54020D01*
X93867Y-54031D01*
X93727Y-54089D01*
X93702Y-54182D01*
X94000Y-54479D01*
X94297Y-54182D01*
X94297Y-54323D01*
X94070Y-54550D01*
X94367Y-54847D01*
X94460Y-54822D01*
X94529Y-54625D01*
X94529Y-58175D01*
X94297Y-58407D01*
X94297Y-54917D01*
X94000Y-54620D01*
X93929Y-54691D01*
X93929Y-54550D01*
X93632Y-54252D01*
X93539Y-54277D01*
X93500Y-54387D01*
X93445Y-54253D01*
X93297Y-54105D01*
X93104Y-54025D01*
X92896Y-54024D01*
X92703Y-54104D01*
X92555Y-54252D01*
X92499Y-54385D01*
X92445Y-54253D01*
X92297Y-54105D01*
X92104Y-54025D01*
X91896Y-54024D01*
X91703Y-54104D01*
X91555Y-54252D01*
X91499Y-54385D01*
X91445Y-54253D01*
X91297Y-54105D01*
X91104Y-54025D01*
X90896Y-54024D01*
X90703Y-54104D01*
X90555Y-54252D01*
X90502Y-54378D01*
X90460Y-54277D01*
X90367Y-54252D01*
X90297Y-54323D01*
X90297Y-54182D01*
X90272Y-54089D01*
X90075Y-54020D01*
X89867Y-54031D01*
X89727Y-54089D01*
X89702Y-54182D01*
X90000Y-54479D01*
X90297Y-54182D01*
X90297Y-54323D01*
X90070Y-54550D01*
X90367Y-54847D01*
X90460Y-54822D01*
X90499Y-54712D01*
X90554Y-54847D01*
X90702Y-54994D01*
X90895Y-55074D01*
X91103Y-55075D01*
X91297Y-54995D01*
X91444Y-54847D01*
X91500Y-54714D01*
X91554Y-54847D01*
X91702Y-54994D01*
X91895Y-55074D01*
X92103Y-55075D01*
X92297Y-54995D01*
X92444Y-54847D01*
X92500Y-54714D01*
X92554Y-54847D01*
X92702Y-54994D01*
X92895Y-55074D01*
X93103Y-55075D01*
X93297Y-54995D01*
X93444Y-54847D01*
X93497Y-54721D01*
X93539Y-54822D01*
X93632Y-54847D01*
X93929Y-54550D01*
X93929Y-54691D01*
X93702Y-54917D01*
X93727Y-55010D01*
X93924Y-55079D01*
X94132Y-55068D01*
X94272Y-55010D01*
X94297Y-54917D01*
X94297Y-58407D01*
X93025Y-59680D01*
X90297Y-56952D01*
X90297Y-54917D01*
X90000Y-54620D01*
X89702Y-54917D01*
X89727Y-55010D01*
X89924Y-55079D01*
X90132Y-55068D01*
X90272Y-55010D01*
X90297Y-54917D01*
X90297Y-56952D01*
X89200Y-55855D01*
X89200Y-55035D01*
X89297Y-54995D01*
X89444Y-54847D01*
X89497Y-54721D01*
X89539Y-54822D01*
X89632Y-54847D01*
X89929Y-54550D01*
X89632Y-54252D01*
X89539Y-54277D01*
X89500Y-54387D01*
X89445Y-54253D01*
X89297Y-54105D01*
X89104Y-54025D01*
X88896Y-54024D01*
X88703Y-54104D01*
X88555Y-54252D01*
X88499Y-54385D01*
X88445Y-54253D01*
X88297Y-54105D01*
X88104Y-54025D01*
X87896Y-54024D01*
X87703Y-54104D01*
X87555Y-54252D01*
X87502Y-54378D01*
X87460Y-54277D01*
X87367Y-54252D01*
X87297Y-54323D01*
X87297Y-54182D01*
X87272Y-54089D01*
X87075Y-54020D01*
X86867Y-54031D01*
X86727Y-54089D01*
X86702Y-54182D01*
X87000Y-54479D01*
X87297Y-54182D01*
X87297Y-54323D01*
X87070Y-54550D01*
X87367Y-54847D01*
X87460Y-54822D01*
X87499Y-54712D01*
X87554Y-54847D01*
X87702Y-54994D01*
X87895Y-55074D01*
X88103Y-55075D01*
X88297Y-54995D01*
X88444Y-54847D01*
X88500Y-54714D01*
X88500Y-55650D01*
X87297Y-55650D01*
X87297Y-54917D01*
X87000Y-54620D01*
X86702Y-54917D01*
X86727Y-55010D01*
X86924Y-55079D01*
X87132Y-55068D01*
X87272Y-55010D01*
X87297Y-54917D01*
X87297Y-55650D01*
X86350Y-55650D01*
X86350Y-55064D01*
X86416Y-55037D01*
X86486Y-54966D01*
X86524Y-54874D01*
X86525Y-54787D01*
X86539Y-54822D01*
X86632Y-54847D01*
X86929Y-54550D01*
X86632Y-54252D01*
X86539Y-54277D01*
X86525Y-54318D01*
X86525Y-54225D01*
X86487Y-54133D01*
X86416Y-54063D01*
X86324Y-54025D01*
X86225Y-54024D01*
X85675Y-54024D01*
X85583Y-54062D01*
X85513Y-54133D01*
X85475Y-54225D01*
X85474Y-54324D01*
X85474Y-54874D01*
X85512Y-54966D01*
X85583Y-55036D01*
X85650Y-55064D01*
X85650Y-55650D01*
X83525Y-55650D01*
X83525Y-54446D01*
X83445Y-54253D01*
X83297Y-54105D01*
X83104Y-54025D01*
X82896Y-54024D01*
X82703Y-54104D01*
X82555Y-54252D01*
X82502Y-54378D01*
X82460Y-54277D01*
X82367Y-54252D01*
X82297Y-54323D01*
X82297Y-54182D01*
X82272Y-54089D01*
X82075Y-54020D01*
X81867Y-54031D01*
X81727Y-54089D01*
X81702Y-54182D01*
X82000Y-54479D01*
X82297Y-54182D01*
X82297Y-54323D01*
X82070Y-54550D01*
X82367Y-54847D01*
X82460Y-54822D01*
X82499Y-54712D01*
X82554Y-54847D01*
X82702Y-54994D01*
X82895Y-55074D01*
X83103Y-55075D01*
X83297Y-54995D01*
X83444Y-54847D01*
X83524Y-54654D01*
X83525Y-54446D01*
X83525Y-55650D01*
X82297Y-55650D01*
X82297Y-54917D01*
X82000Y-54620D01*
X81702Y-54917D01*
X81727Y-55010D01*
X81924Y-55079D01*
X82132Y-55068D01*
X82272Y-55010D01*
X82297Y-54917D01*
X82297Y-55650D01*
X81350Y-55650D01*
X81350Y-54942D01*
X81444Y-54847D01*
X81497Y-54721D01*
X81539Y-54822D01*
X81632Y-54847D01*
X81929Y-54550D01*
X81632Y-54252D01*
X81539Y-54277D01*
X81500Y-54387D01*
X81445Y-54253D01*
X81297Y-54105D01*
X81104Y-54025D01*
X80896Y-54024D01*
X80703Y-54104D01*
X80555Y-54252D01*
X80499Y-54385D01*
X80445Y-54253D01*
X80297Y-54105D01*
X80104Y-54025D01*
X79896Y-54024D01*
X79703Y-54104D01*
X79555Y-54252D01*
X79502Y-54378D01*
X79460Y-54277D01*
X79367Y-54252D01*
X79297Y-54323D01*
X79297Y-54182D01*
X79272Y-54089D01*
X79075Y-54020D01*
X78867Y-54031D01*
X78727Y-54089D01*
X78702Y-54182D01*
X79000Y-54479D01*
X79297Y-54182D01*
X79297Y-54323D01*
X79070Y-54550D01*
X79367Y-54847D01*
X79460Y-54822D01*
X79499Y-54712D01*
X79554Y-54847D01*
X79702Y-54994D01*
X79895Y-55074D01*
X80103Y-55075D01*
X80297Y-54995D01*
X80444Y-54847D01*
X80500Y-54714D01*
X80554Y-54847D01*
X80650Y-54942D01*
X80650Y-55650D01*
X79297Y-55650D01*
X79297Y-54917D01*
X79000Y-54620D01*
X78702Y-54917D01*
X78727Y-55010D01*
X78924Y-55079D01*
X79132Y-55068D01*
X79272Y-55010D01*
X79297Y-54917D01*
X79297Y-55650D01*
X78350Y-55650D01*
X78350Y-55064D01*
X78416Y-55037D01*
X78486Y-54966D01*
X78524Y-54874D01*
X78525Y-54787D01*
X78539Y-54822D01*
X78632Y-54847D01*
X78929Y-54550D01*
X78632Y-54252D01*
X78539Y-54277D01*
X78525Y-54318D01*
X78525Y-54225D01*
X78487Y-54133D01*
X78416Y-54063D01*
X78324Y-54025D01*
X78225Y-54024D01*
X77675Y-54024D01*
X77583Y-54062D01*
X77513Y-54133D01*
X77475Y-54225D01*
X77474Y-54324D01*
X77474Y-54874D01*
X77512Y-54966D01*
X77583Y-55036D01*
X77650Y-55064D01*
X77650Y-56000D01*
X77676Y-56133D01*
X77752Y-56247D01*
X77866Y-56323D01*
X78000Y-56350D01*
X81000Y-56350D01*
X86000Y-56350D01*
X88705Y-56350D01*
X92650Y-60294D01*
X92650Y-61107D01*
X92555Y-61202D01*
X92499Y-61335D01*
X92445Y-61203D01*
X92297Y-61055D01*
X92104Y-60975D01*
X91896Y-60974D01*
X91703Y-61054D01*
X91555Y-61202D01*
X91499Y-61335D01*
X91445Y-61203D01*
X91297Y-61055D01*
X91104Y-60975D01*
X90896Y-60974D01*
X90703Y-61054D01*
X90555Y-61202D01*
X90499Y-61335D01*
X90445Y-61203D01*
X90297Y-61055D01*
X90104Y-60975D01*
X89896Y-60974D01*
X89703Y-61054D01*
X89555Y-61202D01*
X89499Y-61335D01*
X89445Y-61203D01*
X89297Y-61055D01*
X89104Y-60975D01*
X88896Y-60974D01*
X88703Y-61054D01*
X88555Y-61202D01*
X88499Y-61335D01*
X88445Y-61203D01*
X88297Y-61055D01*
X88104Y-60975D01*
X87896Y-60974D01*
X87703Y-61054D01*
X87555Y-61202D01*
X87499Y-61335D01*
X87445Y-61203D01*
X87297Y-61055D01*
X87104Y-60975D01*
X86896Y-60974D01*
X86703Y-61054D01*
X86555Y-61202D01*
X86499Y-61335D01*
X86445Y-61203D01*
X86297Y-61055D01*
X86104Y-60975D01*
X85896Y-60974D01*
X85703Y-61054D01*
X85555Y-61202D01*
X85499Y-61335D01*
X85445Y-61203D01*
X85297Y-61055D01*
X85104Y-60975D01*
X84896Y-60974D01*
X84703Y-61054D01*
X84555Y-61202D01*
X84475Y-61395D01*
X84474Y-61603D01*
X84554Y-61797D01*
X84702Y-61944D01*
X84895Y-62024D01*
X85103Y-62025D01*
X85297Y-61945D01*
X85444Y-61797D01*
X85500Y-61664D01*
X85554Y-61797D01*
X85702Y-61944D01*
X85895Y-62024D01*
X86103Y-62025D01*
X86297Y-61945D01*
X86444Y-61797D01*
X86500Y-61664D01*
X86554Y-61797D01*
X86702Y-61944D01*
X86895Y-62024D01*
X87103Y-62025D01*
X87297Y-61945D01*
X87444Y-61797D01*
X87500Y-61664D01*
X87554Y-61797D01*
X87702Y-61944D01*
X87895Y-62024D01*
X88103Y-62025D01*
X88297Y-61945D01*
X88444Y-61797D01*
X88500Y-61664D01*
X88554Y-61797D01*
X88702Y-61944D01*
X88895Y-62024D01*
X89103Y-62025D01*
X89297Y-61945D01*
X89444Y-61797D01*
X89500Y-61664D01*
X89554Y-61797D01*
X89702Y-61944D01*
X89895Y-62024D01*
X90103Y-62025D01*
X90297Y-61945D01*
X90444Y-61797D01*
X90500Y-61664D01*
X90554Y-61797D01*
X90702Y-61944D01*
X90895Y-62024D01*
X91103Y-62025D01*
X91297Y-61945D01*
X91444Y-61797D01*
X91500Y-61664D01*
X91554Y-61797D01*
X91702Y-61944D01*
X91895Y-62024D01*
X92103Y-62025D01*
X92297Y-61945D01*
X92444Y-61797D01*
X92500Y-61664D01*
X92554Y-61797D01*
X92702Y-61944D01*
X92895Y-62024D01*
X93103Y-62025D01*
X93297Y-61945D01*
X93444Y-61797D01*
X93500Y-61664D01*
X93554Y-61797D01*
X93702Y-61944D01*
X93895Y-62024D01*
X94103Y-62025D01*
X94297Y-61945D01*
X94444Y-61797D01*
X94500Y-61664D01*
X94554Y-61797D01*
X94702Y-61944D01*
X94895Y-62024D01*
X95103Y-62025D01*
X95297Y-61945D01*
X95444Y-61797D01*
X95497Y-61671D01*
X95539Y-61772D01*
X95632Y-61797D01*
X95929Y-61500D01*
X95632Y-61202D01*
X95539Y-61227D01*
X95500Y-61337D01*
X95445Y-61203D01*
X95297Y-61055D01*
X95104Y-60975D01*
X94896Y-60974D01*
X94703Y-61054D01*
X94555Y-61202D01*
X94499Y-61335D01*
X94445Y-61203D01*
X94297Y-61055D01*
X94104Y-60975D01*
X93896Y-60974D01*
X93703Y-61054D01*
X93555Y-61202D01*
X93499Y-61335D01*
X93445Y-61203D01*
X93350Y-61107D01*
X93350Y-60344D01*
X95444Y-58250D01*
X98300Y-58250D01*
X103655Y-58250D01*
X105750Y-60344D01*
X105750Y-68755D01*
X104525Y-69979D01*
X104525Y-67396D01*
X104525Y-61396D01*
X104445Y-61203D01*
X104297Y-61055D01*
X104104Y-60975D01*
X103896Y-60974D01*
X103703Y-61054D01*
X103555Y-61202D01*
X103499Y-61335D01*
X103445Y-61203D01*
X103297Y-61055D01*
X103104Y-60975D01*
X102896Y-60974D01*
X102703Y-61054D01*
X102555Y-61202D01*
X102499Y-61335D01*
X102445Y-61203D01*
X102297Y-61055D01*
X102104Y-60975D01*
X101896Y-60974D01*
X101703Y-61054D01*
X101555Y-61202D01*
X101499Y-61335D01*
X101445Y-61203D01*
X101297Y-61055D01*
X101104Y-60975D01*
X100896Y-60974D01*
X100703Y-61054D01*
X100555Y-61202D01*
X100499Y-61335D01*
X100445Y-61203D01*
X100297Y-61055D01*
X100104Y-60975D01*
X99896Y-60974D01*
X99703Y-61054D01*
X99555Y-61202D01*
X99499Y-61335D01*
X99445Y-61203D01*
X99297Y-61055D01*
X99104Y-60975D01*
X98896Y-60974D01*
X98703Y-61054D01*
X98555Y-61202D01*
X98499Y-61335D01*
X98445Y-61203D01*
X98297Y-61055D01*
X98104Y-60975D01*
X97896Y-60974D01*
X97703Y-61054D01*
X97555Y-61202D01*
X97499Y-61335D01*
X97445Y-61203D01*
X97297Y-61055D01*
X97104Y-60975D01*
X96896Y-60974D01*
X96703Y-61054D01*
X96555Y-61202D01*
X96502Y-61328D01*
X96460Y-61227D01*
X96367Y-61202D01*
X96297Y-61273D01*
X96297Y-61132D01*
X96272Y-61039D01*
X96075Y-60970D01*
X95867Y-60981D01*
X95727Y-61039D01*
X95702Y-61132D01*
X96000Y-61429D01*
X96297Y-61132D01*
X96297Y-61273D01*
X96070Y-61500D01*
X96367Y-61797D01*
X96460Y-61772D01*
X96499Y-61662D01*
X96554Y-61797D01*
X96702Y-61944D01*
X96895Y-62024D01*
X97103Y-62025D01*
X97297Y-61945D01*
X97444Y-61797D01*
X97500Y-61664D01*
X97554Y-61797D01*
X97702Y-61944D01*
X97895Y-62024D01*
X98103Y-62025D01*
X98297Y-61945D01*
X98444Y-61797D01*
X98500Y-61664D01*
X98554Y-61797D01*
X98702Y-61944D01*
X98895Y-62024D01*
X99103Y-62025D01*
X99297Y-61945D01*
X99444Y-61797D01*
X99500Y-61664D01*
X99554Y-61797D01*
X99702Y-61944D01*
X99895Y-62024D01*
X100103Y-62025D01*
X100297Y-61945D01*
X100444Y-61797D01*
X100500Y-61664D01*
X100554Y-61797D01*
X100702Y-61944D01*
X100895Y-62024D01*
X101103Y-62025D01*
X101297Y-61945D01*
X101444Y-61797D01*
X101500Y-61664D01*
X101554Y-61797D01*
X101702Y-61944D01*
X101895Y-62024D01*
X102103Y-62025D01*
X102297Y-61945D01*
X102444Y-61797D01*
X102500Y-61664D01*
X102554Y-61797D01*
X102702Y-61944D01*
X102895Y-62024D01*
X103103Y-62025D01*
X103297Y-61945D01*
X103444Y-61797D01*
X103500Y-61664D01*
X103554Y-61797D01*
X103702Y-61944D01*
X103895Y-62024D01*
X104103Y-62025D01*
X104297Y-61945D01*
X104444Y-61797D01*
X104524Y-61604D01*
X104525Y-61396D01*
X104525Y-67396D01*
X104445Y-67203D01*
X104297Y-67055D01*
X104104Y-66975D01*
X103896Y-66974D01*
X103703Y-67054D01*
X103555Y-67202D01*
X103499Y-67335D01*
X103445Y-67203D01*
X103297Y-67055D01*
X103104Y-66975D01*
X102896Y-66974D01*
X102703Y-67054D01*
X102555Y-67202D01*
X102499Y-67335D01*
X102445Y-67203D01*
X102297Y-67055D01*
X102104Y-66975D01*
X101896Y-66974D01*
X101703Y-67054D01*
X101555Y-67202D01*
X101499Y-67335D01*
X101445Y-67203D01*
X101297Y-67055D01*
X101104Y-66975D01*
X100896Y-66974D01*
X100703Y-67054D01*
X100555Y-67202D01*
X100499Y-67335D01*
X100445Y-67203D01*
X100297Y-67055D01*
X100104Y-66975D01*
X99896Y-66974D01*
X99703Y-67054D01*
X99555Y-67202D01*
X99499Y-67335D01*
X99445Y-67203D01*
X99297Y-67055D01*
X99104Y-66975D01*
X98896Y-66974D01*
X98703Y-67054D01*
X98555Y-67202D01*
X98499Y-67335D01*
X98445Y-67203D01*
X98297Y-67055D01*
X98104Y-66975D01*
X97896Y-66974D01*
X97703Y-67054D01*
X97555Y-67202D01*
X97499Y-67335D01*
X97445Y-67203D01*
X97297Y-67055D01*
X97104Y-66975D01*
X96896Y-66974D01*
X96703Y-67054D01*
X96555Y-67202D01*
X96499Y-67335D01*
X96445Y-67203D01*
X96297Y-67055D01*
X96297Y-67054D01*
X96297Y-61867D01*
X96000Y-61570D01*
X95702Y-61867D01*
X95727Y-61960D01*
X95924Y-62029D01*
X96132Y-62018D01*
X96272Y-61960D01*
X96297Y-61867D01*
X96297Y-67054D01*
X96104Y-66975D01*
X95896Y-66974D01*
X95703Y-67054D01*
X95555Y-67202D01*
X95499Y-67335D01*
X95445Y-67203D01*
X95297Y-67055D01*
X95104Y-66975D01*
X94896Y-66974D01*
X94703Y-67054D01*
X94555Y-67202D01*
X94502Y-67328D01*
X94460Y-67227D01*
X94367Y-67202D01*
X94297Y-67273D01*
X94297Y-67132D01*
X94272Y-67039D01*
X94075Y-66970D01*
X93867Y-66981D01*
X93727Y-67039D01*
X93702Y-67132D01*
X94000Y-67429D01*
X94297Y-67132D01*
X94297Y-67273D01*
X94070Y-67500D01*
X94367Y-67797D01*
X94460Y-67772D01*
X94499Y-67662D01*
X94554Y-67797D01*
X94702Y-67944D01*
X94895Y-68024D01*
X95103Y-68025D01*
X95297Y-67945D01*
X95444Y-67797D01*
X95500Y-67664D01*
X95554Y-67797D01*
X95702Y-67944D01*
X95895Y-68024D01*
X96103Y-68025D01*
X96297Y-67945D01*
X96444Y-67797D01*
X96500Y-67664D01*
X96554Y-67797D01*
X96702Y-67944D01*
X96895Y-68024D01*
X97103Y-68025D01*
X97297Y-67945D01*
X97444Y-67797D01*
X97500Y-67664D01*
X97554Y-67797D01*
X97702Y-67944D01*
X97895Y-68024D01*
X98103Y-68025D01*
X98297Y-67945D01*
X98444Y-67797D01*
X98500Y-67664D01*
X98554Y-67797D01*
X98702Y-67944D01*
X98895Y-68024D01*
X99103Y-68025D01*
X99297Y-67945D01*
X99444Y-67797D01*
X99500Y-67664D01*
X99554Y-67797D01*
X99702Y-67944D01*
X99895Y-68024D01*
X100103Y-68025D01*
X100297Y-67945D01*
X100444Y-67797D01*
X100500Y-67664D01*
X100554Y-67797D01*
X100702Y-67944D01*
X100895Y-68024D01*
X101103Y-68025D01*
X101297Y-67945D01*
X101444Y-67797D01*
X101500Y-67664D01*
X101554Y-67797D01*
X101702Y-67944D01*
X101895Y-68024D01*
X102103Y-68025D01*
X102297Y-67945D01*
X102444Y-67797D01*
X102500Y-67664D01*
X102554Y-67797D01*
X102702Y-67944D01*
X102895Y-68024D01*
X103103Y-68025D01*
X103297Y-67945D01*
X103444Y-67797D01*
X103500Y-67664D01*
X103554Y-67797D01*
X103702Y-67944D01*
X103895Y-68024D01*
X104103Y-68025D01*
X104297Y-67945D01*
X104444Y-67797D01*
X104524Y-67604D01*
X104525Y-67396D01*
X104525Y-69979D01*
X102029Y-72475D01*
X101896Y-72474D01*
X101703Y-72554D01*
X101555Y-72702D01*
X101499Y-72835D01*
X101445Y-72703D01*
X101297Y-72555D01*
X101104Y-72475D01*
X100896Y-72474D01*
X100703Y-72554D01*
X100555Y-72702D01*
X100499Y-72835D01*
X100445Y-72703D01*
X100297Y-72555D01*
X100104Y-72475D01*
X99896Y-72474D01*
X99703Y-72554D01*
X99555Y-72702D01*
X99499Y-72835D01*
X99445Y-72703D01*
X99297Y-72555D01*
X99104Y-72475D01*
X98896Y-72474D01*
X98703Y-72554D01*
X98555Y-72702D01*
X98499Y-72835D01*
X98445Y-72703D01*
X98297Y-72555D01*
X98104Y-72475D01*
X97896Y-72474D01*
X97703Y-72554D01*
X97555Y-72702D01*
X97499Y-72835D01*
X97445Y-72703D01*
X97297Y-72555D01*
X97104Y-72475D01*
X96896Y-72474D01*
X96703Y-72554D01*
X96555Y-72702D01*
X96475Y-72895D01*
X96474Y-73103D01*
X96554Y-73297D01*
X96702Y-73444D01*
X96895Y-73524D01*
X97103Y-73525D01*
X97297Y-73445D01*
X97444Y-73297D01*
X97500Y-73164D01*
X97554Y-73297D01*
X97702Y-73444D01*
X97895Y-73524D01*
X98103Y-73525D01*
X98297Y-73445D01*
X98444Y-73297D01*
X98500Y-73164D01*
X98554Y-73297D01*
X98702Y-73444D01*
X98895Y-73524D01*
X99103Y-73525D01*
X99297Y-73445D01*
X99444Y-73297D01*
X99500Y-73164D01*
X99554Y-73297D01*
X99702Y-73444D01*
X99895Y-73524D01*
X100103Y-73525D01*
X100297Y-73445D01*
X100444Y-73297D01*
X100500Y-73164D01*
X100554Y-73297D01*
X100702Y-73444D01*
X100895Y-73524D01*
X101103Y-73525D01*
X101297Y-73445D01*
X101444Y-73297D01*
X101500Y-73164D01*
X101554Y-73297D01*
X101650Y-73392D01*
X101650Y-76607D01*
X101555Y-76702D01*
X101499Y-76835D01*
X101445Y-76703D01*
X101297Y-76555D01*
X101104Y-76475D01*
X100896Y-76474D01*
X100703Y-76554D01*
X100555Y-76702D01*
X100499Y-76835D01*
X100445Y-76703D01*
X100297Y-76555D01*
X100104Y-76475D01*
X99896Y-76474D01*
X99703Y-76554D01*
X99555Y-76702D01*
X99499Y-76835D01*
X99445Y-76703D01*
X99297Y-76555D01*
X99104Y-76475D01*
X98896Y-76474D01*
X98703Y-76554D01*
X98555Y-76702D01*
X98499Y-76835D01*
X98445Y-76703D01*
X98297Y-76555D01*
X98104Y-76475D01*
X97896Y-76474D01*
X97703Y-76554D01*
X97555Y-76702D01*
X97499Y-76835D01*
X97445Y-76703D01*
X97297Y-76555D01*
X97104Y-76475D01*
X96896Y-76474D01*
X96703Y-76554D01*
X96555Y-76702D01*
X96475Y-76895D01*
X96474Y-77103D01*
X96554Y-77297D01*
X96702Y-77444D01*
X96895Y-77524D01*
X97103Y-77525D01*
X97297Y-77445D01*
X97444Y-77297D01*
X97500Y-77164D01*
X97554Y-77297D01*
X97702Y-77444D01*
X97895Y-77524D01*
X98103Y-77525D01*
X98297Y-77445D01*
X98444Y-77297D01*
X98500Y-77164D01*
X98554Y-77297D01*
X98702Y-77444D01*
X98895Y-77524D01*
X99103Y-77525D01*
X99297Y-77445D01*
X99444Y-77297D01*
X99500Y-77164D01*
X99554Y-77297D01*
X99702Y-77444D01*
X99895Y-77524D01*
X100103Y-77525D01*
X100297Y-77445D01*
X100444Y-77297D01*
X100500Y-77164D01*
X100554Y-77297D01*
X100702Y-77444D01*
X100895Y-77524D01*
X101103Y-77525D01*
X101297Y-77445D01*
X101444Y-77297D01*
X101500Y-77164D01*
X101554Y-77297D01*
X101702Y-77444D01*
X101895Y-77524D01*
X102103Y-77525D01*
X102297Y-77445D01*
X102444Y-77297D01*
X102474Y-77225D01*
X102474Y-77225D01*
X102475Y-77324D01*
X102513Y-77416D01*
X102583Y-77487D01*
X102675Y-77525D01*
X102887Y-77525D01*
X102950Y-77462D01*
X102950Y-77050D01*
X102942Y-77050D01*
X102942Y-76950D01*
X102950Y-76950D01*
X102950Y-76537D01*
X102887Y-76475D01*
X102675Y-76474D01*
X102583Y-76512D01*
X102513Y-76583D01*
X102475Y-76675D01*
X102474Y-76774D01*
X102474Y-76774D01*
X102445Y-76703D01*
X102350Y-76607D01*
X102350Y-73392D01*
X102444Y-73297D01*
X102474Y-73225D01*
X102474Y-73225D01*
X102475Y-73324D01*
X102513Y-73416D01*
X102583Y-73487D01*
X102675Y-73525D01*
X102887Y-73525D01*
X102950Y-73462D01*
X102950Y-73050D01*
X102942Y-73050D01*
X102942Y-72950D01*
X102950Y-72950D01*
X102950Y-72942D01*
X103050Y-72942D01*
X103050Y-72950D01*
X103462Y-72950D01*
X103525Y-72887D01*
X103525Y-72774D01*
X103524Y-72675D01*
X103486Y-72583D01*
X103416Y-72512D01*
X103324Y-72474D01*
X103112Y-72475D01*
X103050Y-72537D01*
X103050Y-72475D01*
X103019Y-72475D01*
X106347Y-69147D01*
X106423Y-69033D01*
X106423Y-69033D01*
X106450Y-68900D01*
X106450Y-76851D01*
X106383Y-76851D01*
X106011Y-77005D01*
X105923Y-77152D01*
X106600Y-77829D01*
X107276Y-77152D01*
X107276Y-77294D01*
X106670Y-77900D01*
X107347Y-78576D01*
X107480Y-78496D01*
X107480Y-78780D01*
X107480Y-78780D01*
G37*
G54D16*
X107480Y-78780D02*
X107196Y-78780D01*
X107276Y-78647D01*
X106600Y-77970D01*
X106529Y-78041D01*
X106529Y-77900D01*
X105852Y-77223D01*
X105705Y-77311D01*
X105548Y-77698D01*
X105551Y-78116D01*
X105705Y-78488D01*
X105852Y-78576D01*
X106529Y-77900D01*
X106529Y-78041D01*
X105923Y-78647D01*
X106003Y-78780D01*
X103525Y-78780D01*
X103525Y-77225D01*
X103525Y-76774D01*
X103525Y-73225D01*
X103525Y-73112D01*
X103462Y-73050D01*
X103050Y-73050D01*
X103050Y-73462D01*
X103112Y-73525D01*
X103324Y-73525D01*
X103416Y-73487D01*
X103486Y-73416D01*
X103524Y-73324D01*
X103525Y-73225D01*
X103525Y-76774D01*
X103524Y-76675D01*
X103486Y-76583D01*
X103416Y-76512D01*
X103324Y-76474D01*
X103112Y-76475D01*
X103050Y-76537D01*
X103050Y-76950D01*
X103462Y-76950D01*
X103525Y-76887D01*
X103525Y-76774D01*
X103525Y-77225D01*
X103525Y-77112D01*
X103462Y-77050D01*
X103050Y-77050D01*
X103050Y-77462D01*
X103112Y-77525D01*
X103324Y-77525D01*
X103416Y-77487D01*
X103486Y-77416D01*
X103524Y-77324D01*
X103525Y-77225D01*
X103525Y-78780D01*
X94297Y-78780D01*
X94297Y-67867D01*
X94000Y-67570D01*
X93929Y-67641D01*
X93929Y-67500D01*
X93632Y-67202D01*
X93539Y-67227D01*
X93503Y-67330D01*
X93460Y-67227D01*
X93367Y-67202D01*
X93297Y-67273D01*
X93297Y-67132D01*
X93272Y-67039D01*
X93075Y-66970D01*
X92867Y-66981D01*
X92727Y-67039D01*
X92702Y-67132D01*
X93000Y-67429D01*
X93297Y-67132D01*
X93297Y-67273D01*
X93070Y-67500D01*
X93367Y-67797D01*
X93460Y-67772D01*
X93496Y-67669D01*
X93539Y-67772D01*
X93632Y-67797D01*
X93929Y-67500D01*
X93929Y-67641D01*
X93702Y-67867D01*
X93727Y-67960D01*
X93924Y-68029D01*
X94132Y-68018D01*
X94272Y-67960D01*
X94297Y-67867D01*
X94297Y-78780D01*
X93584Y-78780D01*
X93584Y-76088D01*
X93574Y-75858D01*
X93525Y-75739D01*
X93525Y-74725D01*
X93525Y-74175D01*
X93487Y-74083D01*
X93416Y-74013D01*
X93385Y-74000D01*
X93416Y-73987D01*
X93486Y-73916D01*
X93524Y-73824D01*
X93525Y-73725D01*
X93525Y-73274D01*
X93524Y-73175D01*
X93486Y-73083D01*
X93416Y-73012D01*
X93324Y-72974D01*
X93297Y-72974D01*
X93297Y-67867D01*
X93000Y-67570D01*
X92929Y-67641D01*
X92929Y-67500D01*
X92632Y-67202D01*
X92539Y-67227D01*
X92500Y-67337D01*
X92445Y-67203D01*
X92297Y-67055D01*
X92104Y-66975D01*
X91896Y-66974D01*
X91703Y-67054D01*
X91555Y-67202D01*
X91499Y-67335D01*
X91445Y-67203D01*
X91297Y-67055D01*
X91104Y-66975D01*
X90896Y-66974D01*
X90703Y-67054D01*
X90555Y-67202D01*
X90499Y-67335D01*
X90445Y-67203D01*
X90297Y-67055D01*
X90104Y-66975D01*
X89896Y-66974D01*
X89703Y-67054D01*
X89555Y-67202D01*
X89499Y-67335D01*
X89445Y-67203D01*
X89297Y-67055D01*
X89104Y-66975D01*
X88896Y-66974D01*
X88703Y-67054D01*
X88555Y-67202D01*
X88499Y-67335D01*
X88445Y-67203D01*
X88297Y-67055D01*
X88104Y-66975D01*
X87896Y-66974D01*
X87703Y-67054D01*
X87555Y-67202D01*
X87499Y-67335D01*
X87445Y-67203D01*
X87297Y-67055D01*
X87104Y-66975D01*
X86896Y-66974D01*
X86703Y-67054D01*
X86555Y-67202D01*
X86499Y-67335D01*
X86445Y-67203D01*
X86297Y-67055D01*
X86104Y-66975D01*
X85896Y-66974D01*
X85703Y-67054D01*
X85555Y-67202D01*
X85525Y-67274D01*
X85525Y-67175D01*
X85487Y-67083D01*
X85416Y-67013D01*
X85324Y-66975D01*
X85225Y-66974D01*
X84675Y-66974D01*
X84583Y-67012D01*
X84513Y-67083D01*
X84475Y-67175D01*
X84474Y-67274D01*
X84474Y-67824D01*
X84512Y-67916D01*
X84583Y-67986D01*
X84675Y-68024D01*
X84774Y-68025D01*
X85324Y-68025D01*
X85416Y-67987D01*
X85486Y-67916D01*
X85524Y-67824D01*
X85525Y-67725D01*
X85525Y-67725D01*
X85554Y-67797D01*
X85702Y-67944D01*
X85895Y-68024D01*
X86103Y-68025D01*
X86297Y-67945D01*
X86444Y-67797D01*
X86500Y-67664D01*
X86554Y-67797D01*
X86702Y-67944D01*
X86895Y-68024D01*
X87103Y-68025D01*
X87297Y-67945D01*
X87444Y-67797D01*
X87500Y-67664D01*
X87554Y-67797D01*
X87702Y-67944D01*
X87895Y-68024D01*
X88103Y-68025D01*
X88297Y-67945D01*
X88444Y-67797D01*
X88500Y-67664D01*
X88554Y-67797D01*
X88702Y-67944D01*
X88895Y-68024D01*
X89103Y-68025D01*
X89297Y-67945D01*
X89444Y-67797D01*
X89500Y-67664D01*
X89554Y-67797D01*
X89702Y-67944D01*
X89895Y-68024D01*
X90103Y-68025D01*
X90297Y-67945D01*
X90444Y-67797D01*
X90500Y-67664D01*
X90554Y-67797D01*
X90702Y-67944D01*
X90895Y-68024D01*
X91103Y-68025D01*
X91297Y-67945D01*
X91444Y-67797D01*
X91500Y-67664D01*
X91554Y-67797D01*
X91702Y-67944D01*
X91895Y-68024D01*
X92103Y-68025D01*
X92297Y-67945D01*
X92444Y-67797D01*
X92497Y-67671D01*
X92539Y-67772D01*
X92632Y-67797D01*
X92929Y-67500D01*
X92929Y-67641D01*
X92702Y-67867D01*
X92727Y-67960D01*
X92924Y-68029D01*
X93132Y-68018D01*
X93272Y-67960D01*
X93297Y-67867D01*
X93297Y-72974D01*
X93112Y-72975D01*
X93050Y-73037D01*
X93050Y-73450D01*
X93462Y-73450D01*
X93525Y-73387D01*
X93525Y-73274D01*
X93525Y-73725D01*
X93525Y-73612D01*
X93462Y-73550D01*
X93050Y-73550D01*
X93050Y-73557D01*
X92950Y-73557D01*
X92950Y-73550D01*
X92942Y-73550D01*
X92942Y-73450D01*
X92950Y-73450D01*
X92950Y-73037D01*
X92887Y-72975D01*
X92675Y-72974D01*
X92583Y-73012D01*
X92513Y-73083D01*
X92475Y-73175D01*
X92474Y-73274D01*
X92474Y-73274D01*
X92445Y-73203D01*
X92297Y-73055D01*
X92104Y-72975D01*
X91896Y-72974D01*
X91703Y-73054D01*
X91555Y-73202D01*
X91499Y-73335D01*
X91445Y-73203D01*
X91297Y-73055D01*
X91104Y-72975D01*
X90896Y-72974D01*
X90703Y-73054D01*
X90555Y-73202D01*
X90499Y-73335D01*
X90445Y-73203D01*
X90297Y-73055D01*
X90104Y-72975D01*
X89896Y-72974D01*
X89703Y-73054D01*
X89555Y-73202D01*
X89499Y-73335D01*
X89445Y-73203D01*
X89297Y-73055D01*
X89104Y-72975D01*
X88896Y-72974D01*
X88703Y-73054D01*
X88555Y-73202D01*
X88499Y-73335D01*
X88445Y-73203D01*
X88297Y-73055D01*
X88104Y-72975D01*
X87896Y-72974D01*
X87703Y-73054D01*
X87555Y-73202D01*
X87499Y-73335D01*
X87445Y-73203D01*
X87297Y-73055D01*
X87104Y-72975D01*
X86896Y-72974D01*
X86703Y-73054D01*
X86555Y-73202D01*
X86499Y-73335D01*
X86445Y-73203D01*
X86297Y-73055D01*
X86104Y-72975D01*
X85896Y-72974D01*
X85703Y-73054D01*
X85555Y-73202D01*
X85499Y-73335D01*
X85445Y-73203D01*
X85297Y-73055D01*
X85104Y-72975D01*
X84896Y-72974D01*
X84703Y-73054D01*
X84555Y-73202D01*
X84499Y-73335D01*
X84445Y-73203D01*
X84297Y-73055D01*
X84104Y-72975D01*
X84025Y-72975D01*
X84025Y-63896D01*
X83945Y-63703D01*
X83797Y-63555D01*
X83664Y-63499D01*
X83797Y-63445D01*
X83944Y-63297D01*
X84024Y-63104D01*
X84025Y-62896D01*
X84025Y-61396D01*
X83945Y-61203D01*
X83797Y-61055D01*
X83725Y-61025D01*
X83797Y-60995D01*
X83944Y-60847D01*
X84024Y-60654D01*
X84025Y-60446D01*
X83945Y-60253D01*
X83797Y-60105D01*
X83604Y-60025D01*
X83396Y-60024D01*
X83203Y-60104D01*
X83055Y-60252D01*
X82975Y-60445D01*
X82974Y-60653D01*
X83054Y-60847D01*
X83202Y-60994D01*
X83274Y-61024D01*
X83203Y-61054D01*
X83055Y-61202D01*
X82975Y-61395D01*
X82974Y-61603D01*
X83054Y-61797D01*
X83202Y-61944D01*
X83395Y-62024D01*
X83603Y-62025D01*
X83797Y-61945D01*
X83944Y-61797D01*
X84024Y-61604D01*
X84025Y-61396D01*
X84025Y-62896D01*
X83945Y-62703D01*
X83797Y-62555D01*
X83604Y-62475D01*
X83396Y-62474D01*
X83203Y-62554D01*
X83055Y-62702D01*
X82975Y-62895D01*
X82974Y-63103D01*
X83054Y-63297D01*
X83202Y-63444D01*
X83335Y-63500D01*
X83203Y-63554D01*
X83055Y-63702D01*
X82975Y-63895D01*
X82974Y-64103D01*
X83054Y-64297D01*
X83202Y-64444D01*
X83395Y-64524D01*
X83603Y-64525D01*
X83797Y-64445D01*
X83944Y-64297D01*
X84024Y-64104D01*
X84025Y-63896D01*
X84025Y-72975D01*
X83896Y-72974D01*
X83703Y-73054D01*
X83555Y-73202D01*
X83475Y-73395D01*
X83474Y-73603D01*
X83554Y-73797D01*
X83702Y-73944D01*
X83835Y-74000D01*
X83703Y-74054D01*
X83555Y-74202D01*
X83475Y-74395D01*
X83474Y-74603D01*
X83554Y-74797D01*
X83702Y-74944D01*
X83895Y-75024D01*
X84103Y-75025D01*
X84297Y-74945D01*
X84444Y-74797D01*
X84500Y-74664D01*
X84554Y-74797D01*
X84702Y-74944D01*
X84895Y-75024D01*
X85103Y-75025D01*
X85297Y-74945D01*
X85444Y-74797D01*
X85500Y-74664D01*
X85554Y-74797D01*
X85702Y-74944D01*
X85895Y-75024D01*
X86103Y-75025D01*
X86297Y-74945D01*
X86444Y-74797D01*
X86500Y-74664D01*
X86554Y-74797D01*
X86702Y-74944D01*
X86895Y-75024D01*
X87103Y-75025D01*
X87297Y-74945D01*
X87444Y-74797D01*
X87500Y-74664D01*
X87554Y-74797D01*
X87702Y-74944D01*
X87895Y-75024D01*
X88103Y-75025D01*
X88297Y-74945D01*
X88444Y-74797D01*
X88500Y-74664D01*
X88554Y-74797D01*
X88702Y-74944D01*
X88895Y-75024D01*
X89103Y-75025D01*
X89297Y-74945D01*
X89444Y-74797D01*
X89500Y-74664D01*
X89554Y-74797D01*
X89702Y-74944D01*
X89895Y-75024D01*
X90103Y-75025D01*
X90297Y-74945D01*
X90444Y-74797D01*
X90500Y-74664D01*
X90554Y-74797D01*
X90702Y-74944D01*
X90895Y-75024D01*
X91103Y-75025D01*
X91297Y-74945D01*
X91444Y-74797D01*
X91500Y-74664D01*
X91554Y-74797D01*
X91702Y-74944D01*
X91895Y-75024D01*
X92103Y-75025D01*
X92297Y-74945D01*
X92444Y-74797D01*
X92474Y-74725D01*
X92474Y-74824D01*
X92512Y-74916D01*
X92583Y-74986D01*
X92675Y-75024D01*
X92774Y-75025D01*
X93324Y-75025D01*
X93416Y-74987D01*
X93486Y-74916D01*
X93524Y-74824D01*
X93525Y-74725D01*
X93525Y-75739D01*
X93506Y-75694D01*
X93407Y-75663D01*
X93336Y-75733D01*
X93336Y-75592D01*
X93305Y-75493D01*
X93088Y-75415D01*
X92858Y-75425D01*
X92694Y-75493D01*
X92663Y-75592D01*
X93000Y-75929D01*
X93336Y-75592D01*
X93336Y-75733D01*
X93070Y-76000D01*
X93407Y-76336D01*
X93506Y-76305D01*
X93584Y-76088D01*
X93584Y-78780D01*
X93336Y-78780D01*
X93336Y-76407D01*
X93000Y-76070D01*
X92929Y-76141D01*
X92929Y-76000D01*
X92592Y-75663D01*
X92500Y-75692D01*
X92491Y-75671D01*
X92328Y-75508D01*
X92115Y-75420D01*
X91885Y-75419D01*
X91671Y-75508D01*
X91508Y-75671D01*
X91420Y-75884D01*
X91419Y-76114D01*
X91508Y-76328D01*
X91671Y-76491D01*
X91884Y-76579D01*
X92114Y-76580D01*
X92328Y-76491D01*
X92491Y-76328D01*
X92500Y-76307D01*
X92592Y-76336D01*
X92929Y-76000D01*
X92929Y-76141D01*
X92663Y-76407D01*
X92694Y-76506D01*
X92911Y-76584D01*
X93141Y-76574D01*
X93305Y-76506D01*
X93336Y-76407D01*
X93336Y-78780D01*
X90025Y-78780D01*
X90025Y-75896D01*
X89945Y-75703D01*
X89797Y-75555D01*
X89604Y-75475D01*
X89396Y-75474D01*
X89203Y-75554D01*
X89055Y-75702D01*
X88975Y-75895D01*
X88974Y-76103D01*
X89054Y-76297D01*
X89202Y-76444D01*
X89395Y-76524D01*
X89603Y-76525D01*
X89797Y-76445D01*
X89944Y-76297D01*
X90024Y-76104D01*
X90025Y-75896D01*
X90025Y-78780D01*
X87025Y-78780D01*
X87025Y-75896D01*
X86945Y-75703D01*
X86797Y-75555D01*
X86604Y-75475D01*
X86396Y-75474D01*
X86203Y-75554D01*
X86055Y-75702D01*
X85975Y-75895D01*
X85974Y-76103D01*
X86054Y-76297D01*
X86202Y-76444D01*
X86395Y-76524D01*
X86603Y-76525D01*
X86797Y-76445D01*
X86944Y-76297D01*
X87024Y-76104D01*
X87025Y-75896D01*
X87025Y-78780D01*
X83275Y-78780D01*
X83275Y-71146D01*
X83275Y-68146D01*
X83195Y-67953D01*
X83047Y-67805D01*
X82854Y-67725D01*
X82646Y-67724D01*
X82453Y-67804D01*
X82305Y-67952D01*
X82275Y-68024D01*
X82275Y-67925D01*
X82237Y-67833D01*
X82166Y-67763D01*
X82074Y-67725D01*
X81975Y-67724D01*
X81425Y-67724D01*
X81333Y-67762D01*
X81263Y-67833D01*
X81225Y-67925D01*
X81224Y-68024D01*
X81224Y-68574D01*
X81262Y-68666D01*
X81333Y-68736D01*
X81425Y-68774D01*
X81524Y-68775D01*
X82074Y-68775D01*
X82166Y-68737D01*
X82236Y-68666D01*
X82274Y-68574D01*
X82275Y-68475D01*
X82275Y-68475D01*
X82304Y-68547D01*
X82452Y-68694D01*
X82645Y-68774D01*
X82853Y-68775D01*
X83047Y-68695D01*
X83194Y-68547D01*
X83274Y-68354D01*
X83275Y-68146D01*
X83275Y-71146D01*
X83195Y-70953D01*
X83047Y-70805D01*
X82854Y-70725D01*
X82646Y-70724D01*
X82453Y-70804D01*
X82305Y-70952D01*
X82275Y-71024D01*
X82275Y-70925D01*
X82237Y-70833D01*
X82166Y-70763D01*
X82074Y-70725D01*
X81975Y-70724D01*
X81425Y-70724D01*
X81333Y-70762D01*
X81263Y-70833D01*
X81225Y-70925D01*
X81224Y-71024D01*
X81224Y-71574D01*
X81262Y-71666D01*
X81333Y-71736D01*
X81425Y-71774D01*
X81524Y-71775D01*
X82074Y-71775D01*
X82166Y-71737D01*
X82236Y-71666D01*
X82274Y-71574D01*
X82275Y-71475D01*
X82275Y-71475D01*
X82304Y-71547D01*
X82452Y-71694D01*
X82645Y-71774D01*
X82853Y-71775D01*
X83047Y-71695D01*
X83194Y-71547D01*
X83274Y-71354D01*
X83275Y-71146D01*
X83275Y-78780D01*
X81025Y-78780D01*
X81025Y-63896D01*
X80945Y-63703D01*
X80797Y-63555D01*
X80664Y-63499D01*
X80797Y-63445D01*
X80944Y-63297D01*
X81024Y-63104D01*
X81025Y-62896D01*
X81025Y-61396D01*
X80945Y-61203D01*
X80797Y-61055D01*
X80725Y-61025D01*
X80797Y-60995D01*
X80944Y-60847D01*
X81024Y-60654D01*
X81025Y-60446D01*
X80945Y-60253D01*
X80797Y-60105D01*
X80604Y-60025D01*
X80396Y-60024D01*
X80203Y-60104D01*
X80055Y-60252D01*
X79975Y-60445D01*
X79974Y-60653D01*
X80054Y-60847D01*
X80202Y-60994D01*
X80274Y-61024D01*
X80203Y-61054D01*
X80055Y-61202D01*
X79975Y-61395D01*
X79974Y-61603D01*
X80054Y-61797D01*
X80202Y-61944D01*
X80395Y-62024D01*
X80603Y-62025D01*
X80797Y-61945D01*
X80944Y-61797D01*
X81024Y-61604D01*
X81025Y-61396D01*
X81025Y-62896D01*
X80945Y-62703D01*
X80797Y-62555D01*
X80604Y-62475D01*
X80396Y-62474D01*
X80203Y-62554D01*
X80055Y-62702D01*
X79975Y-62895D01*
X79974Y-63103D01*
X80054Y-63297D01*
X80202Y-63444D01*
X80335Y-63500D01*
X80203Y-63554D01*
X80055Y-63702D01*
X79975Y-63895D01*
X79974Y-64103D01*
X80054Y-64297D01*
X80202Y-64444D01*
X80395Y-64524D01*
X80603Y-64525D01*
X80797Y-64445D01*
X80944Y-64297D01*
X81024Y-64104D01*
X81025Y-63896D01*
X81025Y-78780D01*
X76279Y-78780D01*
X76279Y-71325D01*
X76275Y-71237D01*
X76275Y-68146D01*
X76195Y-67953D01*
X76047Y-67805D01*
X75854Y-67725D01*
X75801Y-67725D01*
X75801Y-54001D01*
X75798Y-53583D01*
X75644Y-53211D01*
X75497Y-53123D01*
X74820Y-53800D01*
X75497Y-54476D01*
X75644Y-54388D01*
X75801Y-54001D01*
X75801Y-67725D01*
X75646Y-67724D01*
X75453Y-67804D01*
X75426Y-67831D01*
X75426Y-54547D01*
X74750Y-53870D01*
X74073Y-54547D01*
X74161Y-54694D01*
X74548Y-54851D01*
X74966Y-54848D01*
X75338Y-54694D01*
X75426Y-54547D01*
X75426Y-67831D01*
X75305Y-67952D01*
X75275Y-68024D01*
X75275Y-67925D01*
X75237Y-67833D01*
X75166Y-67763D01*
X75074Y-67725D01*
X74975Y-67724D01*
X74425Y-67724D01*
X74333Y-67762D01*
X74263Y-67833D01*
X74225Y-67925D01*
X74224Y-68024D01*
X74224Y-68574D01*
X74262Y-68666D01*
X74333Y-68736D01*
X74425Y-68774D01*
X74524Y-68775D01*
X75074Y-68775D01*
X75166Y-68737D01*
X75236Y-68666D01*
X75274Y-68574D01*
X75275Y-68475D01*
X75275Y-68475D01*
X75304Y-68547D01*
X75452Y-68694D01*
X75645Y-68774D01*
X75853Y-68775D01*
X76047Y-68695D01*
X76194Y-68547D01*
X76274Y-68354D01*
X76275Y-68146D01*
X76275Y-71237D01*
X76268Y-71117D01*
X76210Y-70977D01*
X76117Y-70952D01*
X76047Y-71023D01*
X76047Y-70882D01*
X76022Y-70789D01*
X75825Y-70720D01*
X75617Y-70731D01*
X75477Y-70789D01*
X75452Y-70882D01*
X75750Y-71179D01*
X76047Y-70882D01*
X76047Y-71023D01*
X75820Y-71250D01*
X76117Y-71547D01*
X76210Y-71522D01*
X76279Y-71325D01*
X76279Y-78780D01*
X76047Y-78780D01*
X76047Y-71617D01*
X75750Y-71320D01*
X75679Y-71391D01*
X75679Y-71250D01*
X75382Y-70952D01*
X75289Y-70977D01*
X75275Y-71018D01*
X75274Y-70925D01*
X75236Y-70833D01*
X75166Y-70762D01*
X75074Y-70724D01*
X74862Y-70725D01*
X74800Y-70787D01*
X74800Y-71200D01*
X74807Y-71200D01*
X74807Y-71300D01*
X74800Y-71300D01*
X74800Y-71712D01*
X74862Y-71775D01*
X75074Y-71775D01*
X75166Y-71737D01*
X75236Y-71666D01*
X75274Y-71574D01*
X75275Y-71487D01*
X75289Y-71522D01*
X75382Y-71547D01*
X75679Y-71250D01*
X75679Y-71391D01*
X75452Y-71617D01*
X75477Y-71710D01*
X75674Y-71779D01*
X75882Y-71768D01*
X76022Y-71710D01*
X76047Y-71617D01*
X76047Y-78780D01*
X75851Y-78780D01*
X75851Y-78151D01*
X75848Y-77733D01*
X75694Y-77361D01*
X75547Y-77273D01*
X75476Y-77344D01*
X75476Y-77202D01*
X75388Y-77055D01*
X75001Y-76898D01*
X74700Y-76900D01*
X74700Y-71712D01*
X74700Y-71300D01*
X74700Y-71200D01*
X74700Y-70787D01*
X74637Y-70725D01*
X74425Y-70724D01*
X74333Y-70762D01*
X74263Y-70833D01*
X74225Y-70925D01*
X74224Y-71024D01*
X74225Y-71137D01*
X74287Y-71200D01*
X74700Y-71200D01*
X74700Y-71300D01*
X74287Y-71300D01*
X74225Y-71362D01*
X74224Y-71475D01*
X74225Y-71574D01*
X74263Y-71666D01*
X74333Y-71737D01*
X74425Y-71775D01*
X74637Y-71775D01*
X74700Y-71712D01*
X74700Y-76900D01*
X74583Y-76901D01*
X74211Y-77055D01*
X74123Y-77202D01*
X74800Y-77879D01*
X75476Y-77202D01*
X75476Y-77344D01*
X74870Y-77950D01*
X75547Y-78626D01*
X75694Y-78538D01*
X75851Y-78151D01*
X75851Y-78780D01*
X75426Y-78780D01*
X75476Y-78697D01*
X74800Y-78020D01*
X74123Y-78697D01*
X74173Y-78780D01*
X73869Y-78780D01*
X73869Y-78451D01*
X73905Y-78538D01*
X74052Y-78626D01*
X74729Y-77950D01*
X74052Y-77273D01*
X73905Y-77361D01*
X73869Y-77450D01*
X73869Y-54396D01*
X74002Y-54476D01*
X74679Y-53800D01*
X74002Y-53123D01*
X73869Y-53203D01*
X73869Y-52969D01*
X74123Y-52969D01*
X74073Y-53052D01*
X74750Y-53729D01*
X75426Y-53052D01*
X75376Y-52969D01*
X106048Y-52969D01*
X105961Y-53005D01*
X105873Y-53152D01*
X106550Y-53829D01*
X107226Y-53152D01*
X107138Y-53005D01*
X107049Y-52969D01*
X107480Y-52969D01*
X107480Y-53398D01*
X107444Y-53311D01*
X107297Y-53223D01*
X106620Y-53900D01*
X107297Y-54576D01*
X107444Y-54488D01*
X107480Y-54399D01*
X107480Y-77303D01*
X107347Y-77223D01*
X107276Y-77294D01*
X107276Y-77152D01*
X107226Y-77069D01*
X107226Y-54647D01*
X106550Y-53970D01*
X106479Y-54041D01*
X106479Y-53900D01*
X105802Y-53223D01*
X105655Y-53311D01*
X105498Y-53698D01*
X105501Y-54116D01*
X105655Y-54488D01*
X105802Y-54576D01*
X106479Y-53900D01*
X106479Y-54041D01*
X105873Y-54647D01*
X105961Y-54794D01*
X106348Y-54951D01*
X106766Y-54948D01*
X107138Y-54794D01*
X107226Y-54647D01*
X107226Y-77069D01*
X107188Y-77005D01*
X106801Y-76848D01*
X106450Y-76851D01*
X106450Y-68900D01*
X106450Y-60200D01*
X106423Y-60066D01*
X106347Y-59952D01*
X106347Y-59952D01*
X104115Y-57720D01*
X104297Y-57645D01*
X104444Y-57497D01*
X104524Y-57304D01*
X104525Y-57096D01*
X104445Y-56903D01*
X104297Y-56755D01*
X104104Y-56675D01*
X103896Y-56674D01*
X103703Y-56754D01*
X103555Y-56902D01*
X103499Y-57035D01*
X103445Y-56903D01*
X103297Y-56755D01*
X103104Y-56675D01*
X102896Y-56674D01*
X102703Y-56754D01*
X102555Y-56902D01*
X102499Y-57035D01*
X102445Y-56903D01*
X102297Y-56755D01*
X102104Y-56675D01*
X101896Y-56674D01*
X101703Y-56754D01*
X101555Y-56902D01*
X101499Y-57035D01*
X101445Y-56903D01*
X101297Y-56755D01*
X101104Y-56675D01*
X100896Y-56674D01*
X100703Y-56754D01*
X100555Y-56902D01*
X100499Y-57035D01*
X100445Y-56903D01*
X100297Y-56755D01*
X100104Y-56675D01*
X99896Y-56674D01*
X99703Y-56754D01*
X99555Y-56902D01*
X99499Y-57035D01*
X99445Y-56903D01*
X99350Y-56807D01*
X99350Y-54942D01*
X99444Y-54847D01*
X99500Y-54714D01*
X99554Y-54847D01*
X99702Y-54994D01*
X99895Y-55074D01*
X100103Y-55075D01*
X100297Y-54995D01*
X100444Y-54847D01*
X100500Y-54714D01*
X100554Y-54847D01*
X100702Y-54994D01*
X100895Y-55074D01*
X101103Y-55075D01*
X101297Y-54995D01*
X101444Y-54847D01*
X101500Y-54714D01*
X101554Y-54847D01*
X101702Y-54994D01*
X101895Y-55074D01*
X102103Y-55075D01*
X102297Y-54995D01*
X102444Y-54847D01*
X102500Y-54714D01*
X102554Y-54847D01*
X102702Y-54994D01*
X102895Y-55074D01*
X103103Y-55075D01*
X103297Y-54995D01*
X103444Y-54847D01*
X103500Y-54714D01*
X103554Y-54847D01*
X103702Y-54994D01*
X103895Y-55074D01*
X104103Y-55075D01*
X104297Y-54995D01*
X104444Y-54847D01*
X104524Y-54654D01*
X104525Y-54446D01*
X104445Y-54253D01*
X104297Y-54105D01*
X104104Y-54025D01*
X103896Y-54024D01*
X103703Y-54104D01*
X103555Y-54252D01*
X103499Y-54385D01*
X103445Y-54253D01*
X103297Y-54105D01*
X103104Y-54025D01*
X102896Y-54024D01*
X102703Y-54104D01*
X102555Y-54252D01*
X102499Y-54385D01*
X102445Y-54253D01*
X102297Y-54105D01*
X102104Y-54025D01*
X101896Y-54024D01*
X101703Y-54104D01*
X101555Y-54252D01*
X101499Y-54385D01*
X101445Y-54253D01*
X101297Y-54105D01*
X101104Y-54025D01*
X100896Y-54024D01*
X100703Y-54104D01*
X100555Y-54252D01*
X100499Y-54385D01*
X100445Y-54253D01*
X100297Y-54105D01*
X100104Y-54025D01*
X99896Y-54024D01*
X99703Y-54104D01*
X99555Y-54252D01*
X99499Y-54385D01*
X99445Y-54253D01*
X99297Y-54105D01*
X99104Y-54025D01*
X98896Y-54024D01*
X98703Y-54104D01*
X98555Y-54252D01*
X98525Y-54324D01*
X98525Y-54324D01*
X98524Y-54225D01*
X98486Y-54133D01*
X98416Y-54062D01*
X98324Y-54024D01*
X98112Y-54025D01*
X98050Y-54087D01*
X98050Y-54500D01*
X98057Y-54500D01*
X98057Y-54600D01*
X98050Y-54600D01*
X98050Y-55012D01*
X98112Y-55075D01*
X98324Y-55075D01*
X98416Y-55037D01*
X98486Y-54966D01*
X98524Y-54874D01*
X98525Y-54775D01*
X98525Y-54775D01*
X98554Y-54847D01*
X98650Y-54942D01*
X98650Y-56807D01*
X98555Y-56902D01*
X98525Y-56974D01*
X98525Y-56974D01*
X98524Y-56875D01*
X98486Y-56783D01*
X98416Y-56712D01*
X98324Y-56674D01*
X98112Y-56675D01*
X98050Y-56737D01*
X98050Y-57150D01*
X98057Y-57150D01*
X98057Y-57250D01*
X98050Y-57250D01*
X98050Y-57257D01*
X97950Y-57257D01*
X97950Y-57250D01*
X97950Y-57150D01*
X97950Y-56737D01*
X97950Y-55012D01*
X97950Y-54600D01*
X97950Y-54500D01*
X97950Y-54087D01*
X97887Y-54025D01*
X97675Y-54024D01*
X97583Y-54062D01*
X97513Y-54133D01*
X97475Y-54225D01*
X97474Y-54324D01*
X97475Y-54437D01*
X97537Y-54500D01*
X97950Y-54500D01*
X97950Y-54600D01*
X97537Y-54600D01*
X97475Y-54662D01*
X97474Y-54775D01*
X97475Y-54874D01*
X97513Y-54966D01*
X97583Y-55037D01*
X97675Y-55075D01*
X97887Y-55075D01*
X97950Y-55012D01*
X97950Y-56737D01*
X97887Y-56675D01*
X97675Y-56674D01*
X97583Y-56712D01*
X97513Y-56783D01*
X97475Y-56875D01*
X97474Y-56974D01*
X97475Y-57087D01*
X97537Y-57150D01*
X97950Y-57150D01*
X97950Y-57250D01*
X97537Y-57250D01*
X97475Y-57312D01*
X97474Y-57425D01*
X97475Y-57524D01*
X97485Y-57550D01*
X95300Y-57550D01*
X95166Y-57576D01*
X95052Y-57652D01*
X95052Y-57652D01*
X94529Y-58175D01*
X94529Y-54625D01*
X94518Y-54417D01*
X94460Y-54277D01*
X94367Y-54252D01*
X94297Y-54323D01*
X94297Y-54182D01*
X94272Y-54089D01*
X94075Y-54020D01*
X93867Y-54031D01*
X93727Y-54089D01*
X93702Y-54182D01*
X94000Y-54479D01*
X94297Y-54182D01*
X94297Y-54323D01*
X94070Y-54550D01*
X94367Y-54847D01*
X94460Y-54822D01*
X94529Y-54625D01*
X94529Y-58175D01*
X94297Y-58407D01*
X94297Y-54917D01*
X94000Y-54620D01*
X93929Y-54691D01*
X93929Y-54550D01*
X93632Y-54252D01*
X93539Y-54277D01*
X93500Y-54387D01*
X93445Y-54253D01*
X93297Y-54105D01*
X93104Y-54025D01*
X92896Y-54024D01*
X92703Y-54104D01*
X92555Y-54252D01*
X92499Y-54385D01*
X92445Y-54253D01*
X92297Y-54105D01*
X92104Y-54025D01*
X91896Y-54024D01*
X91703Y-54104D01*
X91555Y-54252D01*
X91499Y-54385D01*
X91445Y-54253D01*
X91297Y-54105D01*
X91104Y-54025D01*
X90896Y-54024D01*
X90703Y-54104D01*
X90555Y-54252D01*
X90502Y-54378D01*
X90460Y-54277D01*
X90367Y-54252D01*
X90297Y-54323D01*
X90297Y-54182D01*
X90272Y-54089D01*
X90075Y-54020D01*
X89867Y-54031D01*
X89727Y-54089D01*
X89702Y-54182D01*
X90000Y-54479D01*
X90297Y-54182D01*
X90297Y-54323D01*
X90070Y-54550D01*
X90367Y-54847D01*
X90460Y-54822D01*
X90499Y-54712D01*
X90554Y-54847D01*
X90702Y-54994D01*
X90895Y-55074D01*
X91103Y-55075D01*
X91297Y-54995D01*
X91444Y-54847D01*
X91500Y-54714D01*
X91554Y-54847D01*
X91702Y-54994D01*
X91895Y-55074D01*
X92103Y-55075D01*
X92297Y-54995D01*
X92444Y-54847D01*
X92500Y-54714D01*
X92554Y-54847D01*
X92702Y-54994D01*
X92895Y-55074D01*
X93103Y-55075D01*
X93297Y-54995D01*
X93444Y-54847D01*
X93497Y-54721D01*
X93539Y-54822D01*
X93632Y-54847D01*
X93929Y-54550D01*
X93929Y-54691D01*
X93702Y-54917D01*
X93727Y-55010D01*
X93924Y-55079D01*
X94132Y-55068D01*
X94272Y-55010D01*
X94297Y-54917D01*
X94297Y-58407D01*
X93025Y-59680D01*
X90297Y-56952D01*
X90297Y-54917D01*
X90000Y-54620D01*
X89702Y-54917D01*
X89727Y-55010D01*
X89924Y-55079D01*
X90132Y-55068D01*
X90272Y-55010D01*
X90297Y-54917D01*
X90297Y-56952D01*
X89200Y-55855D01*
X89200Y-55035D01*
X89297Y-54995D01*
X89444Y-54847D01*
X89497Y-54721D01*
X89539Y-54822D01*
X89632Y-54847D01*
X89929Y-54550D01*
X89632Y-54252D01*
X89539Y-54277D01*
X89500Y-54387D01*
X89445Y-54253D01*
X89297Y-54105D01*
X89104Y-54025D01*
X88896Y-54024D01*
X88703Y-54104D01*
X88555Y-54252D01*
X88499Y-54385D01*
X88445Y-54253D01*
X88297Y-54105D01*
X88104Y-54025D01*
X87896Y-54024D01*
X87703Y-54104D01*
X87555Y-54252D01*
X87502Y-54378D01*
X87460Y-54277D01*
X87367Y-54252D01*
X87297Y-54323D01*
X87297Y-54182D01*
X87272Y-54089D01*
X87075Y-54020D01*
X86867Y-54031D01*
X86727Y-54089D01*
X86702Y-54182D01*
X87000Y-54479D01*
X87297Y-54182D01*
X87297Y-54323D01*
X87070Y-54550D01*
X87367Y-54847D01*
X87460Y-54822D01*
X87499Y-54712D01*
X87554Y-54847D01*
X87702Y-54994D01*
X87895Y-55074D01*
X88103Y-55075D01*
X88297Y-54995D01*
X88444Y-54847D01*
X88500Y-54714D01*
X88500Y-55650D01*
X87297Y-55650D01*
X87297Y-54917D01*
X87000Y-54620D01*
X86702Y-54917D01*
X86727Y-55010D01*
X86924Y-55079D01*
X87132Y-55068D01*
X87272Y-55010D01*
X87297Y-54917D01*
X87297Y-55650D01*
X86350Y-55650D01*
X86350Y-55064D01*
X86416Y-55037D01*
X86486Y-54966D01*
X86524Y-54874D01*
X86525Y-54787D01*
X86539Y-54822D01*
X86632Y-54847D01*
X86929Y-54550D01*
X86632Y-54252D01*
X86539Y-54277D01*
X86525Y-54318D01*
X86525Y-54225D01*
X86487Y-54133D01*
X86416Y-54063D01*
X86324Y-54025D01*
X86225Y-54024D01*
X85675Y-54024D01*
X85583Y-54062D01*
X85513Y-54133D01*
X85475Y-54225D01*
X85474Y-54324D01*
X85474Y-54874D01*
X85512Y-54966D01*
X85583Y-55036D01*
X85650Y-55064D01*
X85650Y-55650D01*
X83525Y-55650D01*
X83525Y-54446D01*
X83445Y-54253D01*
X83297Y-54105D01*
X83104Y-54025D01*
X82896Y-54024D01*
X82703Y-54104D01*
X82555Y-54252D01*
X82502Y-54378D01*
X82460Y-54277D01*
X82367Y-54252D01*
X82297Y-54323D01*
X82297Y-54182D01*
X82272Y-54089D01*
X82075Y-54020D01*
X81867Y-54031D01*
X81727Y-54089D01*
X81702Y-54182D01*
X82000Y-54479D01*
X82297Y-54182D01*
X82297Y-54323D01*
X82070Y-54550D01*
X82367Y-54847D01*
X82460Y-54822D01*
X82499Y-54712D01*
X82554Y-54847D01*
X82702Y-54994D01*
X82895Y-55074D01*
X83103Y-55075D01*
X83297Y-54995D01*
X83444Y-54847D01*
X83524Y-54654D01*
X83525Y-54446D01*
X83525Y-55650D01*
X82297Y-55650D01*
X82297Y-54917D01*
X82000Y-54620D01*
X81702Y-54917D01*
X81727Y-55010D01*
X81924Y-55079D01*
X82132Y-55068D01*
X82272Y-55010D01*
X82297Y-54917D01*
X82297Y-55650D01*
X81350Y-55650D01*
X81350Y-54942D01*
X81444Y-54847D01*
X81497Y-54721D01*
X81539Y-54822D01*
X81632Y-54847D01*
X81929Y-54550D01*
X81632Y-54252D01*
X81539Y-54277D01*
X81500Y-54387D01*
X81445Y-54253D01*
X81297Y-54105D01*
X81104Y-54025D01*
X80896Y-54024D01*
X80703Y-54104D01*
X80555Y-54252D01*
X80499Y-54385D01*
X80445Y-54253D01*
X80297Y-54105D01*
X80104Y-54025D01*
X79896Y-54024D01*
X79703Y-54104D01*
X79555Y-54252D01*
X79502Y-54378D01*
X79460Y-54277D01*
X79367Y-54252D01*
X79297Y-54323D01*
X79297Y-54182D01*
X79272Y-54089D01*
X79075Y-54020D01*
X78867Y-54031D01*
X78727Y-54089D01*
X78702Y-54182D01*
X79000Y-54479D01*
X79297Y-54182D01*
X79297Y-54323D01*
X79070Y-54550D01*
X79367Y-54847D01*
X79460Y-54822D01*
X79499Y-54712D01*
X79554Y-54847D01*
X79702Y-54994D01*
X79895Y-55074D01*
X80103Y-55075D01*
X80297Y-54995D01*
X80444Y-54847D01*
X80500Y-54714D01*
X80554Y-54847D01*
X80650Y-54942D01*
X80650Y-55650D01*
X79297Y-55650D01*
X79297Y-54917D01*
X79000Y-54620D01*
X78702Y-54917D01*
X78727Y-55010D01*
X78924Y-55079D01*
X79132Y-55068D01*
X79272Y-55010D01*
X79297Y-54917D01*
X79297Y-55650D01*
X78350Y-55650D01*
X78350Y-55064D01*
X78416Y-55037D01*
X78486Y-54966D01*
X78524Y-54874D01*
X78525Y-54787D01*
X78539Y-54822D01*
X78632Y-54847D01*
X78929Y-54550D01*
X78632Y-54252D01*
X78539Y-54277D01*
X78525Y-54318D01*
X78525Y-54225D01*
X78487Y-54133D01*
X78416Y-54063D01*
X78324Y-54025D01*
X78225Y-54024D01*
X77675Y-54024D01*
X77583Y-54062D01*
X77513Y-54133D01*
X77475Y-54225D01*
X77474Y-54324D01*
X77474Y-54874D01*
X77512Y-54966D01*
X77583Y-55036D01*
X77650Y-55064D01*
X77650Y-56000D01*
X77676Y-56133D01*
X77752Y-56247D01*
X77866Y-56323D01*
X78000Y-56350D01*
X81000Y-56350D01*
X86000Y-56350D01*
X88705Y-56350D01*
X92650Y-60294D01*
X92650Y-61107D01*
X92555Y-61202D01*
X92499Y-61335D01*
X92445Y-61203D01*
X92297Y-61055D01*
X92104Y-60975D01*
X91896Y-60974D01*
X91703Y-61054D01*
X91555Y-61202D01*
X91499Y-61335D01*
X91445Y-61203D01*
X91297Y-61055D01*
X91104Y-60975D01*
X90896Y-60974D01*
X90703Y-61054D01*
X90555Y-61202D01*
X90499Y-61335D01*
X90445Y-61203D01*
X90297Y-61055D01*
X90104Y-60975D01*
X89896Y-60974D01*
X89703Y-61054D01*
X89555Y-61202D01*
X89499Y-61335D01*
X89445Y-61203D01*
X89297Y-61055D01*
X89104Y-60975D01*
X88896Y-60974D01*
X88703Y-61054D01*
X88555Y-61202D01*
X88499Y-61335D01*
X88445Y-61203D01*
X88297Y-61055D01*
X88104Y-60975D01*
X87896Y-60974D01*
X87703Y-61054D01*
X87555Y-61202D01*
X87499Y-61335D01*
X87445Y-61203D01*
X87297Y-61055D01*
X87104Y-60975D01*
X86896Y-60974D01*
X86703Y-61054D01*
X86555Y-61202D01*
X86499Y-61335D01*
X86445Y-61203D01*
X86297Y-61055D01*
X86104Y-60975D01*
X85896Y-60974D01*
X85703Y-61054D01*
X85555Y-61202D01*
X85499Y-61335D01*
X85445Y-61203D01*
X85297Y-61055D01*
X85104Y-60975D01*
X84896Y-60974D01*
X84703Y-61054D01*
X84555Y-61202D01*
X84475Y-61395D01*
X84474Y-61603D01*
X84554Y-61797D01*
X84702Y-61944D01*
X84895Y-62024D01*
X85103Y-62025D01*
X85297Y-61945D01*
X85444Y-61797D01*
X85500Y-61664D01*
X85554Y-61797D01*
X85702Y-61944D01*
X85895Y-62024D01*
X86103Y-62025D01*
X86297Y-61945D01*
X86444Y-61797D01*
X86500Y-61664D01*
X86554Y-61797D01*
X86702Y-61944D01*
X86895Y-62024D01*
X87103Y-62025D01*
X87297Y-61945D01*
X87444Y-61797D01*
X87500Y-61664D01*
X87554Y-61797D01*
X87702Y-61944D01*
X87895Y-62024D01*
X88103Y-62025D01*
X88297Y-61945D01*
X88444Y-61797D01*
X88500Y-61664D01*
X88554Y-61797D01*
X88702Y-61944D01*
X88895Y-62024D01*
X89103Y-62025D01*
X89297Y-61945D01*
X89444Y-61797D01*
X89500Y-61664D01*
X89554Y-61797D01*
X89702Y-61944D01*
X89895Y-62024D01*
X90103Y-62025D01*
X90297Y-61945D01*
X90444Y-61797D01*
X90500Y-61664D01*
X90554Y-61797D01*
X90702Y-61944D01*
X90895Y-62024D01*
X91103Y-62025D01*
X91297Y-61945D01*
X91444Y-61797D01*
X91500Y-61664D01*
X91554Y-61797D01*
X91702Y-61944D01*
X91895Y-62024D01*
X92103Y-62025D01*
X92297Y-61945D01*
X92444Y-61797D01*
X92500Y-61664D01*
X92554Y-61797D01*
X92702Y-61944D01*
X92895Y-62024D01*
X93103Y-62025D01*
X93297Y-61945D01*
X93444Y-61797D01*
X93500Y-61664D01*
X93554Y-61797D01*
X93702Y-61944D01*
X93895Y-62024D01*
X94103Y-62025D01*
X94297Y-61945D01*
X94444Y-61797D01*
X94500Y-61664D01*
X94554Y-61797D01*
X94702Y-61944D01*
X94895Y-62024D01*
X95103Y-62025D01*
X95297Y-61945D01*
X95444Y-61797D01*
X95497Y-61671D01*
X95539Y-61772D01*
X95632Y-61797D01*
X95929Y-61500D01*
X95632Y-61202D01*
X95539Y-61227D01*
X95500Y-61337D01*
X95445Y-61203D01*
X95297Y-61055D01*
X95104Y-60975D01*
X94896Y-60974D01*
X94703Y-61054D01*
X94555Y-61202D01*
X94499Y-61335D01*
X94445Y-61203D01*
X94297Y-61055D01*
X94104Y-60975D01*
X93896Y-60974D01*
X93703Y-61054D01*
X93555Y-61202D01*
X93499Y-61335D01*
X93445Y-61203D01*
X93350Y-61107D01*
X93350Y-60344D01*
X95444Y-58250D01*
X98300Y-58250D01*
X103655Y-58250D01*
X105750Y-60344D01*
X105750Y-68755D01*
X104525Y-69979D01*
X104525Y-67396D01*
X104525Y-61396D01*
X104445Y-61203D01*
X104297Y-61055D01*
X104104Y-60975D01*
X103896Y-60974D01*
X103703Y-61054D01*
X103555Y-61202D01*
X103499Y-61335D01*
X103445Y-61203D01*
X103297Y-61055D01*
X103104Y-60975D01*
X102896Y-60974D01*
X102703Y-61054D01*
X102555Y-61202D01*
X102499Y-61335D01*
X102445Y-61203D01*
X102297Y-61055D01*
X102104Y-60975D01*
X101896Y-60974D01*
X101703Y-61054D01*
X101555Y-61202D01*
X101499Y-61335D01*
X101445Y-61203D01*
X101297Y-61055D01*
X101104Y-60975D01*
X100896Y-60974D01*
X100703Y-61054D01*
X100555Y-61202D01*
X100499Y-61335D01*
X100445Y-61203D01*
X100297Y-61055D01*
X100104Y-60975D01*
X99896Y-60974D01*
X99703Y-61054D01*
X99555Y-61202D01*
X99499Y-61335D01*
X99445Y-61203D01*
X99297Y-61055D01*
X99104Y-60975D01*
X98896Y-60974D01*
X98703Y-61054D01*
X98555Y-61202D01*
X98499Y-61335D01*
X98445Y-61203D01*
X98297Y-61055D01*
X98104Y-60975D01*
X97896Y-60974D01*
X97703Y-61054D01*
X97555Y-61202D01*
X97499Y-61335D01*
X97445Y-61203D01*
X97297Y-61055D01*
X97104Y-60975D01*
X96896Y-60974D01*
X96703Y-61054D01*
X96555Y-61202D01*
X96502Y-61328D01*
X96460Y-61227D01*
X96367Y-61202D01*
X96297Y-61273D01*
X96297Y-61132D01*
X96272Y-61039D01*
X96075Y-60970D01*
X95867Y-60981D01*
X95727Y-61039D01*
X95702Y-61132D01*
X96000Y-61429D01*
X96297Y-61132D01*
X96297Y-61273D01*
X96070Y-61500D01*
X96367Y-61797D01*
X96460Y-61772D01*
X96499Y-61662D01*
X96554Y-61797D01*
X96702Y-61944D01*
X96895Y-62024D01*
X97103Y-62025D01*
X97297Y-61945D01*
X97444Y-61797D01*
X97500Y-61664D01*
X97554Y-61797D01*
X97702Y-61944D01*
X97895Y-62024D01*
X98103Y-62025D01*
X98297Y-61945D01*
X98444Y-61797D01*
X98500Y-61664D01*
X98554Y-61797D01*
X98702Y-61944D01*
X98895Y-62024D01*
X99103Y-62025D01*
X99297Y-61945D01*
X99444Y-61797D01*
X99500Y-61664D01*
X99554Y-61797D01*
X99702Y-61944D01*
X99895Y-62024D01*
X100103Y-62025D01*
X100297Y-61945D01*
X100444Y-61797D01*
X100500Y-61664D01*
X100554Y-61797D01*
X100702Y-61944D01*
X100895Y-62024D01*
X101103Y-62025D01*
X101297Y-61945D01*
X101444Y-61797D01*
X101500Y-61664D01*
X101554Y-61797D01*
X101702Y-61944D01*
X101895Y-62024D01*
X102103Y-62025D01*
X102297Y-61945D01*
X102444Y-61797D01*
X102500Y-61664D01*
X102554Y-61797D01*
X102702Y-61944D01*
X102895Y-62024D01*
X103103Y-62025D01*
X103297Y-61945D01*
X103444Y-61797D01*
X103500Y-61664D01*
X103554Y-61797D01*
X103702Y-61944D01*
X103895Y-62024D01*
X104103Y-62025D01*
X104297Y-61945D01*
X104444Y-61797D01*
X104524Y-61604D01*
X104525Y-61396D01*
X104525Y-67396D01*
X104445Y-67203D01*
X104297Y-67055D01*
X104104Y-66975D01*
X103896Y-66974D01*
X103703Y-67054D01*
X103555Y-67202D01*
X103499Y-67335D01*
X103445Y-67203D01*
X103297Y-67055D01*
X103104Y-66975D01*
X102896Y-66974D01*
X102703Y-67054D01*
X102555Y-67202D01*
X102499Y-67335D01*
X102445Y-67203D01*
X102297Y-67055D01*
X102104Y-66975D01*
X101896Y-66974D01*
X101703Y-67054D01*
X101555Y-67202D01*
X101499Y-67335D01*
X101445Y-67203D01*
X101297Y-67055D01*
X101104Y-66975D01*
X100896Y-66974D01*
X100703Y-67054D01*
X100555Y-67202D01*
X100499Y-67335D01*
X100445Y-67203D01*
X100297Y-67055D01*
X100104Y-66975D01*
X99896Y-66974D01*
X99703Y-67054D01*
X99555Y-67202D01*
X99499Y-67335D01*
X99445Y-67203D01*
X99297Y-67055D01*
X99104Y-66975D01*
X98896Y-66974D01*
X98703Y-67054D01*
X98555Y-67202D01*
X98499Y-67335D01*
X98445Y-67203D01*
X98297Y-67055D01*
X98104Y-66975D01*
X97896Y-66974D01*
X97703Y-67054D01*
X97555Y-67202D01*
X97499Y-67335D01*
X97445Y-67203D01*
X97297Y-67055D01*
X97104Y-66975D01*
X96896Y-66974D01*
X96703Y-67054D01*
X96555Y-67202D01*
X96499Y-67335D01*
X96445Y-67203D01*
X96297Y-67055D01*
X96297Y-67054D01*
X96297Y-61867D01*
X96000Y-61570D01*
X95702Y-61867D01*
X95727Y-61960D01*
X95924Y-62029D01*
X96132Y-62018D01*
X96272Y-61960D01*
X96297Y-61867D01*
X96297Y-67054D01*
X96104Y-66975D01*
X95896Y-66974D01*
X95703Y-67054D01*
X95555Y-67202D01*
X95499Y-67335D01*
X95445Y-67203D01*
X95297Y-67055D01*
X95104Y-66975D01*
X94896Y-66974D01*
X94703Y-67054D01*
X94555Y-67202D01*
X94502Y-67328D01*
X94460Y-67227D01*
X94367Y-67202D01*
X94297Y-67273D01*
X94297Y-67132D01*
X94272Y-67039D01*
X94075Y-66970D01*
X93867Y-66981D01*
X93727Y-67039D01*
X93702Y-67132D01*
X94000Y-67429D01*
X94297Y-67132D01*
X94297Y-67273D01*
X94070Y-67500D01*
X94367Y-67797D01*
X94460Y-67772D01*
X94499Y-67662D01*
X94554Y-67797D01*
X94702Y-67944D01*
X94895Y-68024D01*
X95103Y-68025D01*
X95297Y-67945D01*
X95444Y-67797D01*
X95500Y-67664D01*
X95554Y-67797D01*
X95702Y-67944D01*
X95895Y-68024D01*
X96103Y-68025D01*
X96297Y-67945D01*
X96444Y-67797D01*
X96500Y-67664D01*
X96554Y-67797D01*
X96702Y-67944D01*
X96895Y-68024D01*
X97103Y-68025D01*
X97297Y-67945D01*
X97444Y-67797D01*
X97500Y-67664D01*
X97554Y-67797D01*
X97702Y-67944D01*
X97895Y-68024D01*
X98103Y-68025D01*
X98297Y-67945D01*
X98444Y-67797D01*
X98500Y-67664D01*
X98554Y-67797D01*
X98702Y-67944D01*
X98895Y-68024D01*
X99103Y-68025D01*
X99297Y-67945D01*
X99444Y-67797D01*
X99500Y-67664D01*
X99554Y-67797D01*
X99702Y-67944D01*
X99895Y-68024D01*
X100103Y-68025D01*
X100297Y-67945D01*
X100444Y-67797D01*
X100500Y-67664D01*
X100554Y-67797D01*
X100702Y-67944D01*
X100895Y-68024D01*
X101103Y-68025D01*
X101297Y-67945D01*
X101444Y-67797D01*
X101500Y-67664D01*
X101554Y-67797D01*
X101702Y-67944D01*
X101895Y-68024D01*
X102103Y-68025D01*
X102297Y-67945D01*
X102444Y-67797D01*
X102500Y-67664D01*
X102554Y-67797D01*
X102702Y-67944D01*
X102895Y-68024D01*
X103103Y-68025D01*
X103297Y-67945D01*
X103444Y-67797D01*
X103500Y-67664D01*
X103554Y-67797D01*
X103702Y-67944D01*
X103895Y-68024D01*
X104103Y-68025D01*
X104297Y-67945D01*
X104444Y-67797D01*
X104524Y-67604D01*
X104525Y-67396D01*
X104525Y-69979D01*
X102029Y-72475D01*
X101896Y-72474D01*
X101703Y-72554D01*
X101555Y-72702D01*
X101499Y-72835D01*
X101445Y-72703D01*
X101297Y-72555D01*
X101104Y-72475D01*
X100896Y-72474D01*
X100703Y-72554D01*
X100555Y-72702D01*
X100499Y-72835D01*
X100445Y-72703D01*
X100297Y-72555D01*
X100104Y-72475D01*
X99896Y-72474D01*
X99703Y-72554D01*
X99555Y-72702D01*
X99499Y-72835D01*
X99445Y-72703D01*
X99297Y-72555D01*
X99104Y-72475D01*
X98896Y-72474D01*
X98703Y-72554D01*
X98555Y-72702D01*
X98499Y-72835D01*
X98445Y-72703D01*
X98297Y-72555D01*
X98104Y-72475D01*
X97896Y-72474D01*
X97703Y-72554D01*
X97555Y-72702D01*
X97499Y-72835D01*
X97445Y-72703D01*
X97297Y-72555D01*
X97104Y-72475D01*
X96896Y-72474D01*
X96703Y-72554D01*
X96555Y-72702D01*
X96475Y-72895D01*
X96474Y-73103D01*
X96554Y-73297D01*
X96702Y-73444D01*
X96895Y-73524D01*
X97103Y-73525D01*
X97297Y-73445D01*
X97444Y-73297D01*
X97500Y-73164D01*
X97554Y-73297D01*
X97702Y-73444D01*
X97895Y-73524D01*
X98103Y-73525D01*
X98297Y-73445D01*
X98444Y-73297D01*
X98500Y-73164D01*
X98554Y-73297D01*
X98702Y-73444D01*
X98895Y-73524D01*
X99103Y-73525D01*
X99297Y-73445D01*
X99444Y-73297D01*
X99500Y-73164D01*
X99554Y-73297D01*
X99702Y-73444D01*
X99895Y-73524D01*
X100103Y-73525D01*
X100297Y-73445D01*
X100444Y-73297D01*
X100500Y-73164D01*
X100554Y-73297D01*
X100702Y-73444D01*
X100895Y-73524D01*
X101103Y-73525D01*
X101297Y-73445D01*
X101444Y-73297D01*
X101500Y-73164D01*
X101554Y-73297D01*
X101650Y-73392D01*
X101650Y-76607D01*
X101555Y-76702D01*
X101499Y-76835D01*
X101445Y-76703D01*
X101297Y-76555D01*
X101104Y-76475D01*
X100896Y-76474D01*
X100703Y-76554D01*
X100555Y-76702D01*
X100499Y-76835D01*
X100445Y-76703D01*
X100297Y-76555D01*
X100104Y-76475D01*
X99896Y-76474D01*
X99703Y-76554D01*
X99555Y-76702D01*
X99499Y-76835D01*
X99445Y-76703D01*
X99297Y-76555D01*
X99104Y-76475D01*
X98896Y-76474D01*
X98703Y-76554D01*
X98555Y-76702D01*
X98499Y-76835D01*
X98445Y-76703D01*
X98297Y-76555D01*
X98104Y-76475D01*
X97896Y-76474D01*
X97703Y-76554D01*
X97555Y-76702D01*
X97499Y-76835D01*
X97445Y-76703D01*
X97297Y-76555D01*
X97104Y-76475D01*
X96896Y-76474D01*
X96703Y-76554D01*
X96555Y-76702D01*
X96475Y-76895D01*
X96474Y-77103D01*
X96554Y-77297D01*
X96702Y-77444D01*
X96895Y-77524D01*
X97103Y-77525D01*
X97297Y-77445D01*
X97444Y-77297D01*
X97500Y-77164D01*
X97554Y-77297D01*
X97702Y-77444D01*
X97895Y-77524D01*
X98103Y-77525D01*
X98297Y-77445D01*
X98444Y-77297D01*
X98500Y-77164D01*
X98554Y-77297D01*
X98702Y-77444D01*
X98895Y-77524D01*
X99103Y-77525D01*
X99297Y-77445D01*
X99444Y-77297D01*
X99500Y-77164D01*
X99554Y-77297D01*
X99702Y-77444D01*
X99895Y-77524D01*
X100103Y-77525D01*
X100297Y-77445D01*
X100444Y-77297D01*
X100500Y-77164D01*
X100554Y-77297D01*
X100702Y-77444D01*
X100895Y-77524D01*
X101103Y-77525D01*
X101297Y-77445D01*
X101444Y-77297D01*
X101500Y-77164D01*
X101554Y-77297D01*
X101702Y-77444D01*
X101895Y-77524D01*
X102103Y-77525D01*
X102297Y-77445D01*
X102444Y-77297D01*
X102474Y-77225D01*
X102474Y-77225D01*
X102475Y-77324D01*
X102513Y-77416D01*
X102583Y-77487D01*
X102675Y-77525D01*
X102887Y-77525D01*
X102950Y-77462D01*
X102950Y-77050D01*
X102942Y-77050D01*
X102942Y-76950D01*
X102950Y-76950D01*
X102950Y-76537D01*
X102887Y-76475D01*
X102675Y-76474D01*
X102583Y-76512D01*
X102513Y-76583D01*
X102475Y-76675D01*
X102474Y-76774D01*
X102474Y-76774D01*
X102445Y-76703D01*
X102350Y-76607D01*
X102350Y-73392D01*
X102444Y-73297D01*
X102474Y-73225D01*
X102474Y-73225D01*
X102475Y-73324D01*
X102513Y-73416D01*
X102583Y-73487D01*
X102675Y-73525D01*
X102887Y-73525D01*
X102950Y-73462D01*
X102950Y-73050D01*
X102942Y-73050D01*
X102942Y-72950D01*
X102950Y-72950D01*
X102950Y-72942D01*
X103050Y-72942D01*
X103050Y-72950D01*
X103462Y-72950D01*
X103525Y-72887D01*
X103525Y-72774D01*
X103524Y-72675D01*
X103486Y-72583D01*
X103416Y-72512D01*
X103324Y-72474D01*
X103112Y-72475D01*
X103050Y-72537D01*
X103050Y-72475D01*
X103019Y-72475D01*
X106347Y-69147D01*
X106423Y-69033D01*
X106423Y-69033D01*
X106450Y-68900D01*
X106450Y-76851D01*
X106383Y-76851D01*
X106011Y-77005D01*
X105923Y-77152D01*
X106600Y-77829D01*
X107276Y-77152D01*
X107276Y-77294D01*
X106670Y-77900D01*
X107347Y-78576D01*
X107480Y-78496D01*
X107480Y-78780D01*
M02*
