                                                                        S      1
1H,,1H;,68HD:\Dropbox\000_Robotics\Sumo_Wheels_All\IGES\000_graves_mold_G      1
all.igs,68HD:\Dropbox\000_Robotics\Sumo_Wheels_All\IGES\000_graves_mold_G      2
all.igs,10HBobcad-cam,23HHarmonyWare IGES v1.6.9,32,38,6,308,15,,1.,2,2HG      3
MM,1,1.,15H20170213.183136,0.00254,119.6514,68HD:\Dropbox\000_Robotics\SG      4
umo_Wheels_All\IGES\000_graves_mold_all.igs,,11,0,15H20170213.183136;   G      5
     502       1       0       0       0       0       0       000010000D      1
     502       0       0       3       1                               0D      2
     126       4       0       0       0       0       0       000010000D      3
     126       0       0       7       0                               0D      4
     126      11       0       0       0       0       0       000010000D      5
     126       0       0       7       0                               0D      6
     126      18       0       0       0       0       0       000010000D      7
     126       0       0       3       0                               0D      8
     126      21       0       0       0       0       0       000010000D      9
     126       0       0       7       0                               0D     10
     126      28       0       0       0       0       0       000010000D     11
     126       0       0       7       0                               0D     12
     126      35       0       0       0       0       0       000010000D     13
     126       0       0       2       0                               0D     14
     126      37       0       0       0       0       0       000010000D     15
     126       0       0       6       0                               0D     16
     126      43       0       0       0       0       0       000010000D     17
     126       0       0       7       0                               0D     18
     126      50       0       0       0       0       0       000010000D     19
     126       0       0       7       0                               0D     20
     126      57       0       0       0       0       0       000010000D     21
     126       0       0       7       0                               0D     22
     126      64       0       0       0       0       0       000010000D     23
     126       0       0       2       0                               0D     24
     126      66       0       0       0       0       0       000010000D     25
     126       0       0       2       0                               0D     26
     504      68       0       0       0       0       0       000010000D     27
     504       0       0       3       1                               0D     28
     128      71       0       0       0       0       0       000010000D     29
     128       0       0       6       0                               0D     30
     508      77       0       0       0       0       0       000010000D     31
     508       0       0       1       1                               0D     32
     510      78       0       0       0       0       0       000010000D     33
     510       0       0       1       1                               0D     34
     128      79       0       0       0       0       0       000010000D     35
     128       0       0      13       0                               0D     36
     508      92       0       0       0       0       0       000010000D     37
     508       0       0       1       1                               0D     38
     510      93       0       0       0       0       0       000010000D     39
     510       0       0       1       1                               0D     40
     128      94       0       0       0       0       0       000010000D     41
     128       0       0       5       0                               0D     42
     508      99       0       0       0       0       0       000010000D     43
     508       0       0       1       1                               0D     44
     508     100       0       0       0       0       0       000010000D     45
     508       0       0       1       1                               0D     46
     510     101       0       0       0       0       0       000010000D     47
     510       0       0       1       1                               0D     48
     128     102       0       0       0       0       0       000010000D     49
     128       0       0      11       0                               0D     50
     508     113       0       0       0       0       0       000010000D     51
     508       0       0       1       1                               0D     52
     510     114       0       0       0       0       0       000010000D     53
     510       0       0       1       1                               0D     54
     128     115       0       0       0       0       0       000010000D     55
     128       0       0       5       0                               0D     56
     508     120       0       0       0       0       0       000010000D     57
     508       0       0       1       1                               0D     58
     510     121       0       0       0       0       0       000010000D     59
     510       0       0       1       1                               0D     60
     128     122       0       0       0       0       0       000010000D     61
     128       0       0       6       0                               0D     62
     508     128       0       0       0       0       0       000010000D     63
     508       0       0       1       1                               0D     64
     508     129       0       0       0       0       0       000010000D     65
     508       0       0       1       1                               0D     66
     510     130       0       0       0       0       0       000010000D     67
     510       0       0       1       1                               0D     68
     128     131       0       0       0       0       0       000010000D     69
     128       0       0       6       0                               0D     70
     508     137       0       0       0       0       0       000010000D     71
     508       0       0       1       1                               0D     72
     508     138       0       0       0       0       0       000010000D     73
     508       0       0       1       1                               0D     74
     510     139       0       0       0       0       0       000010000D     75
     510       0       0       1       1                               0D     76
     128     140       0       0       0       0       0       000010000D     77
     128       0       0      12       0                               0D     78
     508     152       0       0       0       0       0       000010000D     79
     508       0       0       1       1                               0D     80
     510     153       0       0       0       0       0       000010000D     81
     510       0       0       1       1                               0D     82
     128     154       0       0       0       0       0       000010000D     83
     128       0       0      12       0                               0D     84
     508     166       0       0       0       0       0       000010000D     85
     508       0       0       1       1                               0D     86
     510     167       0       0       0       0       0       000010000D     87
     510       0       0       1       1                               0D     88
     514     168       0       0       0       0       0       000010000D     89
     514       0       0       1       1                               0D     90
     314     169       0       0       0       0       0       000000200D     91
     314       0       0       1       0                               0D     92
     186     170       0       0       0       0       0       000000000D     93
     186       0     -91       1       0                               0D     94
     502     171       0       0       0       0       0       000010000D     95
     502       0       0       3       1                               0D     96
     126     174       0       0       0       0       0       000010000D     97
     126       0       0       7       0                               0D     98
     126     181       0       0       0       0       0       000010000D     99
     126       0       0       2       0                               0D    100
     126     183       0       0       0       0       0       000010000D    101
     126       0       0       7       0                               0D    102
     126     190       0       0       0       0       0       000010000D    103
     126       0       0       6       0                               0D    104
     126     196       0       0       0       0       0       000010000D    105
     126       0       0       2       0                               0D    106
     126     198       0       0       0       0       0       000010000D    107
     126       0       0       7       0                               0D    108
     504     205       0       0       0       0       0       000010000D    109
     504       0       0       2       1                               0D    110
     128     207       0       0       0       0       0       000010000D    111
     128       0       0      12       0                               0D    112
     508     219       0       0       0       0       0       000010000D    113
     508       0       0       1       1                               0D    114
     510     220       0       0       0       0       0       000010000D    115
     510       0       0       1       1                               0D    116
     128     221       0       0       0       0       0       000010000D    117
     128       0       0      12       0                               0D    118
     508     233       0       0       0       0       0       000010000D    119
     508       0       0       1       1                               0D    120
     510     234       0       0       0       0       0       000010000D    121
     510       0       0       1       1                               0D    122
     128     235       0       0       0       0       0       000010000D    123
     128       0       0       6       0                               0D    124
     508     241       0       0       0       0       0       000010000D    125
     508       0       0       1       1                               0D    126
     508     242       0       0       0       0       0       000010000D    127
     508       0       0       1       1                               0D    128
     510     243       0       0       0       0       0       000010000D    129
     510       0       0       1       1                               0D    130
     128     244       0       0       0       0       0       000010000D    131
     128       0       0       5       0                               0D    132
     508     249       0       0       0       0       0       000010000D    133
     508       0       0       1       1                               0D    134
     508     250       0       0       0       0       0       000010000D    135
     508       0       0       1       1                               0D    136
     510     251       0       0       0       0       0       000010000D    137
     510       0       0       1       1                               0D    138
     514     252       0       0       0       0       0       000010000D    139
     514       0       0       1       1                               0D    140
     314     253       0       0       0       0       0       000000200D    141
     314       0       0       1       0                               0D    142
     186     254       0       0       0       0       0       000000000D    143
     186       0    -141       1       0                               0D    144
502,8,4.6355,0.,48.26,4.6355,0.,5.08,33.528,0.,2.54,31.496,0.,         1P      1
2.54,38.1,0.,0.,38.1,0.,5.08,33.528,7.88860905221012D-31,5.08,         1P      2
31.496,-1.57772181044202D-30,5.08;                                     1P      3
126,8,2,0,1,0,0,0.,0.,0.,0.25,0.25,0.5,0.5,0.75,0.75,1.,1.,1.,         3P      4
1.,0.707106781186548,1.,0.707106781186548,1.,0.707106781186548,        3P      5
1.,0.707106781186548,1.,4.6355,0.,48.26,4.6355,4.6355,48.26,           3P      6
2.83833137657181D-16,4.6355,48.26,-4.6355,4.6355,48.26,-4.6355,        3P      7
5.67666275314363D-16,48.26,-4.6355,-4.6355,48.26,                      3P      8
-8.51499412971544D-16,-4.6355,48.26,4.6355,-4.6355,48.26,4.6355,       3P      9
0.,48.26,0.,1.,0.,0.,0.;                                               3P     10
126,8,2,0,1,0,0,0.,0.,0.,0.25,0.25,0.5,0.5,0.75,0.75,1.,1.,1.,         5P     11
1.,0.707106781186548,1.,0.707106781186548,1.,0.707106781186548,        5P     12
1.,0.707106781186548,1.,4.6355,0.,5.08,4.6355,4.6355,5.08,             5P     13
1.22752270858856D-15,4.6355,5.08,-4.6355,4.6355,5.08,-4.6355,          5P     14
5.67666275314363D-16,5.08,-4.6355,-4.6355,5.08,                        5P     15
9.21901579598389D-17,-4.6355,5.08,4.6355,-4.6355,5.08,4.6355,0.,       5P     16
5.08,0.,1.,0.,0.,0.;                                                   5P     17
126,1,1,0,0,1,0,0.0555555555555556,0.0555555555555556,1.,1.,1.,        7P     18
1.,4.6355,0.,5.08,4.6355,0.,48.26,0.0555555555555556,1.,0.,0.,         7P     19
0.;                                                                    7P     20
126,8,2,0,1,0,0,0.,0.,0.,0.25,0.25,0.5,0.5,0.75,0.75,1.,1.,1.,         9P     21
1.,0.707106781186548,1.,0.707106781186548,1.,0.707106781186548,        9P     22
1.,0.707106781186548,1.,33.528,0.,2.54,33.528,33.528,2.54,             9P     23
2.05293009154783D-15,33.528,2.54,-33.528,33.528,2.54,-33.528,          9P     24
4.10586018309567D-15,2.54,-33.528,-33.528,2.54,                        9P     25
-6.1587902746435D-15,-33.528,2.54,33.528,-33.528,2.54,33.528,0.,       9P     26
2.54,0.,1.,0.,0.,0.;                                                   9P     27
126,8,2,0,1,0,0,0.,0.,0.,0.25,0.25,0.5,0.5,0.75,0.75,1.,1.,1.,        11P     28
1.,0.707106781186548,1.,0.707106781186548,1.,0.707106781186548,       11P     29
1.,0.707106781186548,1.,31.496,0.,2.54,31.496,31.496,2.54,            11P     30
1.92851008599948D-15,31.496,2.54,-31.496,31.496,2.54,-31.496,         11P     31
3.85702017199896D-15,2.54,-31.496,-31.496,2.54,                       11P     32
-5.78553025799844D-15,-31.496,2.54,31.496,-31.496,2.54,31.496,        11P     33
0.,2.54,0.,1.,0.,0.,0.;                                               11P     34
126,1,1,0,0,1,0,0.,0.,1.,1.,1.,1.,38.1,0.,0.,38.1,0.,5.08,0.,1.,      13P     35
0.,0.,0.;                                                             13P     36
126,8,2,0,1,0,0,0.,0.,0.,0.25,0.25,0.5,0.5,0.75,0.75,1.,1.,1.,        15P     37
1.,0.707106781186548,1.,0.707106781186548,1.,0.707106781186548,       15P     38
1.,0.707106781186548,1.,38.1,0.,0.,38.1,38.1,0.,                      15P     39
2.33287510403163D-15,38.1,0.,-38.1,38.1,0.,-38.1,                     15P     40
4.66575020806326D-15,0.,-38.1,-38.1,0.,-6.99862531209488D-15,         15P     41
-38.1,0.,38.1,-38.1,0.,38.1,0.,0.,0.,1.,0.,0.,0.;                     15P     42
126,8,2,0,1,0,0,0.,0.,0.,0.25,0.25,0.5,0.5,0.75,0.75,1.,1.,1.,        17P     43
1.,0.707106781186548,1.,0.707106781186548,1.,0.707106781186548,       17P     44
1.,0.707106781186548,1.,38.1,0.,5.08,38.1,38.1,5.08,                  17P     45
2.33287510403163D-15,38.1,5.08,-38.1,38.1,5.08,-38.1,                 17P     46
4.66575020806326D-15,5.08,-38.1,-38.1,5.08,                           17P     47
-6.99862531209488D-15,-38.1,5.08,38.1,-38.1,5.08,38.1,0.,5.08,        17P     48
0.,1.,0.,0.,0.;                                                       17P     49
126,8,2,0,1,0,0,0.,0.,0.,0.25,0.25,0.5,0.5,0.75,0.75,1.,1.,1.,        19P     50
1.,0.707106781186548,1.,0.707106781186548,1.,0.707106781186548,       19P     51
1.,0.707106781186548,1.,33.528,7.88860905221012D-31,5.08,33.528,      19P     52
33.528,5.08,-9.04930015470373D-15,33.528,5.08,-33.528,33.528,         19P     53
5.08,-33.528,1.29876443800969D-14,5.08,-33.528,-33.528,5.08,          19P     54
-2.61428047178963D-14,-33.528,5.08,33.528,-33.528,5.08,33.528,        19P     55
7.88860905221012D-31,5.08,0.,1.,0.,0.,0.;                             19P     56
126,8,2,0,1,0,0,0.,0.,0.,0.25,0.25,0.5,0.5,0.75,0.75,1.,1.,1.,        21P     57
1.,0.707106781186548,1.,0.707106781186548,1.,0.707106781186548,       21P     58
1.,0.707106781186548,1.,31.496,-1.57772181044202D-30,5.08,            21P     59
31.496,31.496,5.08,1.26976734248635D-14,31.496,5.08,-31.496,          21P     60
31.496,5.08,-31.496,2.87260159236025D-14,5.08,-31.496,-31.496,        21P     61
5.08,-1.98853626707379D-14,-31.496,5.08,31.496,-31.496,5.08,          21P     62
31.496,-1.57772181044202D-30,5.08,0.,1.,0.,0.,0.;                     21P     63
126,1,1,0,0,1,0,0.,0.,0.0625,0.0625,1.,1.,31.496,0.,2.54,31.496,      23P     64
0.,5.08,0.,0.0625,0.,0.,0.;                                           23P     65
126,1,1,0,0,1,0,0.,0.,0.0625,0.0625,1.,1.,33.528,0.,2.54,33.528,      25P     66
0.,5.08,0.,0.0625,0.,0.,0.;                                           25P     67
504,12,3,1,1,1,1,5,1,2,1,2,7,1,2,1,1,9,1,3,1,3,11,1,4,1,4,13,1,       27P     68
5,1,6,15,1,5,1,5,17,1,6,1,6,19,1,7,1,7,21,1,8,1,8,23,1,4,1,8,25,      27P     69
1,3,1,7;                                                              27P     70
128,1,1,1,1,0,0,1,0,0,0.0454545454545454,0.0454545454545454,          29P     71
0.954545454545455,0.954545454545455,0.0454545454545454,               29P     72
0.0454545454545454,0.954545454545454,0.954545454545454,1.,1.,1.,      29P     73
1.,-4.6355,-4.6355,48.26,-4.6355,4.6355,48.26,4.6355,-4.6355,         29P     74
48.26,4.6355,4.6355,48.26,0.0454545454545454,0.954545454545455,       29P     75
0.0454545454545454,0.954545454545454;                                 29P     76
508,1,0,27,1,0,0;                                                     31P     77
510,29,1,1,31;                                                        33P     78
128,8,1,2,1,1,0,0,0,0,0.,0.,0.,0.25,0.25,0.5,0.5,0.75,0.75,1.,        35P     79
1.,1.,0.0555555555555556,0.0555555555555556,1.,1.,1.,                 35P     80
0.707106781186548,1.,0.707106781186548,1.,0.707106781186548,1.,       35P     81
0.707106781186548,1.,1.,0.707106781186548,1.,0.707106781186548,       35P     82
1.,0.707106781186548,1.,0.707106781186548,1.,4.6355,0.,5.08,          35P     83
4.6355,-4.6355,5.08,-8.51499412971544D-16,-4.6355,5.08,-4.6355,       35P     84
-4.6355,5.08,-4.6355,5.67666275314363D-16,5.08,-4.6355,4.6355,        35P     85
5.08,2.83833137657181D-16,4.6355,5.08,4.6355,4.6355,5.08,4.6355,      35P     86
0.,5.08,4.6355,0.,48.26,4.6355,-4.6355,48.26,                         35P     87
-8.51499412971544D-16,-4.6355,48.26,-4.6355,-4.6355,48.26,            35P     88
-4.6355,5.67666275314363D-16,48.26,-4.6355,4.6355,48.26,              35P     89
2.83833137657181D-16,4.6355,48.26,4.6355,4.6355,48.26,4.6355,0.,      35P     90
48.26,0.,1.,0.0555555555555556,1.;                                    35P     91
508,4,0,27,3,1,0,0,27,1,1,0,0,27,3,0,0,0,27,2,0,0;                    37P     92
510,35,1,1,37;                                                        39P     93
128,1,1,1,1,0,0,1,0,0,0.,0.,0.642824346533225,0.642824346533225,      41P     94
0.178587826733388,0.178587826733388,0.821412173266613,                41P     95
0.821412173266613,1.,1.,1.,1.,33.528,33.528,2.54,33.528,-33.528,      41P     96
2.54,-33.528,33.528,2.54,-33.528,-33.528,2.54,0.,                     41P     97
0.642824346533225,0.178587826733388,0.821412173266613;                41P     98
508,1,0,27,4,0,0;                                                     43P     99
508,1,0,27,5,1,0;                                                     45P    100
510,41,2,1,43,45;                                                     47P    101
128,8,1,2,1,1,0,0,0,0,0.,0.,0.,0.25,0.25,0.5,0.5,0.75,0.75,1.,        49P    102
1.,1.,0.,0.,1.,1.,1.,0.707106781186548,1.,0.707106781186548,1.,       49P    103
0.707106781186548,1.,0.707106781186548,1.,1.,0.707106781186548,       49P    104
1.,0.707106781186548,1.,0.707106781186548,1.,0.707106781186548,       49P    105
1.,38.1,0.,0.,38.1,-38.1,0.,-6.99862531209488D-15,-38.1,0.,           49P    106
-38.1,-38.1,0.,-38.1,4.66575020806326D-15,0.,-38.1,38.1,0.,           49P    107
2.33287510403163D-15,38.1,0.,38.1,38.1,0.,38.1,0.,0.,38.1,0.,         49P    108
5.08,38.1,-38.1,5.08,-6.99862531209488D-15,-38.1,5.08,-38.1,          49P    109
-38.1,5.08,-38.1,4.66575020806326D-15,5.08,-38.1,38.1,5.08,           49P    110
2.33287510403163D-15,38.1,5.08,38.1,38.1,5.08,38.1,0.,5.08,0.,        49P    111
1.,0.,1.;                                                             49P    112
508,4,0,27,8,1,0,0,27,6,0,0,0,27,7,0,0,0,27,6,1,0;                    51P    113
510,49,1,1,51;                                                        53P    114
128,1,1,1,1,0,0,1,0,0,0.,0.,0.909090909090909,0.909090909090909,      55P    115
0.0454545454545454,0.0454545454545454,0.954545454545454,              55P    116
0.954545454545454,1.,1.,1.,1.,-38.1,38.1,0.,-38.1,-38.1,0.,38.1,      55P    117
38.1,0.,38.1,-38.1,0.,0.,0.909090909090909,0.0454545454545454,        55P    118
0.954545454545454;                                                    55P    119
508,1,0,27,7,1,0;                                                     57P    120
510,55,1,1,57;                                                        59P    121
128,1,1,1,1,0,0,1,0,0,0.0454545454545454,0.0454545454545454,          61P    122
0.954545454545454,0.954545454545454,0.0454545454545454,               61P    123
0.0454545454545454,0.954545454545454,0.954545454545454,1.,1.,1.,      61P    124
1.,-38.1,-38.1,5.08,-38.1,38.1,5.08,38.1,-38.1,5.08,38.1,38.1,        61P    125
5.08,0.0454545454545454,0.954545454545454,0.0454545454545454,         61P    126
0.954545454545454;                                                    61P    127
508,1,0,27,8,0,0;                                                     63P    128
508,1,0,27,9,1,0;                                                     65P    129
510,61,2,1,63,65;                                                     67P    130
128,1,1,1,1,0,0,1,0,0,0.124242424242424,0.124242424242424,            69P    131
0.875757575757576,0.875757575757576,0.124242424242424,                69P    132
0.124242424242424,0.875757575757576,0.875757575757576,1.,1.,1.,       69P    133
1.,-31.496,-31.496,5.08,-31.496,31.496,5.08,31.496,-31.496,5.08,      69P    134
31.496,31.496,5.08,0.124242424242424,0.875757575757576,               69P    135
0.124242424242424,0.875757575757576;                                  69P    136
508,1,0,27,10,0,0;                                                    71P    137
508,1,0,27,2,1,0;                                                     73P    138
510,69,2,1,71,73;                                                     75P    139
128,1,8,1,2,0,1,0,0,0,0.,0.,0.0625,0.0625,0.,0.,0.,0.25,0.25,         77P    140
0.5,0.5,0.75,0.75,1.,1.,1.,1.,1.,0.707106781186548,                   77P    141
0.707106781186548,1.,1.,0.707106781186548,0.707106781186548,1.,       77P    142
1.,0.707106781186548,0.707106781186548,1.,1.,0.707106781186548,       77P    143
0.707106781186548,1.,1.,31.496,0.,2.54,31.496,0.,5.08,31.496,         77P    144
31.496,2.54,31.496,31.496,5.08,1.92851008599948D-15,31.496,2.54,      77P    145
1.92851008599948D-15,31.496,5.08,-31.496,31.496,2.54,-31.496,         77P    146
31.496,5.08,-31.496,3.85702017199896D-15,2.54,-31.496,                77P    147
3.85702017199896D-15,5.08,-31.496,-31.496,2.54,-31.496,-31.496,       77P    148
5.08,-5.78553025799844D-15,-31.496,2.54,-5.78553025799844D-15,        77P    149
-31.496,5.08,31.496,-31.496,2.54,31.496,-31.496,5.08,31.496,0.,       77P    150
2.54,31.496,0.,5.08,0.,0.0625,0.,1.;                                  77P    151
508,4,0,27,10,1,0,0,27,11,0,0,0,27,5,0,0,0,27,11,1,0;                 79P    152
510,77,1,1,79;                                                        81P    153
128,1,8,1,2,0,1,0,0,0,0.,0.,0.0625,0.0625,0.,0.,0.,0.25,0.25,         83P    154
0.5,0.5,0.75,0.75,1.,1.,1.,1.,1.,0.707106781186548,                   83P    155
0.707106781186548,1.,1.,0.707106781186548,0.707106781186548,1.,       83P    156
1.,0.707106781186548,0.707106781186548,1.,1.,0.707106781186548,       83P    157
0.707106781186548,1.,1.,33.528,0.,5.08,33.528,0.,2.54,33.528,         83P    158
33.528,5.08,33.528,33.528,2.54,2.05293009154783D-15,33.528,5.08,      83P    159
2.05293009154783D-15,33.528,2.54,-33.528,33.528,5.08,-33.528,         83P    160
33.528,2.54,-33.528,4.10586018309567D-15,5.08,-33.528,                83P    161
4.10586018309567D-15,2.54,-33.528,-33.528,5.08,-33.528,-33.528,       83P    162
2.54,-6.1587902746435D-15,-33.528,5.08,-6.1587902746435D-15,          83P    163
-33.528,2.54,33.528,-33.528,5.08,33.528,-33.528,2.54,33.528,0.,       83P    164
5.08,33.528,0.,2.54,0.,0.0625,0.,1.;                                  83P    165
508,4,0,27,12,0,0,0,27,4,1,0,0,27,12,1,0,0,27,9,0,0;                  85P    166
510,83,1,1,85;                                                        87P    167
514,9,33,1,39,1,47,1,53,1,59,1,67,1,75,1,81,1,87,1;                   89P    168
314,29.4117647058824,29.4117647058824,29.4117647058824,;              91P    169
186,89,0,0;                                                           93P    170
502,4,108.774,3.5527136788005D-15,0.,108.774,                         95P    171
3.5527136788005D-15,44.45,107.25,1.77635683940025D-14,0.,107.25,      95P    172
1.77635683940025D-14,44.45;                                           95P    173
126,8,2,0,1,0,0,0.,0.,0.,0.25,0.25,0.5,0.5,0.75,0.75,1.,1.,1.,        97P    174
1.,0.707106781186548,1.,0.707106781186548,1.,0.707106781186548,       97P    175
1.,0.707106781186548,1.,108.774,3.5527136788005D-15,0.,108.774,       97P    176
33.274,0.,75.5,33.274,0.,42.226,33.274,0.,42.226,                     97P    177
7.62746886050908D-15,0.,42.226,-33.274,0.,75.5,-33.274,0.,            97P    178
108.774,-33.274,0.,108.774,3.5527136788005D-15,0.,0.,1.,0.,0.,        97P    179
0.;                                                                   97P    180
126,1,1,0,0,1,0,0.,0.,1.,1.,1.,1.,108.774,3.5527136788005D-15,        99P    181
0.,108.774,3.5527136788005D-15,44.45,0.,1.,0.,0.,0.;                  99P    182
126,8,2,0,1,0,0,0.,0.,0.,0.25,0.25,0.5,0.5,0.75,0.75,1.,1.,1.,       101P    183
1.,0.707106781186548,1.,0.707106781186548,1.,0.707106781186548,      101P    184
1.,0.707106781186548,1.,108.774,3.5527136788005D-15,44.45,           101P    185
108.774,33.274,44.45,75.5,33.274,44.45,42.226,33.274,44.45,          101P    186
42.226,7.62746886050908D-15,44.45,42.226,-33.274,44.45,75.5,         101P    187
-33.274,44.45,108.774,-33.274,44.45,108.774,3.5527136788005D-15,     101P    188
44.45,0.,1.,0.,0.,0.;                                                101P    189
126,8,2,0,1,0,0,0.,0.,0.,0.25,0.25,0.5,0.5,0.75,0.75,1.,1.,1.,       103P    190
1.,0.707106781186548,1.,0.707106781186548,1.,0.707106781186548,      103P    191
1.,0.707106781186548,1.,107.25,1.77635683940025D-14,0.,107.25,       103P    192
31.75,0.,75.5,31.75,0.,43.75,31.75,0.,43.75,                         103P    193
2.16516935673886D-14,0.,43.75,-31.75,0.,75.5,-31.75,0.,107.25,       103P    194
-31.75,0.,107.25,1.77635683940025D-14,0.,0.,1.,0.,0.,0.;             103P    195
126,1,1,0,0,1,0,0.,0.,1.,1.,1.,1.,107.25,1.77635683940025D-14,       105P    196
0.,107.25,1.77635683940025D-14,44.45,0.,1.,0.,0.,0.;                 105P    197
126,8,2,0,1,0,0,0.,0.,0.,0.25,0.25,0.5,0.5,0.75,0.75,1.,1.,1.,       107P    198
1.,0.707106781186548,1.,0.707106781186548,1.,0.707106781186548,      107P    199
1.,0.707106781186548,1.,107.25,1.77635683940025D-14,44.45,           107P    200
107.25,31.75,44.45,75.5,31.75,44.45,43.75,31.75,44.45,43.75,         107P    201
2.16516935673886D-14,44.45,43.75,-31.75,44.45,75.5,-31.75,44.45,     107P    202
107.25,-31.75,44.45,107.25,1.77635683940025D-14,44.45,0.,1.,0.,      107P    203
0.,0.;                                                               107P    204
504,6,97,95,1,95,1,99,95,1,95,2,101,95,2,95,2,103,95,3,95,3,105,     109P    205
95,3,95,4,107,95,4,95,4;                                             109P    206
128,1,8,1,2,0,1,0,0,0,0.,0.,1.,1.,0.,0.,0.,0.25,0.25,0.5,0.5,        111P    207
0.75,0.75,1.,1.,1.,1.,1.,0.707106781186548,0.707106781186548,1.,     111P    208
1.,0.707106781186548,0.707106781186548,1.,1.,0.707106781186548,      111P    209
0.707106781186548,1.,1.,0.707106781186548,0.707106781186548,1.,      111P    210
1.,108.774,3.5527136788005D-15,0.,108.774,3.5527136788005D-15,       111P    211
44.45,108.774,33.274,0.,108.774,33.274,44.45,75.5,33.274,0.,         111P    212
75.5,33.274,44.45,42.226,33.274,0.,42.226,33.274,44.45,42.226,       111P    213
7.62746886050908D-15,0.,42.226,7.62746886050908D-15,44.45,           111P    214
42.226,-33.274,0.,42.226,-33.274,44.45,75.5,-33.274,0.,75.5,         111P    215
-33.274,44.45,108.774,-33.274,0.,108.774,-33.274,44.45,108.774,      111P    216
3.5527136788005D-15,0.,108.774,3.5527136788005D-15,44.45,0.,1.,      111P    217
0.,1.;                                                               111P    218
508,4,0,109,1,0,0,0,109,2,1,0,0,109,3,1,0,0,109,2,0,0;               113P    219
510,111,1,1,113;                                                     115P    220
128,1,8,1,2,0,1,0,0,0,0.,0.,1.,1.,0.,0.,0.,0.25,0.25,0.5,0.5,        117P    221
0.75,0.75,1.,1.,1.,1.,1.,0.707106781186548,0.707106781186548,1.,     117P    222
1.,0.707106781186548,0.707106781186548,1.,1.,0.707106781186548,      117P    223
0.707106781186548,1.,1.,0.707106781186548,0.707106781186548,1.,      117P    224
1.,107.25,1.77635683940025D-14,44.45,107.25,                         117P    225
1.77635683940025D-14,0.,107.25,31.75,44.45,107.25,31.75,0.,75.5,     117P    226
31.75,44.45,75.5,31.75,0.,43.75,31.75,44.45,43.75,31.75,0.,          117P    227
43.75,2.16516935673886D-14,44.45,43.75,2.16516935673886D-14,0.,      117P    228
43.75,-31.75,44.45,43.75,-31.75,0.,75.5,-31.75,44.45,75.5,           117P    229
-31.75,0.,107.25,-31.75,44.45,107.25,-31.75,0.,107.25,               117P    230
1.77635683940025D-14,44.45,107.25,1.77635683940025D-14,0.,0.,1.,     117P    231
0.,1.;                                                               117P    232
508,4,0,109,5,1,0,0,109,6,0,0,0,109,5,0,0,0,109,4,1,0;               119P    233
510,117,1,1,119;                                                     121P    234
128,1,1,1,1,0,0,1,0,0,0.178587826733387,0.178587826733387,           123P    235
0.821412173266613,0.821412173266613,0.178587826733387,               123P    236
0.178587826733387,0.821412173266612,0.821412173266612,1.,1.,1.,      123P    237
1.,108.774,-33.274,0.,108.774,33.274,0.,42.226,-33.274,0.,           123P    238
42.226,33.274,0.,0.178587826733387,0.821412173266613,                123P    239
0.178587826733387,0.821412173266612;                                 123P    240
508,1,0,109,1,1,0;                                                   125P    241
508,1,0,109,4,0,0;                                                   127P    242
510,123,2,1,125,127;                                                 129P    243
128,1,1,1,1,0,0,1,0,0,0.,0.,0.642824346533225,0.642824346533225,     131P    244
0.178587826733387,0.178587826733387,0.821412173266612,               131P    245
0.821412173266612,1.,1.,1.,1.,108.774,33.274,44.45,108.774,          131P    246
-33.274,44.45,42.226,33.274,44.45,42.226,-33.274,44.45,0.,           131P    247
0.642824346533225,0.178587826733387,0.821412173266612;               131P    248
508,1,0,109,3,0,0;                                                   133P    249
508,1,0,109,6,1,0;                                                   135P    250
510,131,2,1,133,135;                                                 137P    251
514,4,115,1,121,1,129,1,137,1;                                       139P    252
314,29.4117647058824,29.4117647058824,29.4117647058824,;             141P    253
186,139,0,0;                                                         143P    254
S      1G      5D    144P    254                                        T      1
